<?xml version="1.0" standalone="no"?>
<!DOCTYPE svg PUBLIC "-//W3C//DTD SVG 1.1//EN" "http://www.w3.org/Graphics/SVG/1.1/DTD/svg11.dtd" >
<svg xmlns="http://www.w3.org/2000/svg">
<metadata></metadata>
<defs>
<font id="alegreya_sansthin" horiz-adv-x="390" >
<font-face units-per-em="1000" ascent="800" descent="-200" />
<missing-glyph horiz-adv-x="180" />
<glyph unicode="&#xa8;I" horiz-adv-x="240" d="M50 780q0 20 20 20t20 -20t-20 -20t-20 20zM110 0v637h20v-637h-20zM150 780q0 20 20 20t20 -20t-20 -20t-20 20z" />
<glyph unicode="&#xa8;O" horiz-adv-x="627" d="M48 317q0 157 70 241t200 84q126 0 193.5 -81t67.5 -232q0 -161 -70 -247.5t-201 -86.5q-125 0 -192.5 83.5t-67.5 238.5zM68 317q0 -145 62 -223.5t178 -78.5q121 0 186 81.5t65 232.5q0 141 -62.5 217t-178.5 76q-121 0 -185.5 -79t-64.5 -226zM224 780q0 20 20 20 t20 -20t-20 -20t-20 20zM364 780q0 20 20 20t20 -20t-20 -20t-20 20z" />
<glyph unicode="&#xb4;Y" horiz-adv-x="495" d="M26 637h26l11 -26l173 -334h5l188 334l11 26h26l-218 -392v-245h-20v246zM177 742q91 44 176 94l5 -2l7 -12l-2 -5q-67 -38 -174 -93l-5 3z" />
<glyph unicode="&#xa8;i" horiz-adv-x="222" d="M41 595q0 20 20 20t20 -20t-20 -20t-20 20zM101 0v449l20 4v-453h-20zM141 595q0 20 20 20t20 -20t-20 -20t-20 20z" />
<glyph unicode="&#xa8;o" horiz-adv-x="487" d="M56 222q0 109 50.5 172t139.5 63q85 0 134 -60.5t49 -166.5q0 -109 -50.5 -172t-139.5 -63q-85 0 -134 60.5t-49 166.5zM76 222q0 -97 43.5 -152t119.5 -55q79 0 124.5 57t45.5 158q0 97 -43.5 152t-119.5 55q-79 0 -124.5 -57t-45.5 -158zM153 595q0 20 20 20t20 -20 t-20 -20t-20 20zM293 595q0 20 20 20t20 -20t-20 -20t-20 20z" />
<glyph unicode="&#xb4;y" horiz-adv-x="405" d="M-17 -172q87 18 128 51.5t74 120.5l-166 450l21 4l14 -45l140 -373h5l146 373l15 43h24l-177 -452q-38 -98 -81 -135.5t-130 -54.5h-5q-4 4 -8 12v6zM156 532q69 58 146 137l5 -1l10 -10l-1 -5q-69 -69 -144 -135l-5 1z" />
<glyph unicode="&#x7e;I" horiz-adv-x="240" d="M-4 758v4l47 47l6 2q16 -2 71 -20t66 -18q3 0 6 2t7.5 6t8.5 8l11 11l13 13h3l9 -11v-4l-47 -47l-6 -2q-16 2 -71 20t-66 18q-3 0 -6 -1.5t-7.5 -5.5t-8.5 -8t-11 -11.5t-13 -13.5h-3zM110 0v637h20v-637h-20z" />
<glyph unicode="&#x7e;i" horiz-adv-x="222" d="M-13 573v4l47 47l6 2q16 -2 71 -20t66 -18q3 0 6 2t7.5 6t8.5 8l11 11l13 13h3l9 -11v-4l-47 -47l-6 -2q-16 2 -71 20t-66 18q-3 0 -6 -1.5t-7.5 -5.5t-8.5 -8t-11 -11.5t-13 -13.5h-3zM101 0v449l20 4v-453h-20z" />
<glyph unicode="&#x7e;U" horiz-adv-x="612" d="M86 229v408h20v-408q-1 -103 51 -158t149 -55t148.5 55t51.5 158v408h20v-408q3 -110 -55 -171.5t-165 -61.5t-163.5 60t-56.5 173zM171 760v4l52 47l6 2q18 -2 80.5 -20t75.5 -18q3 0 6.5 2t8.5 6t9.5 8t12 11.5t14.5 13.5h4l9 -11v-4l-52 -47l-6 -2q-18 2 -80.5 20 t-75.5 18q-3 0 -6.5 -2t-8.5 -6t-9.5 -8t-12 -11.5t-14.5 -13.5h-4z" />
<glyph unicode="&#x7e;u" horiz-adv-x="504" d="M90 132v317l20 4v-320q0 -56 26 -86.5t75 -30.5q81 0 161 92v341l20 4v-374q0 -62 36 -62q23 0 41 15l6 -3l-4 -18q-20 -14 -45 -14q-54 0 -54 82h-4q-77 -83 -160 -83q-57 0 -87.5 35.5t-30.5 100.5zM115 575v4l52 47l6 2q18 -2 80.5 -20t75.5 -18q3 0 6.5 2t8.5 6 t9.5 8t12 11.5t14.5 13.5h4l9 -11v-4l-52 -47l-6 -2q-18 2 -80.5 20t-75.5 18q-3 0 -6.5 -2t-8.5 -6t-9.5 -8t-12 -11.5t-14.5 -13.5h-4z" />
<glyph unicode="&#x7e;E" horiz-adv-x="454" d="M110 0v637h308l3 -4l-4 -16h-287v-277h238l3 -4l-4 -16h-237v-300h292l3 -4l-4 -16h-311zM127 760v4l52 47l6 2q18 -2 80.5 -20t75.5 -18q3 0 6.5 2t8.5 6t9.5 8t12 11.5t14.5 13.5h4l9 -11v-4l-52 -47l-6 -2q-18 2 -80.5 20t-75.5 18q-3 0 -6.5 -2t-8.5 -6t-9.5 -8 t-12 -11.5t-14.5 -13.5h-4z" />
<glyph unicode="&#x7e;e" horiz-adv-x="433" d="M56 221q0 108 50.5 172t135.5 64q68 0 107.5 -43t39.5 -118q0 -11 -2 -27l-6 -7l-304 -10q-1 -10 -1 -31q0 -94 43 -150t119 -56q74 0 123 46l6 -2l-3 -20q-57 -44 -128 -44q-83 0 -131.5 61.5t-48.5 164.5zM80 272l288 10l1 14q0 66 -34.5 103.5t-93.5 37.5 q-64 0 -107 -44t-54 -121zM91 575v4l52 47l6 2q18 -2 80.5 -20t75.5 -18q3 0 6.5 2t8.5 6t9.5 8t12 11.5t14.5 13.5h4l9 -11v-4l-52 -47l-6 -2q-18 2 -80.5 20t-75.5 18q-3 0 -6.5 -2t-8.5 -6t-9.5 -8t-12 -11.5t-14.5 -13.5h-4z" />
<glyph unicode="&#x7e;Y" horiz-adv-x="495" d="M26 637h26l11 -26l173 -334h5l188 334l11 26h26l-218 -392v-245h-20v246zM100 760v4l52 47l6 2q18 -2 80.5 -20t75.5 -18q3 0 6.5 2t8.5 6t9.5 8t12 11.5t14.5 13.5h4l9 -11v-4l-52 -47l-6 -2q-18 2 -80.5 20t-75.5 18q-3 0 -6.5 -2t-8.5 -6t-9.5 -8t-12 -11.5 t-14.5 -13.5h-4z" />
<glyph unicode="&#x7e;y" horiz-adv-x="405" d="M-17 -172q87 18 128 51.5t74 120.5l-166 450l21 4l14 -45l140 -373h5l146 373l15 43h24l-177 -452q-38 -98 -81 -135.5t-130 -54.5h-5q-4 4 -8 12v6zM66 575v4l52 47l6 2q18 -2 80.5 -20t75.5 -18q3 0 6.5 2t8.5 6t9.5 8t12 11.5t14.5 13.5h4l9 -11v-4l-52 -47l-6 -2 q-18 2 -80.5 20t-75.5 18q-3 0 -6.5 -2t-8.5 -6t-9.5 -8t-12 -11.5t-14.5 -13.5h-4z" />
<glyph unicode="fi" horiz-adv-x="507" d="M46 436l4 16h67v89q0 85 37.5 124.5t118.5 39.5q64 0 124 -23l-6 -20h-6q-49 23 -112 23q-71 0 -103.5 -34.5t-32.5 -109.5v-89h262l13 2l3 -2v-452h-20v432h-258v-432h-20v432h-67z" />
<glyph unicode="fl" horiz-adv-x="510" d="M46 436l3 16h68v106q0 154 160 154q47 0 109 -14l19 4v-702h-20v677q-58 15 -106 15q-142 0 -142 -134v-106h125l3 -4l-3 -16h-125v-432h-20v432h-67z" />
<glyph unicode="fj" horiz-adv-x="509" d="M46 436l4 16h67v89q0 85 37.5 124.5t118.5 39.5q64 0 124 -23l-6 -20h-6q-49 23 -112 23q-71 0 -103.5 -34.5t-32.5 -109.5v-89h256l19 2l3 -2v-440q0 -78 -19 -120.5t-71 -83.5l-11 11v6q47 38 64 76.5t17 106.5v424h-258v-432h-20v432h-67z" />
<glyph unicode="&#x7e;G" horiz-adv-x="603" d="M48 313q0 158 76.5 243t218.5 85q89 0 180 -54l-6 -18h-7q-87 52 -167 52q-132 0 -203.5 -80t-71.5 -229q0 -143 62 -220t177 -77q81 0 189 30v191l20 2v-208q-114 -32 -208 -35q-125 0 -192.5 82.5t-67.5 235.5zM186 760v4l52 47l6 2q18 -2 80.5 -20t75.5 -18q3 0 6.5 2 t8.5 6t9.5 8t12 11.5t14.5 13.5h4l9 -11v-4l-52 -47l-6 -2q-18 2 -80.5 20t-75.5 18q-3 0 -6.5 -2t-8.5 -6t-9.5 -8t-12 -11.5t-14.5 -13.5h-4z" />
<glyph unicode="&#x7e;g" horiz-adv-x="472" d="M60 -77q5 34 29 60.5t73 54.5v5q-87 19 -87 68q5 25 57 60v3q-61 41 -61 127q0 73 42 114t116 41q55 0 94 -25q74 14 128 29l4 -3v-18q-47 -12 -109 -23l-2 -3q39 -41 39 -109q0 -71 -42 -112.5t-115 -41.5q-42 0 -75 14q-55 -35 -55 -57q0 -26 50 -40t109.5 -19.5 t109.5 -30.5t50 -72q0 -55 -59.5 -96t-139.5 -41q-71 0 -113.5 32.5t-42.5 82.5zM80 -82q0 -37 37 -63.5t99 -26.5q72 0 125.5 36t53.5 81q0 15 -5.5 26.5t-18.5 20t-24.5 14.5t-34.5 11t-35.5 7.5t-40.5 6.5t-39 6q-117 -59 -117 -119zM90 301q0 -61 36 -96t100 -35 t101 35.5t37 98.5q0 62 -36 97t-99 35q-65 0 -102 -36t-37 -99zM98 565v4l52 47l6 2q18 -2 80.5 -20t75.5 -18q3 0 6.5 2t8.5 6t9.5 8t12 11.5t14.5 13.5h4l9 -11v-4l-52 -47l-6 -2q-18 2 -80.5 20t-75.5 18q-3 0 -6.5 -2t-8.5 -6t-9.5 -8t-12 -11.5t-14.5 -13.5h-4z" />
<glyph unicode=" "  horiz-adv-x="180" />
<glyph unicode="&#x09;" horiz-adv-x="180" />
<glyph unicode="&#xa0;" horiz-adv-x="180" />
<glyph unicode="!" horiz-adv-x="247" d="M95 18q0 20 20 20t20 -20t-20 -20t-20 20zM114 203l8 448l3 3h14l3 -3l-8 -453h-16z" />
<glyph unicode="&#x22;" horiz-adv-x="222" d="M47 489l12 144l17 2l3 -4l-12 -144l-17 -2zM144 489l12 144l17 2l3 -4l-12 -144l-17 -2z" />
<glyph unicode="#" horiz-adv-x="480" d="M20 228l2 17h118l33 129h-112l-3 3l2 17h118l46 181h16l2 -5l-44 -176h118l46 181h16l2 -5l-44 -176h121l3 -3l-2 -17h-128l-32 -129h121l3 -3l-2 -17h-127l-49 -193h-16l-3 4l48 189h-118l-49 -193h-16l-3 4l48 189h-112zM160 245h118l33 129h-119z" />
<glyph unicode="$" horiz-adv-x="417" d="M61 33l1 19l5 1q48 -35 114 -37l19 225q-31 14 -47.5 23t-38.5 25.5t-31.5 36.5t-9.5 45q0 51 41.5 86.5t106.5 35.5l13 147h16l4 -5l-12 -143q42 -4 82 -21l-4 -18l-6 -1q-37 18 -74 21l-19 -218q38 -17 60 -30.5t41 -39.5t19 -59q0 -51 -40 -88t-102 -41l-11 -121h-15 l-4 4l10 117q-68 3 -118 36zM93 369q0 -19 8 -35t26 -29t33 -21t42 -20l17 210q-57 0 -91.5 -32.5t-34.5 -72.5zM201 17q54 4 87 36t33 72q0 37 -26 60.5t-76 46.5z" />
<glyph unicode="%" horiz-adv-x="792" d="M50 467q0 82 35.5 126.5t102.5 44.5q65 0 100 -44t35 -126q0 -83 -35.5 -127.5t-101.5 -44.5t-101 44t-35 127zM68 468q0 -74 31 -113.5t89 -39.5q56 0 86.5 39.5t30.5 112.5q0 74 -30.5 113t-88.5 39q-57 0 -87.5 -39t-30.5 -112zM128 -77l485 746l10 -5l3 -8l-485 -746 l-9 4zM469 167q0 83 35.5 127.5t102.5 44.5q65 0 100 -44t35 -126q0 -83 -35.5 -127.5t-101.5 -44.5t-101 44t-35 126zM487 169q0 -74 31 -113.5t89 -39.5q56 0 86.5 39t30.5 112q0 74 -30.5 113.5t-88.5 39.5q-57 0 -87.5 -39t-30.5 -112z" />
<glyph unicode="&#x26;" horiz-adv-x="676" d="M79 165q0 111 116 174v4q-75 64 -75 147q0 72 44.5 112.5t126.5 40.5q79 0 152 -41l-6 -19h-7q-62 40 -137 40q-74 0 -113.5 -35.5t-39.5 -98.5q0 -76 74 -137l262 -230q20 43 20 97q0 80 -40 152h-79l-4 4l4 16h282l3 -4l-4 -16h-174v-4q32 -76 32 -148q0 -63 -24 -111 l133 -117v-3q-7 -7 -15 -10l-3 1l-125 110q-59 -93 -192 -93q-93 0 -152 45.5t-59 123.5zM99 167q0 -69 54 -110t138 -41q123 0 176 87l-254 225q-114 -56 -114 -161z" />
<glyph unicode="'" horiz-adv-x="125" d="M47 489l12 144l17 2l3 -4l-12 -144l-17 -2z" />
<glyph unicode="(" horiz-adv-x="281" d="M95 260q1 155 38.5 246.5t128.5 156.5h4l9 -11v-4q-87 -62 -123 -150t-37 -238q1 -150 37 -238t123 -150v-4l-9 -11h-4q-91 65 -128.5 156.5t-38.5 246.5z" />
<glyph unicode=")" horiz-adv-x="281" d="M6 -128q87 62 123 150t37 238q-1 150 -37 238t-123 150v4l9 11h4q91 -65 128.5 -156.5t38.5 -246.5q-1 -155 -38.5 -246.5t-128.5 -156.5h-4l-9 11v4z" />
<glyph unicode="*" horiz-adv-x="364" d="M41 606q0 14 3 21l3 2l104 -46l-3 -14l-5 -1zM80 458l76 85l12 -7l-1 -6l-67 -85q-10 3 -19 10zM171 603l5 109q11 3 21 3l2 -2l-11 -113l-14 -2zM195 535l11 9l5 -2l60 -90q-7 -10 -15 -15h-3zM210 583l3 4l104 29q6 -7 10 -19l-1 -2l-111 -25z" />
<glyph unicode="+" horiz-adv-x="480" d="M39 263l2 17h189v189l17 2l3 -3v-188h188l3 -3l-2 -17h-189v-189l-17 -2l-3 3v188h-188z" />
<glyph unicode="," horiz-adv-x="230" d="M73 -89l1 3q54 40 54 78q0 20 -30 34v4q5 7 13 11q38 -17 38 -48q0 -42 -66 -93z" />
<glyph unicode="-" horiz-adv-x="311" d="M31 232v16l245 33l4 -4v-16l-245 -33z" />
<glyph unicode="." horiz-adv-x="230" d="M95 18q0 20 20 20t20 -20t-20 -20t-20 20z" />
<glyph unicode="/" horiz-adv-x="291" d="M47 -106l204 781h16l3 -5l-204 -780h-16z" />
<glyph unicode="0" horiz-adv-x="535" d="M55 241q0 123 55 188.5t159 65.5q102 0 156.5 -65t54.5 -187q0 -119 -55 -183t-158 -64q-102 0 -157 63.5t-55 181.5zM75 243q0 -110 50 -168.5t144 -58.5q92 0 141.5 58t49.5 167q0 113 -50 173.5t-143 60.5q-92 0 -142 -60t-50 -172z" />
<glyph unicode="1" horiz-adv-x="328" d="M15 424v16l167 53l4 -4v-489h-20v466l-146 -45z" />
<glyph unicode="2" horiz-adv-x="439" d="M55 1v16l140 171q59 72 87 119.5t28 83.5q0 35 -25.5 58t-70.5 23q-81 0 -141 -77h-4l-4 17q62 80 150 80q51 0 83 -28t32 -71q0 -72 -121 -218l-126 -152l2 -3h237l78 1l3 -4l-4 -18l-82 1h-222l-38 -1z" />
<glyph unicode="3" horiz-adv-x="392" d="M39 427q67 66 138 66q57 0 93.5 -32.5t36.5 -85.5q0 -46 -29 -87.5t-77 -63.5v-3q66 -14 101 -52.5t35 -96.5q0 -76 -57 -123.5t-148 -47.5q-44 0 -87 8l-3 17l3 3q43 -8 87 -8q83 0 134 41.5t51 109.5q0 62 -44 97.5t-126 39.5h-47l-3 3l1 16h43q49 0 97 42.5t48 101.5 q0 45 -30 72.5t-79 27.5q-67 0 -130 -63h-4z" />
<glyph unicode="4" horiz-adv-x="457" d="M32 102v17l260 372h20v-372h105l4 -4l-4 -17l-71 1h-34v-191l-2 -3l-16 -3l-2 3v194h-215l-42 -1zM56 119h236v333h-4z" />
<glyph unicode="5" horiz-adv-x="403" d="M44 -75l3 3q41 -7 75 -7q92 0 148 46.5t56 123.5q0 52 -40 85.5t-125 53.5l-74 17l-4 5l5 232l9 8l49 -1h136l65 1l2 -2l-2 -18l-3 -2l-41 1h-195l-6 -206l66 -15q92 -21 135 -60t43 -100q0 -85 -62 -137t-163 -52q-35 0 -73 7z" />
<glyph unicode="6" horiz-adv-x="456" d="M60 206q0 134 78.5 234.5t221.5 151.5h4l9 -11v-4q-122 -44 -195 -120.5t-92 -179.5l2 -2q73 60 159 60q73 0 114 -42t41 -119q0 -87 -45 -133.5t-130 -46.5q-80 0 -123.5 55t-43.5 157zM80 206q0 -92 38 -142t109 -50q75 0 115 41.5t40 118.5q0 68 -36 104.5t-100 36.5 q-86 0 -164 -68q-2 -26 -2 -41z" />
<glyph unicode="7" horiz-adv-x="401" d="M28 475l3 17l65 -1h238l36 1l1 -18l-223 -493l-35 -86l-19 6l-1 4l256 566h-259l-58 -1z" />
<glyph unicode="8" horiz-adv-x="455" d="M55 144q0 108 140 161v3q-53 23 -83 55t-30 85q0 65 42 103t109 38q64 0 101 -35.5t37 -97.5q0 -58 -33 -92.5t-89 -56.5v-3q26 -10 42 -17.5t37.5 -21.5t33.5 -28.5t20.5 -36.5t8.5 -49q0 -70 -47 -112.5t-125 -42.5q-75 0 -119.5 40.5t-44.5 107.5zM75 143 q0 -57 39 -92t105 -35q69 0 110.5 36.5t41.5 96.5q0 30 -10.5 53t-34 40t-43 26.5t-53.5 23.5q-7 3 -10 4q-30 -11 -51.5 -22t-45 -29t-36 -44t-12.5 -58zM102 448q0 -28 9 -49t28.5 -36.5t37 -25t45.5 -21.5q58 19 93.5 51t35.5 90q0 52 -31.5 82t-86.5 30q-59 0 -95 -32.5 t-36 -88.5z" />
<glyph unicode="9" horiz-adv-x="456" d="M54 318q0 87 45 133.5t130 46.5q80 0 123.5 -55t43.5 -157q0 -134 -78.5 -234.5t-221.5 -151.5h-4l-9 11v4q122 44 195 120.5t92 179.5l-2 2q-73 -60 -159 -60q-73 0 -114 42t-41 119zM74 318q0 -68 36 -104.5t100 -36.5q86 0 164 68q2 26 2 41q0 92 -38 142t-109 50 q-75 0 -115 -41.5t-40 -118.5z" />
<glyph unicode=":" horiz-adv-x="230" d="M91 18q0 20 20 20t20 -20t-20 -20t-20 20zM91 295q0 20 20 20t20 -20t-20 -20t-20 20z" />
<glyph unicode=";" horiz-adv-x="230" d="M69 -89l1 3q54 40 54 78q0 20 -30 34v4q5 7 13 11q38 -17 38 -48q0 -42 -66 -93zM91 295q0 20 20 20t20 -20t-20 -20t-20 20z" />
<glyph unicode="&#x3c;" horiz-adv-x="480" d="M40 258v22l3 4l389 171l7 -14l-3 -5l-370 -164v-4l374 -153l-6 -15l-4 -2z" />
<glyph unicode="=" horiz-adv-x="480" d="M39 191l2 17h397l3 -3l-2 -17h-397zM39 335l2 17h397l3 -3l-2 -17h-397z" />
<glyph unicode="&#x3e;" horiz-adv-x="480" d="M40 115l374 153v4l-370 164l-3 5l7 14l389 -171l3 -4v-22l-390 -160l-4 2z" />
<glyph unicode="?" horiz-adv-x="322" d="M75 637l6 14l6 3q109 -9 167 -49t58 -105q0 -76 -77 -128l-96 -66l-1 -3l5 -108l-17 -1l-3 4l-6 110l5 9l101 69q69 44 69 112q0 59 -56 94.5t-159 41.5zM115 18q0 20 20 20t20 -20t-20 -20t-20 20z" />
<glyph unicode="@" horiz-adv-x="805" d="M44 190q0 181 109 291.5t288 110.5q147 0 234.5 -85t87.5 -223q0 -132 -77 -205.5t-223 -82.5l36 275h-5q-93 -177 -202 -275h-11q-27 20 -39.5 52t-12.5 89q0 131 60.5 222t166.5 98h4l65 -5l13 7l5 -3l-46 -350l-8 -90q124 12 189 80.5t65 187.5q0 130 -81.5 209 t-220.5 79q-169 0 -273 -105t-104 -273q0 -167 105 -263t281 -96l1 -4l-13 -16q-177 4 -285.5 105.5t-108.5 269.5zM249 141q0 -41 8 -69t16.5 -38t15.5 -10q8 0 40 34.5t83 111t96 166.5q1 7 10 96l-60 5q-63 -1 -111.5 -44t-73 -109t-24.5 -143z" />
<glyph unicode="A" horiz-adv-x="554" d="M19 0l254 637h20l233 -637h-23q-13 44 -43 124t-33 89h-302l-68 -170l-14 -43h-24zM133 233h287l-136 370h-4z" />
<glyph unicode="B" horiz-adv-x="492" d="M110 0v637l123 2q79 0 121.5 -38.5t42.5 -109.5q0 -119 -96 -157q69 -10 107.5 -49.5t38.5 -108.5q0 -85 -59 -132t-169 -47q-58 0 -109 3zM130 20q39 -3 85 -3q102 0 157 42t55 117q0 64 -41 101t-117 43h-139v-300zM130 343l130 -3q56 11 86 50t30 101q0 58 -37 92.5 t-99 34.5h-110v-275z" />
<glyph unicode="C" horiz-adv-x="523" d="M48 317q0 156 68.5 240t196.5 84q100 0 176 -59l-7 -17h-7q-70 56 -162 56q-119 0 -182 -79t-63 -226q0 -145 60 -223t173 -78q100 0 183 67l7 -2l-2 -18q-87 -67 -187 -67q-123 0 -188.5 83.5t-65.5 238.5z" />
<glyph unicode="D" horiz-adv-x="637" d="M110 0v637l201 5q134 0 206 -78.5t72 -224.5q0 -166 -74.5 -255t-213.5 -89q-81 0 -191 5zM130 20q108 -5 171 -5q129 0 198.5 84t69.5 240q0 137 -67 210t-191 73q-79 0 -181 -5v-597z" />
<glyph unicode="E" horiz-adv-x="454" d="M110 0v637h308l3 -4l-4 -16h-287v-277h238l3 -4l-4 -16h-237v-300h292l3 -4l-4 -16h-311z" />
<glyph unicode="F" horiz-adv-x="411" d="M110 0v637h297l3 -4l-4 -16h-276v-287h227l3 -4l-4 -16h-226v-310h-20z" />
<glyph unicode="G" horiz-adv-x="603" d="M48 313q0 158 76.5 243t218.5 85q89 0 180 -54l-6 -18h-7q-87 52 -167 52q-132 0 -203.5 -80t-71.5 -229q0 -143 62 -220t177 -77q81 0 189 30v191l20 2v-208q-114 -32 -208 -35q-125 0 -192.5 82.5t-67.5 235.5z" />
<glyph unicode="H" horiz-adv-x="670" d="M110 0v637h20v-303h410v303h20v-637h-20v314h-410v-314h-20z" />
<glyph unicode="I" horiz-adv-x="240" d="M110 0v637h20v-637h-20z" />
<glyph unicode="J" horiz-adv-x="268" d="M8 621l3 16h149v-522q0 -70 -29.5 -118.5t-99.5 -94.5l-11 11v6q64 42 92 87t28 107v504h-128z" />
<glyph unicode="K" horiz-adv-x="507" d="M110 0v637h20v-637h-20zM159 338v3l249 249l43 47h31l-296 -297q146 -176 312 -335v-4q-3 -3 -14 -8l-4 1q-183 178 -321 344z" />
<glyph unicode="L" horiz-adv-x="398" d="M109 0v637h20v-617h261l3 -4l-4 -16h-280z" />
<glyph unicode="M" horiz-adv-x="781" d="M76 0l70 637h23q31 -78 68 -167t80.5 -193.5t68.5 -166.5h4q12 28 96 225.5t128 301.5h23l68 -637h-21q-10 104 -64 589h-5l-214 -508h-25l-210 508h-5q-53 -487 -64 -589h-21z" />
<glyph unicode="N" horiz-adv-x="670" d="M110 0v190l1 447h19l404 -595h4l2 594l20 2l-1 -462l-1 -176h-19l-404 595h-4l-1 -396v-199h-20z" />
<glyph unicode="O" horiz-adv-x="627" d="M48 317q0 157 70 241t200 84q126 0 193.5 -81t67.5 -232q0 -161 -70 -247.5t-201 -86.5q-125 0 -192.5 83.5t-67.5 238.5zM68 317q0 -145 62 -223.5t178 -78.5q121 0 186 81.5t65 232.5q0 141 -62.5 217t-178.5 76q-121 0 -185.5 -79t-64.5 -226z" />
<glyph unicode="P" horiz-adv-x="484" d="M110 0v637l141 2q87 0 134 -46.5t47 -132.5q0 -102 -55 -156.5t-158 -54.5h-89v-249h-20zM130 269h119q78 7 120.5 57.5t42.5 133.5q0 74 -40 115t-114 44l-128 -1v-349z" />
<glyph unicode="Q" horiz-adv-x="628" d="M48 317q0 157 70 241t200 84q126 0 193.5 -81t67.5 -232q0 -144 -56 -228.5t-161 -101.5q161 -139 367 -163v-6l-8 -12h-5q-211 26 -380 178q-9 -1 -28 -1q-125 0 -192.5 83.5t-67.5 238.5zM68 317q0 -145 62 -223.5t178 -78.5q121 0 186 81.5t65 232.5q0 141 -62.5 217 t-178.5 76q-121 0 -185.5 -79t-64.5 -226z" />
<glyph unicode="R" horiz-adv-x="518" d="M110 0v637l141 2q87 0 134 -45t47 -130q0 -74 -38 -124.5t-109 -72.5q78 -128 181 -262v-4q-5 -5 -12 -8l-6 2q-107 140 -184 268h-134v-263h-20zM130 283h142q67 17 103.5 64t36.5 117q0 72 -40 112t-114 43l-128 -1v-335z" />
<glyph unicode="S" horiz-adv-x="445" d="M52 43l1 19l5 2q61 -48 145 -48q74 0 120.5 44.5t46.5 101.5q0 45 -31.5 78.5t-76 54.5t-89 43.5t-76 58.5t-31.5 86q0 66 50.5 111.5t129.5 45.5q60 0 122 -29l-4 -18l-7 -1q-55 28 -113 28q-72 0 -115 -43.5t-43 -96.5q0 -43 31.5 -74.5t76 -52.5t89 -43t76 -59.5 t31.5 -88.5q0 -68 -53 -117t-133 -49q-87 0 -152 47z" />
<glyph unicode="T" horiz-adv-x="475" d="M28 621l4 16h412l3 -4l-4 -16h-195v-617h-20v617h-197z" />
<glyph unicode="U" horiz-adv-x="612" d="M86 229v408h20v-408q-1 -103 51 -158t149 -55t148.5 55t51.5 158v408h20v-408q3 -110 -55 -171.5t-165 -61.5t-163.5 60t-56.5 173z" />
<glyph unicode="V" horiz-adv-x="538" d="M20 637h23l13 -43l206 -560h4l223 560l14 43h24l-254 -637h-20z" />
<glyph unicode="W" horiz-adv-x="884" d="M23 637h23l13 -43l202 -560h4l169 437l-60 166h22l13 -43l202 -560h4l219 560l14 43h23l-249 -637h-20l-156 438h-4l-170 -438h-20z" />
<glyph unicode="X" horiz-adv-x="566" d="M34 0l229 330l-215 307h28q38 -58 111.5 -163t88.5 -128l174 251l24 40h27l-212 -307l231 -330h-27q-41 63 -120.5 176.5t-96.5 137.5l-193 -278l-22 -36h-27z" />
<glyph unicode="Y" horiz-adv-x="495" d="M26 637h26l11 -26l173 -334h5l188 334l11 26h26l-218 -392v-245h-20v246z" />
<glyph unicode="Z" horiz-adv-x="507" d="M32 -1v18l401 600h-320l-58 -1l-4 5l3 17l65 -1h304l37 1v-18l-401 -600h331l68 1l4 -5l-3 -16h-391z" />
<glyph unicode="[" horiz-adv-x="281" d="M117 -123v759l146 10l4 -4v-15l-130 -9v-723l130 -9v-15l-4 -4z" />
<glyph unicode="\" horiz-adv-x="291" d="M21 670l3 5h16l204 -781l-3 -4h-16z" />
<glyph unicode="]" horiz-adv-x="281" d="M14 -114l130 9v723l-130 9v15l4 4l146 -10v-759l-146 -10l-4 4v15z" />
<glyph unicode="^" horiz-adv-x="407" d="M25 120l171 364l4 3h22l160 -366l-2 -4l-15 -5l-153 350h-4l-164 -346l-5 -3z" />
<glyph unicode="_" horiz-adv-x="455" d="M-15 -103l2 17h480l3 -3l-2 -17h-480z" />
<glyph unicode="`" d="M115 658l10 10l5 1q77 -79 146 -137l-11 -13l-5 -1q-75 66 -144 135z" />
<glyph unicode="a" horiz-adv-x="442" d="M56 107q0 36 21.5 61t60.5 34l172 40l3 98q0 47 -25.5 72t-73.5 25q-63 0 -137 -65l-6 2l-5 15q77 68 149 68q57 0 87.5 -29.5t30.5 -83.5q0 -12 -5 -135t-5 -136q0 -56 36 -56q24 0 42 15l6 -3l-4 -18q-20 -14 -45 -14q-54 0 -55 76h-3q-64 -75 -131 -78 q-54 0 -83.5 29.5t-29.5 82.5zM76 107q0 -43 24 -67.5t68 -24.5q69 0 136 91l5 115l-166 -39q-67 -16 -67 -75z" />
<glyph unicode="b" horiz-adv-x="501" d="M105 3v695l20 4v-317h3q62 71 148 71q80 0 124.5 -57.5t44.5 -161.5q0 -116 -55.5 -179.5t-156.5 -63.5q-61 0 -110 13l-13 -7zM125 28q64 -14 108 -14q92 0 142 58.5t50 164.5q0 95 -39 147t-110 52q-87 0 -151 -83v-325z" />
<glyph unicode="c" horiz-adv-x="386" d="M56 222q0 107 48.5 171t128.5 64q74 0 129 -42l-7 -17h-6q-52 39 -116 39q-71 0 -114 -58.5t-43 -156.5q0 -94 42.5 -150.5t114.5 -56.5q71 0 127 43l6 -2l-2 -18q-58 -43 -132 -43q-80 0 -128 62t-48 165z" />
<glyph unicode="d" horiz-adv-x="507" d="M56 217q0 115 55.5 177.5t156.5 62.5q51 0 108 -17v258l20 4v-627q0 -58 35 -58q23 0 41 15l6 -3l-4 -18q-20 -14 -44 -14q-53 0 -54 72h-3q-63 -74 -144 -74q-78 0 -125.5 59t-47.5 163zM76 217q0 -94 42.5 -148t111.5 -54q84 0 146 86v317q-55 19 -108 19 q-92 0 -142 -57.5t-50 -162.5z" />
<glyph unicode="e" horiz-adv-x="433" d="M56 221q0 108 50.5 172t135.5 64q68 0 107.5 -43t39.5 -118q0 -11 -2 -27l-6 -7l-304 -10q-1 -10 -1 -31q0 -94 43 -150t119 -56q74 0 123 46l6 -2l-3 -20q-57 -44 -128 -44q-83 0 -131.5 61.5t-48.5 164.5zM80 272l288 10l1 14q0 66 -34.5 103.5t-93.5 37.5 q-64 0 -107 -44t-54 -121z" />
<glyph unicode="f" horiz-adv-x="276" d="M46 436l3 16h68v108q0 70 31.5 107t90.5 37q31 0 68 -9l-2 -19l-3 -2q-29 10 -63 10q-49 0 -75.5 -32t-26.5 -92v-108h125l3 -4l-3 -16h-125v-432h-20v432h-67z" />
<glyph unicode="g" horiz-adv-x="472" d="M60 -77q5 34 29 60.5t73 54.5v5q-87 19 -87 68q5 25 57 60v3q-61 41 -61 127q0 73 42 114t116 41q55 0 94 -25q74 14 128 29l4 -3v-18q-47 -12 -109 -23l-2 -3q39 -41 39 -109q0 -71 -42 -112.5t-115 -41.5q-42 0 -75 14q-55 -35 -55 -57q0 -26 50 -40t109.5 -19.5 t109.5 -30.5t50 -72q0 -55 -59.5 -96t-139.5 -41q-71 0 -113.5 32.5t-42.5 82.5zM80 -82q0 -37 37 -63.5t99 -26.5q72 0 125.5 36t53.5 81q0 15 -5.5 26.5t-18.5 20t-24.5 14.5t-34.5 11t-35.5 7.5t-40.5 6.5t-39 6q-117 -59 -117 -119zM90 301q0 -61 36 -96t100 -35 t101 35.5t37 98.5q0 62 -36 97t-99 35q-65 0 -102 -36t-37 -99z" />
<glyph unicode="h" horiz-adv-x="506" d="M105 0v698l20 4v-328h4q77 83 156 83q63 0 97.5 -35.5t33.5 -100.5l-1 -127l-1 -194h-20l2 320q0 55 -29 86t-82 31q-80 0 -160 -96v-341h-20z" />
<glyph unicode="i" horiz-adv-x="222" d="M91 611q0 20 20 20t20 -20t-20 -20t-20 20zM101 0v449l20 4v-453h-20z" />
<glyph unicode="j" horiz-adv-x="222" d="M20 436l3 16h83l20 1l2 -2v-439q0 -78 -19.5 -120.5t-73.5 -83.5l-10 10v6q48 37 65.5 76.5t17.5 107.5v424h-84zM83 611q0 20 20 20t20 -20t-20 -20t-20 20z" />
<glyph unicode="k" horiz-adv-x="418" d="M105 0v698l20 4v-702h-20zM155 238v5l177 175l29 34h31l-211 -211q110 -124 227 -236v-4q-2 -3 -15 -8l-4 1q-125 122 -234 244z" />
<glyph unicode="l" horiz-adv-x="230" d="M105 0v698l20 4v-702h-20z" />
<glyph unicode="m" horiz-adv-x="789" d="M101 0v449l20 4v-79h5q77 83 155 83q101 0 124 -87h5q79 87 159 87q62 0 96 -35.5t34 -100.5v-127l-2 -194h-20l2 320q0 55 -29 86t-81 31q-80 0 -159 -92q1 -8 1 -24v-127l-2 -194h-20l2 320q0 55 -29 86t-81 31q-80 0 -160 -96l1 -145l-1 -196h-20z" />
<glyph unicode="n" horiz-adv-x="502" d="M101 0v449l20 4v-79h4q77 83 156 83q63 0 97 -35.5t34 -100.5v-321h-22l2 320q0 55 -29 86t-82 31q-80 0 -160 -96v-341h-20z" />
<glyph unicode="o" horiz-adv-x="487" d="M56 222q0 109 50.5 172t139.5 63q85 0 134 -60.5t49 -166.5q0 -109 -50.5 -172t-139.5 -63q-85 0 -134 60.5t-49 166.5zM76 222q0 -97 43.5 -152t119.5 -55q79 0 124.5 57t45.5 158q0 97 -43.5 152t-119.5 55q-79 0 -124.5 -57t-45.5 -158z" />
<glyph unicode="p" horiz-adv-x="497" d="M101 -185v634l20 4v-67h3q62 71 148 71q80 0 124.5 -57.5t44.5 -161.5q0 -116 -55.5 -179.5t-156.5 -63.5q-59 0 -108 10v-190h-20zM121 27q61 -12 108 -12q92 0 142 58.5t50 164.5q0 95 -39 147t-110 52q-87 0 -151 -83v-327z" />
<glyph unicode="q" horiz-adv-x="497" d="M56 219q0 113 55.5 175.5t152.5 62.5q41 0 112 -15l16 13l4 -3v-637h-20v254h-3q-63 -74 -144 -74q-79 0 -126 59t-47 165zM76 218q0 -96 42 -149.5t112 -53.5q85 0 146 86v319q-63 17 -109 17q-90 0 -140.5 -57.5t-50.5 -161.5z" />
<glyph unicode="r" horiz-adv-x="298" d="M101 0v449l20 4v-111h4q60 110 136 110q13 0 27 -2v-19l-5 -2q-15 3 -27 3q-68 0 -135 -131v-301h-20z" />
<glyph unicode="s" horiz-adv-x="357" d="M45 30l3 17l5 3q47 -35 106 -35q56 0 89.5 30t33.5 71q0 31 -23 53.5t-55.5 37.5t-65 30.5t-55.5 42t-23 63.5q0 49 36.5 80.5t96.5 31.5q46 0 94 -20l-5 -19l-6 -1q-41 20 -84 20q-50 0 -81 -27t-31 -66q0 -31 23 -54t55.5 -38t65 -30.5t55.5 -41t23 -61.5 q0 -51 -40 -86.5t-102 -35.5q-66 0 -115 35z" />
<glyph unicode="t" horiz-adv-x="298" d="M40 436l3 16h63v108l16 6l4 -3v-111h155l3 -4l-3 -16h-155v-319q0 -97 74 -97q38 0 78 26l4 -3l-2 -18q-44 -25 -80 -25q-45 0 -69.5 30t-24.5 86v320h-62z" />
<glyph unicode="u" horiz-adv-x="504" d="M90 132v317l20 4v-320q0 -56 26 -86.5t75 -30.5q81 0 161 92v341l20 4v-374q0 -62 36 -62q23 0 41 15l6 -3l-4 -18q-20 -14 -45 -14q-54 0 -54 82h-4q-77 -83 -160 -83q-57 0 -87.5 35.5t-30.5 100.5z" />
<glyph unicode="v" horiz-adv-x="404" d="M29 450l21 4l13 -45l130 -378h4l151 378l15 43h24l-182 -452h-22z" />
<glyph unicode="w" horiz-adv-x="652" d="M29 450l21 4q23 -83 68.5 -235.5t55.5 -186.5h4q11 32 63 185t79 235h23q22 -83 67 -234t55 -186h4q11 32 63.5 184.5t79.5 235.5h23l-158 -452h-22l-123 416h-4l-142 -416h-22z" />
<glyph unicode="x" horiz-adv-x="409" d="M27 0l164 233l-152 216l24 5q26 -42 78.5 -116.5t62.5 -89.5l119 170l21 34h27l-155 -221l161 -228l-24 -5q-28 44 -84 124t-66 94l-129 -185l-20 -31h-27z" />
<glyph unicode="y" horiz-adv-x="405" d="M-17 -172q87 18 128 51.5t74 120.5l-166 450l21 4l14 -45l140 -373h5l146 373l15 43h24l-177 -452q-38 -98 -81 -135.5t-130 -54.5h-5q-4 4 -8 12v6z" />
<glyph unicode="z" horiz-adv-x="399" d="M38 -1v17l291 416h-228l-46 -1l-4 4l4 18l52 -1h224l25 1l1 -17l-291 -416h237l53 1l3 -4l-4 -18l-57 1h-233z" />
<glyph unicode="{" horiz-adv-x="281" d="M54 244v18q49 6 71.5 29t22.5 66q0 22 -9.5 90.5t-9.5 98.5q0 107 94 107q19 0 37 -5l3 -3l-4 -17q-27 5 -39 5q-71 0 -71 -87q0 -29 9.5 -97t9.5 -92q0 -77 -66 -103v-2q66 -26 66 -103q0 -24 -9.5 -92t-9.5 -97q0 -87 71 -87q12 0 39 5l4 -17q-8 -8 -40 -8 q-94 0 -94 107q0 30 9.5 98.5t9.5 90.5q0 43 -22.5 66t-71.5 29z" />
<glyph unicode="|" horiz-adv-x="320" d="M150 -261v1050l18 2l2 -2v-1054h-17z" />
<glyph unicode="}" horiz-adv-x="281" d="M18 -139l4 17q27 -5 39 -5q71 0 71 87q0 29 -9.5 97t-9.5 92q0 77 66 103v2q-66 26 -66 103q0 24 9.5 92t9.5 97q0 87 -71 87q-12 0 -39 -5l-4 17q8 8 40 8q94 0 94 -107q0 -30 -9.5 -98.5t-9.5 -90.5q0 -43 22.5 -66t71.5 -29v-18q-49 -6 -71.5 -29t-22.5 -66 q0 -22 9.5 -90.5t9.5 -98.5q0 -107 -94 -107q-19 0 -37 5z" />
<glyph unicode="~" horiz-adv-x="480" d="M71 242v5l64 53l6 3q21 -3 98 -24t94 -21q2 0 4.5 0.5t5 2l5 3t6 4.5t6.5 5t8 6t8.5 7t9.5 8.5t10 9.5h6l7 -10v-4l-65 -54l-6 -2q-22 2 -98.5 23.5t-92.5 21.5q-4 0 -8 -2t-10.5 -6.5t-11.5 -9t-15.5 -13.5l-17.5 -15h-6z" />
<glyph unicode="&#xa1;" horiz-adv-x="247" d="M103 -194l8 453h16l4 -5l-8 -448l-3 -3h-14zM110 439q0 20 20 20t20 -20t-20 -20t-20 20z" />
<glyph unicode="&#xa2;" horiz-adv-x="384" d="M51 268q0 107 48.5 171t128.5 64h5l13 147h16l4 -5l-12 -144q60 -8 103 -40l-7 -17h-6q-40 30 -92 37l-36 -420h12q71 0 127 43l6 -2l-2 -18q-58 -43 -132 -43h-13l-14 -155h-15l-4 4l13 154q-66 13 -104.5 73t-38.5 151zM71 268q0 -82 33.5 -136.5t91.5 -67.5l35 419h-3 q-71 0 -114 -58.5t-43 -156.5z" />
<glyph unicode="&#xa3;" horiz-adv-x="384" d="M32 4l3 14q70 9 70 112v178h-67l-4 4l3 16h68v119q0 144 124 144q45 0 99 -19l-2 -19l-3 -2q-41 20 -91 20q-107 0 -107 -124v-119h125l3 -4l-3 -16h-125v-178q0 -74 -40 -108v-2h188l69 1l4 -5l-3 -16h-307z" />
<glyph unicode="&#xa4;" horiz-adv-x="436" d="M43 214l1 5l65 65q-32 35 -32 83q0 47 32 84l-66 66l1 5l9 9h5l66 -66q35 32 83 32q45 0 83 -31l65 65l5 -1l10 -10l-1 -5l-64 -64q32 -37 32 -84q0 -48 -32 -83l66 -66l-1 -5l-10 -10l-5 1l-65 65q-35 -32 -83 -32t-83 32l-66 -66l-5 1zM97 367q0 -45 32.5 -77.5 t77.5 -32.5t77.5 32.5t32.5 77.5t-32.5 77.5t-77.5 32.5t-77.5 -32.5t-32.5 -77.5z" />
<glyph unicode="&#xa5;" horiz-adv-x="434" d="M16 133l2 17h188v37l-40 73h-147l-3 3l2 17h137l-115 211h25l9 -21l140 -253h4l152 253l10 21h25l-124 -211h134l3 -3l-2 -17h-147l-43 -74v-36h189l3 -3l-2 -17h-190v-130h-20v130h-187z" />
<glyph unicode="&#xa6;" horiz-adv-x="320" d="M150 157l17 3l3 -5v-420h-17l-3 4v418zM150 369v420l18 2l2 -2v-421l-17 -2z" />
<glyph unicode="&#xa7;" horiz-adv-x="407" d="M45 -70l3 17l5 3q47 -35 106 -35q56 0 89.5 30t33.5 70q0 31 -23 61t-55.5 55.5t-65 51.5t-55.5 58.5t-23 67.5q0 74 92 126q-42 44 -42 89q0 48 39 82t97 34q44 0 92 -20l-5 -19l-6 -1q-41 20 -83 20q-52 0 -83 -30t-31 -67q0 -29 23 -58t55.5 -54t65 -51t55.5 -59.5 t23 -69.5q0 -75 -92 -124q42 -45 42 -91q0 -50 -40.5 -85.5t-102.5 -35.5q-65 0 -114 35zM80 308q0 -33 23.5 -62.5t75 -69t67.5 -54.5q86 42 86 108q0 28 -18 55.5t-39 45.5t-56.5 46t-52.5 44q-41 -22 -63.5 -52t-22.5 -61z" />
<glyph unicode="&#xa8;" d="M104 595q0 20 20 20t20 -20t-20 -20t-20 20zM244 595q0 20 20 20t20 -20t-20 -20t-20 20z" />
<glyph unicode="&#xa9;" horiz-adv-x="682" d="M49 293q0 137 80 221t211 84t211.5 -84t80.5 -221t-80.5 -221t-211.5 -84t-211 84t-80 221zM69 293q0 -128 74.5 -206.5t196.5 -78.5t197 78.5t75 206.5t-75 206.5t-197 78.5t-196.5 -78.5t-74.5 -206.5zM199 295q0 82 38.5 126t111.5 44q53 0 98 -29l-5 -18h-5 q-36 27 -88 27q-63 0 -96.5 -38.5t-33.5 -111.5t32.5 -111.5t92.5 -38.5q55 0 99 32l4 -1l-2 -19q-52 -32 -102 -32q-70 0 -107 44t-37 126z" />
<glyph unicode="&#xaa;" horiz-adv-x="296" d="M40 420q0 50 56 63l112 24l2 59q0 59 -63 59q-42 0 -91 -40l-4 1l-4 15q51 43 101 43q39 0 60 -19.5t21 -54.5q0 -8 -3 -84.5t-3 -84.5q0 -35 23 -35q14 0 26 9l4 -2l-3 -16q-14 -9 -32 -9q-37 0 -38 48h-2q-41 -47 -85 -49q-37 0 -57 19t-20 54zM61 421q0 -26 15 -41 t43 -15q44 0 85 54l3 72l-104 -24q-42 -9 -42 -46z" />
<glyph unicode="&#xab;" horiz-adv-x="364" d="M30 217v11l155 168l12 -9v-6l-145 -158l145 -158v-6l-12 -9zM176 217v11l155 168l12 -9v-6l-145 -158l145 -158v-6l-12 -9z" />
<glyph unicode="&#xac;" horiz-adv-x="480" d="M35 263l2 17h373l6 -6v-203l-17 -2l-3 3v188h-358z" />
<glyph unicode="&#xad;" horiz-adv-x="311" d="M31 232v16l245 33l4 -4v-16l-245 -33z" />
<glyph unicode="&#xae;" horiz-adv-x="432" d="M40 526q0 80 48.5 128t128.5 48q79 0 127.5 -48t48.5 -128t-48 -128.5t-128 -48.5t-128.5 48.5t-48.5 128.5zM59 526q0 -71 43.5 -114.5t114.5 -43.5t114 43.5t43 114.5t-43 114t-114 43t-114.5 -43t-43.5 -114zM159 437v192h59q60 0 60 -55q0 -43 -41 -60q26 -41 53 -73 v-3q-2 -1 -6 -1.5t-8.5 -1.5t-6.5 -1l-3 2q-23 30 -51 74h-35v-13l1 -60h-22zM180 530l40 -2q36 12 36 44q0 37 -43 39l-32 -1z" />
<glyph unicode="&#xaf;" d="M49 590l2 17h287l3 -3l-2 -17h-287z" />
<glyph unicode="&#xb0;" horiz-adv-x="294" d="M25 522q0 50 35.5 85t86.5 35q50 0 85.5 -35t35.5 -85t-35.5 -84.5t-85.5 -34.5q-51 0 -86.5 34.5t-35.5 84.5zM45 522q0 -40 30.5 -69.5t71.5 -29.5t71 29.5t30 69.5t-30 70t-71 30t-71.5 -30t-30.5 -70z" />
<glyph unicode="&#xb1;" horiz-adv-x="480" d="M39 -62l2 17h397l3 -3l-2 -17h-397zM39 263l2 17h189v189l17 2l3 -3v-188h188l3 -3l-2 -17h-189v-189l-17 -2l-3 3v188h-188z" />
<glyph unicode="&#xb2;" horiz-adv-x="336" d="M44 332v15l107 131q47 58 66.5 89t19.5 57q0 25 -19 42t-52 17q-61 0 -107 -57h-3l-4 17q48 59 116 59q40 0 65 -21t25 -54q0 -29 -21 -63.5t-71 -95.5l-94 -116l2 -2h175l61 1l2 -4l-3 -17l-65 1h-169l-29 -1z" />
<glyph unicode="&#xb3;" horiz-adv-x="293" d="M35 662q45 41 95 41q40 0 65 -21t25 -55q0 -28 -19 -54t-51 -40v-2q89 -19 89 -93q0 -48 -39 -78.5t-101 -30.5q-31 0 -60 6l-2 16l2 2q32 -5 60 -5q54 0 87 24.5t33 65.5q0 77 -109 82h-33l-2 2l1 15h29q32 0 63 26t31 61q0 27 -19.5 43.5t-51.5 16.5q-42 0 -86 -39h-3z " />
<glyph unicode="&#xb4;" d="M115 532q69 58 146 137l5 -1l10 -10l-1 -5q-69 -69 -144 -135l-5 1z" />
<glyph unicode="&#xb5;" horiz-adv-x="499" d="M90 -185v634l20 4v-320q0 -56 26.5 -86.5t75.5 -30.5q82 0 163 92v341l20 4v-374q0 -62 36 -62q24 0 42 15l6 -3l-4 -18q-20 -14 -45 -14q-55 0 -55 82h-4q-78 -83 -162 -83q-71 0 -99 54v-235h-20z" />
<glyph unicode="&#xb6;" horiz-adv-x="447" d="M52 455q0 87 49.5 134.5t141.5 47.5h164l4 -4l-3 -16h-81v-495q0 -108 -124 -190l-10 11v6q114 75 114 169v499h-71q-79 -4 -121.5 -46t-42.5 -116q0 -76 45.5 -123.5t131.5 -62.5l-4 -20q-193 32 -193 206z" />
<glyph unicode="&#xb7;" horiz-adv-x="230" d="M95 238q0 20 20 20t20 -20t-20 -20t-20 20z" />
<glyph unicode="&#xb8;" d="M134 -145l6 18h4q21 -31 49 -31q40 0 40 33q0 17 -24 33l-44 28l25 75h20l-21 -66l31 -20q33 -21 33 -50q0 -24 -17.5 -38.5t-42.5 -14.5q-37 0 -59 33z" />
<glyph unicode="&#xb9;" horiz-adv-x="240" d="M16 654v16l119 35l3 -4v-370h-20v348l-98 -27z" />
<glyph unicode="&#xba;" horiz-adv-x="329" d="M39 492q0 71 34 111.5t94 40.5q58 0 90.5 -39t32.5 -107q0 -71 -34 -111.5t-94 -40.5q-58 0 -90.5 39t-32.5 107zM60 493q0 -61 27 -94.5t75 -33.5q50 0 78.5 34.5t28.5 97.5q0 60 -27.5 94t-75.5 34q-50 0 -78 -34.5t-28 -97.5z" />
<glyph unicode="&#xbb;" horiz-adv-x="355" d="M16 59v6l145 158l-145 158v6l12 9l155 -167v-11l-155 -168zM162 59v6l145 158l-145 158v6l12 9l155 -167v-11l-155 -168z" />
<glyph unicode="&#xbc;" horiz-adv-x="656" d="M16 591v16l119 35l3 -4v-370h-20v348l-98 -27zM30 -77l485 746l10 -5l3 -8l-485 -746l-9 4zM351 121v15l174 233h19v-232h69l3 -3l-3 -16l-50 1h-19l1 -117l-2 -2l-16 -2l-2 2v119h-140l-31 -1zM373 137h152v200h-3z" />
<glyph unicode="&#xbd;" horiz-adv-x="657" d="M16 591v16l119 35l3 -4v-370h-20v348l-98 -27zM30 -77l485 746l10 -5l3 -8l-485 -746l-9 4zM365 1v15l107 131q47 58 66.5 89t19.5 57q0 25 -19 42t-52 17q-61 0 -107 -57h-3l-4 17q48 59 116 59q40 0 65 -21t25 -54q0 -29 -21 -63.5t-71 -95.5l-94 -116l2 -2h175l61 1 l2 -4l-3 -17l-65 1h-169l-29 -1z" />
<glyph unicode="&#xbe;" horiz-adv-x="689" d="M35 599q45 41 95 41q40 0 65 -21t25 -55q0 -28 -19 -54t-51 -40v-2q89 -19 89 -93q0 -48 -39 -78.5t-101 -30.5q-31 0 -60 6l-2 16l2 2q32 -5 60 -5q54 0 87 24.5t33 65.5q0 77 -109 82h-33l-2 2l1 15h29q32 0 63 26t31 61q0 27 -19.5 43.5t-51.5 16.5q-42 0 -86 -39h-3z M63 -77l485 746l10 -5l3 -8l-485 -746l-9 4zM384 121v15l174 233h19v-232h69l3 -3l-3 -16l-50 1h-19l1 -117l-2 -2l-16 -2l-2 2v119h-140l-31 -1zM406 137h152v200h-3z" />
<glyph unicode="&#xbf;" horiz-adv-x="322" d="M13 -43q0 76 77 128l96 66l1 3l-5 108l17 1l3 -4l6 -110l-5 -9l-101 -69q-69 -44 -69 -112q0 -59 56 -94.5t159 -41.5l2 -3l-6 -14l-6 -3q-109 9 -167 49t-58 105zM170 439q0 20 20 20t20 -20t-20 -20t-20 20z" />
<glyph unicode="&#xc0;" horiz-adv-x="554" d="M19 0l254 637h20l233 -637h-23q-13 44 -43 124t-33 89h-302l-68 -170l-14 -43h-24zM133 233h287l-136 370h-4zM182 824l7 12l5 2q85 -50 176 -94l-7 -15l-5 -3q-107 55 -174 93z" />
<glyph unicode="&#xc1;" horiz-adv-x="554" d="M19 0l254 637h20l233 -637h-23q-13 44 -43 124t-33 89h-302l-68 -170l-14 -43h-24zM133 233h287l-136 370h-4zM215 742q91 44 176 94l5 -2l7 -12l-2 -5q-67 -38 -174 -93l-5 3z" />
<glyph unicode="&#xc2;" horiz-adv-x="554" d="M19 0l254 637h20l233 -637h-23q-13 44 -43 124t-33 89h-302l-68 -170l-14 -43h-24zM133 233h287l-136 370h-4zM170 752q47 33 98 76h16q66 -52 100 -76l-7 -14h-5q-46 32 -95 70q-49 -38 -95 -70h-5z" />
<glyph unicode="&#xc3;" horiz-adv-x="554" d="M19 0l254 637h20l233 -637h-23q-13 44 -43 124t-33 89h-302l-68 -170l-14 -43h-24zM133 233h287l-136 370h-4zM138 760v4l52 47l6 2q18 -2 80.5 -20t75.5 -18q3 0 6.5 2t8.5 6t9.5 8t12 11.5t14.5 13.5h4l9 -11v-4l-52 -47l-6 -2q-18 2 -80.5 20t-75.5 18q-3 0 -6.5 -2 t-8.5 -6t-9.5 -8t-12 -11.5t-14.5 -13.5h-4z" />
<glyph unicode="&#xc4;" horiz-adv-x="554" d="M19 0l254 637h20l233 -637h-23q-13 44 -43 124t-33 89h-302l-68 -170l-14 -43h-24zM133 233h287l-136 370h-4zM187 780q0 20 20 20t20 -20t-20 -20t-20 20zM327 780q0 20 20 20t20 -20t-20 -20t-20 20z" />
<glyph unicode="&#xc5;" horiz-adv-x="554" d="M19 0l254 637h20l233 -637h-23q-13 44 -43 124t-33 89h-302l-68 -170l-14 -43h-24zM133 233h287l-136 370h-4zM205 784q0 30 19.5 49.5t50.5 19.5q33 0 52 -21t19 -49q0 -31 -21.5 -50t-49.5 -19t-49 19t-21 51zM225 784q0 -23 14.5 -36.5t35.5 -13.5t36 13t15 36 q0 21 -13.5 35.5t-37.5 14.5q-23 0 -36.5 -13.5t-13.5 -35.5z" />
<glyph unicode="&#xc6;" horiz-adv-x="791" d="M-15 0l368 637h301l3 -4l-5 -16h-275l51 -304l236 39l3 -3l-3 -17l-233 -38l46 -274h287l2 -4l-4 -16h-304q-7 59 -25.5 164t-21.5 126l-261 -43l-117 -204l-21 -43h-27zM164 270l244 40l-50 292h-3z" />
<glyph unicode="&#xc7;" horiz-adv-x="523" d="M48 317q0 156 68.5 240t196.5 84q100 0 176 -59l-7 -17h-7q-70 56 -162 56q-119 0 -182 -79t-63 -226q0 -145 60 -223t173 -78q100 0 183 67l7 -2l-2 -18q-79 -61 -172 -67l-16 -50l31 -20q33 -21 33 -50q0 -24 -17.5 -38.5t-42.5 -14.5q-37 0 -59 33l6 18h4 q21 -31 49 -31q40 0 40 33q0 17 -24 33l-44 28l20 59q-121 2 -185 85t-64 237z" />
<glyph unicode="&#xc8;" horiz-adv-x="454" d="M110 0v637h308l3 -4l-4 -16h-287v-277h238l3 -4l-4 -16h-237v-300h292l3 -4l-4 -16h-311zM171 824l7 12l5 2q85 -50 176 -94l-7 -15l-5 -3q-107 55 -174 93z" />
<glyph unicode="&#xc9;" horiz-adv-x="454" d="M110 0v637h308l3 -4l-4 -16h-287v-277h238l3 -4l-4 -16h-237v-300h292l3 -4l-4 -16h-311zM204 742q91 44 176 94l5 -2l7 -12l-2 -5q-67 -38 -174 -93l-5 3z" />
<glyph unicode="&#xca;" horiz-adv-x="454" d="M110 0v637h308l3 -4l-4 -16h-287v-277h238l3 -4l-4 -16h-237v-300h292l3 -4l-4 -16h-311zM159 752q47 33 98 76h16q66 -52 100 -76l-7 -14h-5q-46 32 -95 70q-49 -38 -95 -70h-5z" />
<glyph unicode="&#xcb;" horiz-adv-x="454" d="M110 0v637h308l3 -4l-4 -16h-287v-277h238l3 -4l-4 -16h-237v-300h292l3 -4l-4 -16h-311zM176 780q0 20 20 20t20 -20t-20 -20t-20 20zM316 780q0 20 20 20t20 -20t-20 -20t-20 20z" />
<glyph unicode="&#xcc;" horiz-adv-x="240" d="M25 824l7 12l5 2q85 -50 176 -94l-7 -15l-5 -3q-107 55 -174 93zM110 0v637h20v-637h-20z" />
<glyph unicode="&#xcd;" horiz-adv-x="240" d="M58 742q91 44 176 94l5 -2l7 -12l-2 -5q-67 -38 -174 -93l-5 3zM110 0v637h20v-637h-20z" />
<glyph unicode="&#xce;" horiz-adv-x="240" d="M13 752q47 33 98 76h16q66 -52 100 -76l-7 -14h-5q-46 32 -95 70q-49 -38 -95 -70h-5zM110 0v637h20v-637h-20z" />
<glyph unicode="&#xd0;" horiz-adv-x="654" d="M8 322l1 17h118v298l201 5q134 0 206 -78.5t72 -224.5q0 -166 -74.5 -255t-213.5 -89q-81 0 -191 5v319h-117zM147 20q108 -5 171 -5q129 0 198.5 84t69.5 240q0 137 -67 210t-191 73q-78 0 -181 -5v-278h172l2 -3l-1 -17h-173v-299z" />
<glyph unicode="&#xd1;" horiz-adv-x="670" d="M110 0v190l1 447h19l404 -595h4l2 594l20 2l-1 -462l-1 -176h-19l-404 595h-4l-1 -396v-199h-20zM192 760v4l52 47l6 2q18 -2 80.5 -20t75.5 -18q3 0 6.5 2t8.5 6t9.5 8t12 11.5t14.5 13.5h4l9 -11v-4l-52 -47l-6 -2q-18 2 -80.5 20t-75.5 18q-3 0 -6.5 -2t-8.5 -6 t-9.5 -8t-12 -11.5t-14.5 -13.5h-4z" />
<glyph unicode="&#xd2;" horiz-adv-x="627" d="M48 317q0 157 70 241t200 84q126 0 193.5 -81t67.5 -232q0 -161 -70 -247.5t-201 -86.5q-125 0 -192.5 83.5t-67.5 238.5zM68 317q0 -145 62 -223.5t178 -78.5q121 0 186 81.5t65 232.5q0 141 -62.5 217t-178.5 76q-121 0 -185.5 -79t-64.5 -226zM219 824l7 12l5 2 q85 -50 176 -94l-7 -15l-5 -3q-107 55 -174 93z" />
<glyph unicode="&#xd3;" horiz-adv-x="627" d="M48 317q0 157 70 241t200 84q126 0 193.5 -81t67.5 -232q0 -161 -70 -247.5t-201 -86.5q-125 0 -192.5 83.5t-67.5 238.5zM68 317q0 -145 62 -223.5t178 -78.5q121 0 186 81.5t65 232.5q0 141 -62.5 217t-178.5 76q-121 0 -185.5 -79t-64.5 -226zM252 742q91 44 176 94 l5 -2l7 -12l-2 -5q-67 -38 -174 -93l-5 3z" />
<glyph unicode="&#xd4;" horiz-adv-x="627" d="M48 317q0 157 70 241t200 84q126 0 193.5 -81t67.5 -232q0 -161 -70 -247.5t-201 -86.5q-125 0 -192.5 83.5t-67.5 238.5zM68 317q0 -145 62 -223.5t178 -78.5q121 0 186 81.5t65 232.5q0 141 -62.5 217t-178.5 76q-121 0 -185.5 -79t-64.5 -226zM207 752q47 33 98 76h16 q66 -52 100 -76l-7 -14h-5q-46 32 -95 70q-49 -38 -95 -70h-5z" />
<glyph unicode="&#xd5;" horiz-adv-x="627" d="M48 317q0 157 70 241t200 84q126 0 193.5 -81t67.5 -232q0 -161 -70 -247.5t-201 -86.5q-125 0 -192.5 83.5t-67.5 238.5zM68 317q0 -145 62 -223.5t178 -78.5q121 0 186 81.5t65 232.5q0 141 -62.5 217t-178.5 76q-121 0 -185.5 -79t-64.5 -226zM175 760v4l52 47l6 2 q18 -2 80.5 -20t75.5 -18q3 0 6.5 2t8.5 6t9.5 8t12 11.5t14.5 13.5h4l9 -11v-4l-52 -47l-6 -2q-18 2 -80.5 20t-75.5 18q-3 0 -6.5 -2t-8.5 -6t-9.5 -8t-12 -11.5t-14.5 -13.5h-4z" />
<glyph unicode="&#xd7;" horiz-adv-x="480" d="M93 133v4l133 133l-133 133v4l13 11l134 -134l134 134l13 -11v-4l-133 -133l133 -133v-4l-13 -11l-134 134l-134 -134z" />
<glyph unicode="&#xd8;" horiz-adv-x="627" d="M48 317q0 157 70 241t200 84q66 0 117 -23l42 90l16 -3l2 -5l-42 -91q126 -72 126 -281q0 -161 -70 -247.5t-201 -86.5q-72 0 -126 28l-51 -110l-16 3l-2 4l52 113q-117 77 -117 284zM68 317q0 -193 106 -265l253 548q-45 22 -109 22q-121 0 -185.5 -79t-64.5 -226z M191 42q49 -27 117 -27q121 0 186 81.5t65 232.5q0 195 -115 262z" />
<glyph unicode="&#xd9;" horiz-adv-x="612" d="M86 229v408h20v-408q-1 -103 51 -158t149 -55t148.5 55t51.5 158v408h20v-408q3 -110 -55 -171.5t-165 -61.5t-163.5 60t-56.5 173zM215 824l7 12l5 2q85 -50 176 -94l-7 -15l-5 -3q-107 55 -174 93z" />
<glyph unicode="&#xda;" horiz-adv-x="612" d="M86 229v408h20v-408q-1 -103 51 -158t149 -55t148.5 55t51.5 158v408h20v-408q3 -110 -55 -171.5t-165 -61.5t-163.5 60t-56.5 173zM248 742q91 44 176 94l5 -2l7 -12l-2 -5q-67 -38 -174 -93l-5 3z" />
<glyph unicode="&#xdb;" horiz-adv-x="612" d="M86 229v408h20v-408q-1 -103 51 -158t149 -55t148.5 55t51.5 158v408h20v-408q3 -110 -55 -171.5t-165 -61.5t-163.5 60t-56.5 173zM203 752q47 33 98 76h16q66 -52 100 -76l-7 -14h-5q-46 32 -95 70q-49 -38 -95 -70h-5z" />
<glyph unicode="&#xdc;" horiz-adv-x="612" d="M86 229v408h20v-408q-1 -103 51 -158t149 -55t148.5 55t51.5 158v408h20v-408q3 -110 -55 -171.5t-165 -61.5t-163.5 60t-56.5 173zM220 780q0 20 20 20t20 -20t-20 -20t-20 20zM360 780q0 20 20 20t20 -20t-20 -20t-20 20z" />
<glyph unicode="&#xde;" horiz-adv-x="487" d="M110 0v637h20v-123l121 2q87 0 134 -46.5t47 -132.5q0 -102 -55 -156.5t-158 -54.5h-89v-126h-20zM130 146h119q79 10 121 59t42 132q0 74 -40 115t-114 44l-128 -1v-349z" />
<glyph unicode="&#xdf;" horiz-adv-x="517" d="M46 436l3 16h68v68q0 88 42.5 136t120.5 48q63 0 99.5 -30t36.5 -84q0 -33 -13.5 -59.5t-33 -44.5t-38.5 -34.5t-32.5 -38.5t-13.5 -48q0 -33 22 -59t53 -44l62 -36t53 -45.5t22 -62.5q0 -51 -40 -87t-102 -36q-66 0 -115 35l3 17l5 3q47 -35 106 -35q56 0 89.5 30 t33.5 71q0 31 -22 55.5t-53 42.5t-62 36.5t-53 47.5t-22 66q0 29 13.5 53.5t32.5 41.5t38.5 34.5t33 41.5t13.5 53q0 46 -30.5 71t-83.5 25q-69 0 -107 -42.5t-38 -121.5v-520h-20v432h-67z" />
<glyph unicode="&#xe0;" horiz-adv-x="442" d="M56 107q0 36 21.5 61t60.5 34l172 40l3 98q0 47 -25.5 72t-73.5 25q-63 0 -137 -65l-6 2l-5 15q77 68 149 68q57 0 87.5 -29.5t30.5 -83.5q0 -12 -5 -135t-5 -136q0 -56 36 -56q24 0 42 15l6 -3l-4 -18q-20 -14 -45 -14q-54 0 -55 76h-3q-64 -75 -131 -78 q-54 0 -83.5 29.5t-29.5 82.5zM76 107q0 -43 24 -67.5t68 -24.5q69 0 136 91l5 115l-166 -39q-67 -16 -67 -75zM131 658l10 10l5 1q77 -79 146 -137l-11 -13l-5 -1q-75 66 -144 135z" />
<glyph unicode="&#xe1;" horiz-adv-x="442" d="M56 107q0 36 21.5 61t60.5 34l172 40l3 98q0 47 -25.5 72t-73.5 25q-63 0 -137 -65l-6 2l-5 15q77 68 149 68q57 0 87.5 -29.5t30.5 -83.5q0 -12 -5 -135t-5 -136q0 -56 36 -56q24 0 42 15l6 -3l-4 -18q-20 -14 -45 -14q-54 0 -55 76h-3q-64 -75 -131 -78 q-54 0 -83.5 29.5t-29.5 82.5zM76 107q0 -43 24 -67.5t68 -24.5q69 0 136 91l5 115l-166 -39q-67 -16 -67 -75zM162 532q69 58 146 137l5 -1l10 -10l-1 -5q-69 -69 -144 -135l-5 1z" />
<glyph unicode="&#xe2;" horiz-adv-x="442" d="M56 107q0 36 21.5 61t60.5 34l172 40l3 98q0 47 -25.5 72t-73.5 25q-63 0 -137 -65l-6 2l-5 15q77 68 149 68q57 0 87.5 -29.5t30.5 -83.5q0 -12 -5 -135t-5 -136q0 -56 36 -56q24 0 42 15l6 -3l-4 -18q-20 -14 -45 -14q-54 0 -55 76h-3q-64 -75 -131 -78 q-54 0 -83.5 29.5t-29.5 82.5zM76 107q0 -43 24 -67.5t68 -24.5q69 0 136 91l5 115l-166 -39q-67 -16 -67 -75zM101 532q38 43 101 126h18q63 -83 101 -126l-9 -12h-5q-48 53 -96 117q-48 -64 -96 -117h-5z" />
<glyph unicode="&#xe3;" horiz-adv-x="442" d="M56 107q0 36 21.5 61t60.5 34l172 40l3 98q0 47 -25.5 72t-73.5 25q-63 0 -137 -65l-6 2l-5 15q77 68 149 68q57 0 87.5 -29.5t30.5 -83.5q0 -12 -5 -135t-5 -136q0 -56 36 -56q24 0 42 15l6 -3l-4 -18q-20 -14 -45 -14q-54 0 -55 76h-3q-64 -75 -131 -78 q-54 0 -83.5 29.5t-29.5 82.5zM72 575v4l52 47l6 2q18 -2 80.5 -20t75.5 -18q3 0 6.5 2t8.5 6t9.5 8t12 11.5t14.5 13.5h4l9 -11v-4l-52 -47l-6 -2q-18 2 -80.5 20t-75.5 18q-3 0 -6.5 -2t-8.5 -6t-9.5 -8t-12 -11.5t-14.5 -13.5h-4zM76 107q0 -43 24 -67.5t68 -24.5 q69 0 136 91l5 115l-166 -39q-67 -16 -67 -75z" />
<glyph unicode="&#xe4;" horiz-adv-x="442" d="M56 107q0 36 21.5 61t60.5 34l172 40l3 98q0 47 -25.5 72t-73.5 25q-63 0 -137 -65l-6 2l-5 15q77 68 149 68q57 0 87.5 -29.5t30.5 -83.5q0 -12 -5 -135t-5 -136q0 -56 36 -56q24 0 42 15l6 -3l-4 -18q-20 -14 -45 -14q-54 0 -55 76h-3q-64 -75 -131 -78 q-54 0 -83.5 29.5t-29.5 82.5zM76 107q0 -43 24 -67.5t68 -24.5q69 0 136 91l5 115l-166 -39q-67 -16 -67 -75zM121 595q0 20 20 20t20 -20t-20 -20t-20 20zM261 595q0 20 20 20t20 -20t-20 -20t-20 20z" />
<glyph unicode="&#xe5;" horiz-adv-x="442" d="M56 107q0 36 21.5 61t60.5 34l172 40l3 98q0 47 -25.5 72t-73.5 25q-63 0 -137 -65l-6 2l-5 15q77 68 149 68q57 0 87.5 -29.5t30.5 -83.5q0 -12 -5 -135t-5 -136q0 -56 36 -56q24 0 42 15l6 -3l-4 -18q-20 -14 -45 -14q-54 0 -55 76h-3q-64 -75 -131 -78 q-54 0 -83.5 29.5t-29.5 82.5zM76 107q0 -43 24 -67.5t68 -24.5q69 0 136 91l5 115l-166 -39q-67 -16 -67 -75zM139 599q0 30 19.5 49.5t50.5 19.5q33 0 52 -21t19 -49q0 -31 -21.5 -50t-49.5 -19t-49 19.5t-21 50.5zM159 599q0 -23 14.5 -36.5t35.5 -13.5t36 13t15 36 q0 21 -13.5 35.5t-37.5 14.5q-23 0 -36.5 -13.5t-13.5 -35.5z" />
<glyph unicode="&#xe6;" horiz-adv-x="662" d="M51 108q0 75 82 94l171 39v99q0 46 -24.5 71.5t-67.5 25.5q-65 0 -140 -65l-6 2l-5 15q78 68 153 68q52 0 80 -28.5t29 -80.5q55 109 155 109q65 0 103 -41t43 -115l-5 -7l-296 -69q2 -100 41.5 -155t112.5 -55q74 0 127 46l6 -2l-3 -20q-61 -44 -132 -44 q-111 0 -153 111q-47 -59 -82.5 -84.5t-75.5 -26.5q-53 0 -83 31t-30 82zM71 108q0 -41 24.5 -67t67.5 -26q37 0 72 26t80 85q-11 53 -11 94l-166 -38q-67 -16 -67 -74zM323 246l279 65q-5 58 -38 92t-84 34q-66 0 -111.5 -51t-45.5 -120v-20z" />
<glyph unicode="&#xe7;" horiz-adv-x="386" d="M56 222q0 107 48.5 171t128.5 64q74 0 129 -42l-7 -17h-6q-52 39 -116 39q-71 0 -114 -58.5t-43 -156.5q0 -94 42.5 -150.5t114.5 -56.5q71 0 127 43l6 -2l-2 -18q-53 -38 -117 -42l-16 -51l31 -20q33 -21 33 -50q0 -24 -17.5 -38.5t-42.5 -14.5q-37 0 -59 33l6 18h4 q21 -31 49 -31q40 0 40 33q0 17 -24 33l-44 28l20 59q-78 2 -124.5 64t-46.5 163z" />
<glyph unicode="&#xe8;" horiz-adv-x="433" d="M56 221q0 108 50.5 172t135.5 64q68 0 107.5 -43t39.5 -118q0 -11 -2 -27l-6 -7l-304 -10q-1 -10 -1 -31q0 -94 43 -150t119 -56q74 0 123 46l6 -2l-3 -20q-57 -44 -128 -44q-83 0 -131.5 61.5t-48.5 164.5zM80 272l288 10l1 14q0 66 -34.5 103.5t-93.5 37.5 q-64 0 -107 -44t-54 -121zM150 658l10 10l5 1q77 -79 146 -137l-11 -13l-5 -1q-75 66 -144 135z" />
<glyph unicode="&#xe9;" horiz-adv-x="433" d="M56 221q0 108 50.5 172t135.5 64q68 0 107.5 -43t39.5 -118q0 -11 -2 -27l-6 -7l-304 -10q-1 -10 -1 -31q0 -94 43 -150t119 -56q74 0 123 46l6 -2l-3 -20q-57 -44 -128 -44q-83 0 -131.5 61.5t-48.5 164.5zM80 272l288 10l1 14q0 66 -34.5 103.5t-93.5 37.5 q-64 0 -107 -44t-54 -121zM181 532q69 58 146 137l5 -1l10 -10l-1 -5q-69 -69 -144 -135l-5 1z" />
<glyph unicode="&#xea;" horiz-adv-x="433" d="M56 221q0 108 50.5 172t135.5 64q68 0 107.5 -43t39.5 -118q0 -11 -2 -27l-6 -7l-304 -10q-1 -10 -1 -31q0 -94 43 -150t119 -56q74 0 123 46l6 -2l-3 -20q-57 -44 -128 -44q-83 0 -131.5 61.5t-48.5 164.5zM80 272l288 10l1 14q0 66 -34.5 103.5t-93.5 37.5 q-64 0 -107 -44t-54 -121zM120 532q38 43 101 126h18q63 -83 101 -126l-9 -12h-5q-48 53 -96 117q-48 -64 -96 -117h-5z" />
<glyph unicode="&#xeb;" horiz-adv-x="433" d="M56 221q0 108 50.5 172t135.5 64q68 0 107.5 -43t39.5 -118q0 -11 -2 -27l-6 -7l-304 -10q-1 -10 -1 -31q0 -94 43 -150t119 -56q74 0 123 46l6 -2l-3 -20q-57 -44 -128 -44q-83 0 -131.5 61.5t-48.5 164.5zM80 272l288 10l1 14q0 66 -34.5 103.5t-93.5 37.5 q-64 0 -107 -44t-54 -121zM140 595q0 20 20 20t20 -20t-20 -20t-20 20zM280 595q0 20 20 20t20 -20t-20 -20t-20 20z" />
<glyph unicode="&#xec;" horiz-adv-x="222" d="M30 658l10 10l5 1q77 -79 146 -137l-11 -13l-5 -1q-75 66 -144 135zM101 0v449l20 4v-453h-20z" />
<glyph unicode="&#xed;" horiz-adv-x="222" d="M62 532q69 58 146 137l5 -1l10 -10l-1 -5q-69 -69 -144 -135l-5 1zM101 0v449l20 4v-453h-20z" />
<glyph unicode="&#xee;" horiz-adv-x="222" d="M1 532q38 43 101 126h18q63 -83 101 -126l-9 -12h-5q-48 53 -96 117q-48 -64 -96 -117h-5zM101 0v449l20 4v-453h-20z" />
<glyph unicode="&#xf0;" horiz-adv-x="489" d="M56 224q0 108 52 170.5t143 62.5q72 0 127 -44q-36 94 -112 165l-129 -55l-4 3l-5 16l120 51q-67 58 -160 94v5l9 10h4q100 -39 169 -100l123 53l4 -3l5 -16l-115 -49q142 -139 142 -344q0 -117 -48 -182.5t-137 -65.5q-87 0 -137.5 61t-50.5 168zM76 224 q0 -98 45.5 -153.5t122.5 -55.5q80 0 122.5 60t42.5 168q0 74 -19 135q-57 59 -139 59t-128.5 -57t-46.5 -156z" />
<glyph unicode="&#xf1;" horiz-adv-x="502" d="M101 0v449l20 4v-79h4q77 83 156 83q63 0 97 -35.5t34 -100.5v-321h-22l2 320q0 55 -29 86t-82 31q-80 0 -160 -96v-341h-20zM124 575v4l52 47l6 2q18 -2 80.5 -20t75.5 -18q3 0 6.5 2t8.5 6t9.5 8t12 11.5t14.5 13.5h4l9 -11v-4l-52 -47l-6 -2q-18 2 -80.5 20t-75.5 18 q-3 0 -6.5 -2t-8.5 -6t-9.5 -8t-12 -11.5t-14.5 -13.5h-4z" />
<glyph unicode="&#xf2;" horiz-adv-x="487" d="M56 222q0 109 50.5 172t139.5 63q85 0 134 -60.5t49 -166.5q0 -109 -50.5 -172t-139.5 -63q-85 0 -134 60.5t-49 166.5zM76 222q0 -97 43.5 -152t119.5 -55q79 0 124.5 57t45.5 158q0 97 -43.5 152t-119.5 55q-79 0 -124.5 -57t-45.5 -158zM163 658l10 10l5 1 q77 -79 146 -137l-11 -13l-5 -1q-75 66 -144 135z" />
<glyph unicode="&#xf3;" horiz-adv-x="487" d="M56 222q0 109 50.5 172t139.5 63q85 0 134 -60.5t49 -166.5q0 -109 -50.5 -172t-139.5 -63q-85 0 -134 60.5t-49 166.5zM76 222q0 -97 43.5 -152t119.5 -55q79 0 124.5 57t45.5 158q0 97 -43.5 152t-119.5 55q-79 0 -124.5 -57t-45.5 -158zM194 532q69 58 146 137l5 -1 l10 -10l-1 -5q-69 -69 -144 -135l-5 1z" />
<glyph unicode="&#xf4;" horiz-adv-x="487" d="M56 222q0 109 50.5 172t139.5 63q85 0 134 -60.5t49 -166.5q0 -109 -50.5 -172t-139.5 -63q-85 0 -134 60.5t-49 166.5zM76 222q0 -97 43.5 -152t119.5 -55q79 0 124.5 57t45.5 158q0 97 -43.5 152t-119.5 55q-79 0 -124.5 -57t-45.5 -158zM133 532q38 43 101 126h18 q63 -83 101 -126l-9 -12h-5q-48 53 -96 117q-48 -64 -96 -117h-5z" />
<glyph unicode="&#xf5;" horiz-adv-x="487" d="M56 222q0 109 50.5 172t139.5 63q85 0 134 -60.5t49 -166.5q0 -109 -50.5 -172t-139.5 -63q-85 0 -134 60.5t-49 166.5zM76 222q0 -97 43.5 -152t119.5 -55q79 0 124.5 57t45.5 158q0 97 -43.5 152t-119.5 55q-79 0 -124.5 -57t-45.5 -158zM104 575v4l52 47l6 2 q18 -2 80.5 -20t75.5 -18q3 0 6.5 2t8.5 6t9.5 8t12 11.5t14.5 13.5h4l9 -11v-4l-52 -47l-6 -2q-18 2 -80.5 20t-75.5 18q-3 0 -6.5 -2t-8.5 -6t-9.5 -8t-12 -11.5t-14.5 -13.5h-4z" />
<glyph unicode="&#xf7;" horiz-adv-x="480" d="M54 263l2 17h397l3 -3l-2 -17h-397zM244 88q0 20 20 20t20 -20t-20 -20t-20 20zM244 451q0 20 20 20t20 -20t-20 -20t-20 20z" />
<glyph unicode="&#xf8;" horiz-adv-x="487" d="M56 222q0 109 50.5 172t139.5 63q46 0 82 -18l40 91l15 -2l2 -5l-41 -93q85 -57 85 -200q0 -109 -50.5 -172t-139.5 -63q-44 0 -80 17l-53 -119l-16 3l-2 4l54 122q-86 55 -86 200zM76 222q0 -129 75 -181l168 379q-32 17 -73 17q-79 0 -124.5 -57t-45.5 -158zM167 31 q34 -16 72 -16q79 0 124.5 57t45.5 158q0 129 -74 181z" />
<glyph unicode="&#xf9;" horiz-adv-x="504" d="M90 132v317l20 4v-320q0 -56 26 -86.5t75 -30.5q81 0 161 92v341l20 4v-374q0 -62 36 -62q23 0 41 15l6 -3l-4 -18q-20 -14 -45 -14q-54 0 -54 82h-4q-77 -83 -160 -83q-57 0 -87.5 35.5t-30.5 100.5zM174 658l10 10l5 1q77 -79 146 -137l-11 -13l-5 -1q-75 66 -144 135z " />
<glyph unicode="&#xfa;" horiz-adv-x="504" d="M90 132v317l20 4v-320q0 -56 26 -86.5t75 -30.5q81 0 161 92v341l20 4v-374q0 -62 36 -62q23 0 41 15l6 -3l-4 -18q-20 -14 -45 -14q-54 0 -54 82h-4q-77 -83 -160 -83q-57 0 -87.5 35.5t-30.5 100.5zM205 532q69 58 146 137l5 -1l10 -10l-1 -5q-69 -69 -144 -135l-5 1z " />
<glyph unicode="&#xfb;" horiz-adv-x="504" d="M90 132v317l20 4v-320q0 -56 26 -86.5t75 -30.5q81 0 161 92v341l20 4v-374q0 -62 36 -62q23 0 41 15l6 -3l-4 -18q-20 -14 -45 -14q-54 0 -54 82h-4q-77 -83 -160 -83q-57 0 -87.5 35.5t-30.5 100.5zM144 532q38 43 101 126h18q63 -83 101 -126l-9 -12h-5 q-48 53 -96 117q-48 -64 -96 -117h-5z" />
<glyph unicode="&#xfc;" horiz-adv-x="504" d="M90 132v317l20 4v-320q0 -56 26 -86.5t75 -30.5q81 0 161 92v341l20 4v-374q0 -62 36 -62q23 0 41 15l6 -3l-4 -18q-20 -14 -45 -14q-54 0 -54 82h-4q-77 -83 -160 -83q-57 0 -87.5 35.5t-30.5 100.5zM164 595q0 20 20 20t20 -20t-20 -20t-20 20zM304 595q0 20 20 20 t20 -20t-20 -20t-20 20z" />
<glyph unicode="&#xfe;" horiz-adv-x="501" d="M105 -185v883l20 4v-317h3q62 71 148 71q80 0 124.5 -57.5t44.5 -161.5q0 -116 -55.5 -179.5t-156.5 -63.5q-51 0 -108 10v-189h-20zM125 26q61 -12 108 -12q92 0 142 58.5t50 164.5q0 95 -39 147t-110 52q-87 0 -151 -83v-327z" />
<glyph unicode="&#xff;" horiz-adv-x="405" d="M-17 -172q87 18 128 51.5t74 120.5l-166 450l21 4l14 -45l140 -373h5l146 373l15 43h24l-177 -452q-38 -98 -81 -135.5t-130 -54.5h-5q-4 4 -8 12v6zM115 595q0 20 20 20t20 -20t-20 -20t-20 20zM255 595q0 20 20 20t20 -20t-20 -20t-20 20z" />
<glyph unicode="&#x100;" horiz-adv-x="554" d="M19 0l254 637h20l233 -637h-23q-13 44 -43 124t-33 89h-302l-68 -170l-14 -43h-24zM131 775l2 17h287l3 -3l-2 -17h-287zM133 233h287l-136 370h-4z" />
<glyph unicode="&#x101;" horiz-adv-x="442" d="M56 107q0 36 21.5 61t60.5 34l172 40l3 98q0 47 -25.5 72t-73.5 25q-63 0 -137 -65l-6 2l-5 15q77 68 149 68q57 0 87.5 -29.5t30.5 -83.5q0 -12 -5 -135t-5 -136q0 -56 36 -56q24 0 42 15l6 -3l-4 -18q-20 -14 -45 -14q-54 0 -55 76h-3q-64 -75 -131 -78 q-54 0 -83.5 29.5t-29.5 82.5zM65 590l2 17h287l3 -3l-2 -17h-287zM76 107q0 -43 24 -67.5t68 -24.5q69 0 136 91l5 115l-166 -39q-67 -16 -67 -75z" />
<glyph unicode="&#x102;" horiz-adv-x="554" d="M19 0l254 637h20l233 -637h-23q-13 44 -43 124t-33 89h-302l-68 -170l-14 -43h-24zM133 233h287l-136 370h-4zM176 802l13 11h5q15 -65 82 -65t84 65h5l13 -11q-23 -74 -102 -74q-78 0 -100 74z" />
<glyph unicode="&#x103;" horiz-adv-x="442" d="M56 107q0 36 21.5 61t60.5 34l172 40l3 98q0 47 -25.5 72t-73.5 25q-63 0 -137 -65l-6 2l-5 15q77 68 149 68q57 0 87.5 -29.5t30.5 -83.5q0 -12 -5 -135t-5 -136q0 -56 36 -56q24 0 42 15l6 -3l-4 -18q-20 -14 -45 -14q-54 0 -55 76h-3q-64 -75 -131 -78 q-54 0 -83.5 29.5t-29.5 82.5zM76 107q0 -43 24 -67.5t68 -24.5q69 0 136 91l5 115l-166 -39q-67 -16 -67 -75zM110 627l13 13h5q13 -98 83 -98t83 98h5l13 -13q-19 -105 -101 -105t-101 105z" />
<glyph unicode="&#x104;" horiz-adv-x="554" d="M19 0l254 637h20l233 -637h-2q-63 -99 -63 -132q0 -20 12 -32.5t33 -12.5q42 0 81 53h2l11 -16q-44 -57 -94 -57q-29 0 -47 18t-18 45q0 35 63 134h-1q-13 44 -43 124t-33 89h-302l-68 -170l-14 -43h-24zM133 233h287l-136 370h-4z" />
<glyph unicode="&#x105;" horiz-adv-x="442" d="M56 107q0 36 21.5 61t60.5 34l172 40l3 98q0 47 -25.5 72t-73.5 25q-63 0 -137 -65l-6 2l-5 15q77 68 149 68q57 0 87.5 -29.5t30.5 -83.5q0 -12 -5 -135t-5 -136q0 -56 36 -56q24 0 42 15l6 -3l-4 -18q-62 -69 -82.5 -98.5t-20.5 -49.5t11.5 -30t28.5 -10q35 0 66 53h2 l11 -16q-36 -57 -80 -57q-24 0 -41.5 15.5t-17.5 42.5q0 22 18 50t71 87l-11 -1q-54 0 -55 76h-3q-64 -75 -131 -78q-54 0 -83.5 29.5t-29.5 82.5zM76 107q0 -43 24 -67.5t68 -24.5q69 0 136 91l5 115l-166 -39q-67 -16 -67 -75z" />
<glyph unicode="&#x106;" horiz-adv-x="523" d="M48 317q0 156 68.5 240t196.5 84q100 0 176 -59l-7 -17h-7q-70 56 -162 56q-119 0 -182 -79t-63 -226q0 -145 60 -223t173 -78q100 0 183 67l7 -2l-2 -18q-87 -67 -187 -67q-123 0 -188.5 83.5t-65.5 238.5zM251 742q91 44 176 94l5 -2l7 -12l-2 -5q-67 -38 -174 -93 l-5 3z" />
<glyph unicode="&#x107;" horiz-adv-x="386" d="M56 222q0 107 48.5 171t128.5 64q74 0 129 -42l-7 -17h-6q-52 39 -116 39q-71 0 -114 -58.5t-43 -156.5q0 -94 42.5 -150.5t114.5 -56.5q71 0 127 43l6 -2l-2 -18q-58 -43 -132 -43q-80 0 -128 62t-48 165zM184 532q69 58 146 137l5 -1l10 -10l-1 -5q-69 -69 -144 -135 l-5 1z" />
<glyph unicode="&#x108;" horiz-adv-x="523" d="M48 317q0 156 68.5 240t196.5 84q100 0 176 -59l-7 -17h-7q-70 56 -162 56q-119 0 -182 -79t-63 -226q0 -145 60 -223t173 -78q100 0 183 67l7 -2l-2 -18q-87 -67 -187 -67q-123 0 -188.5 83.5t-65.5 238.5zM206 752q47 33 98 76h16q66 -52 100 -76l-7 -14h-5 q-46 32 -95 70q-49 -38 -95 -70h-5z" />
<glyph unicode="&#x109;" horiz-adv-x="386" d="M56 222q0 107 48.5 171t128.5 64q74 0 129 -42l-7 -17h-6q-52 39 -116 39q-71 0 -114 -58.5t-43 -156.5q0 -94 42.5 -150.5t114.5 -56.5q71 0 127 43l6 -2l-2 -18q-58 -43 -132 -43q-80 0 -128 62t-48 165zM123 532q38 43 101 126h18q63 -83 101 -126l-9 -12h-5 q-48 53 -96 117q-48 -64 -96 -117h-5z" />
<glyph unicode="&#x10a;" horiz-adv-x="523" d="M48 317q0 156 68.5 240t196.5 84q100 0 176 -59l-7 -17h-7q-70 56 -162 56q-119 0 -182 -79t-63 -226q0 -145 60 -223t173 -78q100 0 183 67l7 -2l-2 -18q-87 -67 -187 -67q-123 0 -188.5 83.5t-65.5 238.5zM293 796q0 20 20 20t20 -20t-20 -20t-20 20z" />
<glyph unicode="&#x10b;" horiz-adv-x="386" d="M56 222q0 107 48.5 171t128.5 64q74 0 129 -42l-7 -17h-6q-52 39 -116 39q-71 0 -114 -58.5t-43 -156.5q0 -94 42.5 -150.5t114.5 -56.5q71 0 127 43l6 -2l-2 -18q-58 -43 -132 -43q-80 0 -128 62t-48 165zM213 611q0 20 20 20t20 -20t-20 -20t-20 20z" />
<glyph unicode="&#x10c;" horiz-adv-x="523" d="M48 317q0 156 68.5 240t196.5 84q100 0 176 -59l-7 -17h-7q-70 56 -162 56q-119 0 -182 -79t-63 -226q0 -145 60 -223t173 -78q100 0 183 67l7 -2l-2 -18q-87 -67 -187 -67q-123 0 -188.5 83.5t-65.5 238.5zM206 805l7 14h5q46 -32 95 -70q49 38 95 70h5l7 -14 q-47 -33 -98 -76h-16q-66 52 -100 76z" />
<glyph unicode="&#x10d;" horiz-adv-x="386" d="M56 222q0 107 48.5 171t128.5 64q74 0 129 -42l-7 -17h-6q-52 39 -116 39q-71 0 -114 -58.5t-43 -156.5q0 -94 42.5 -150.5t114.5 -56.5q71 0 127 43l6 -2l-2 -18q-58 -43 -132 -43q-80 0 -128 62t-48 165zM123 646l9 12h5q48 -53 96 -117q48 64 96 117h5l9 -12 q-38 -43 -101 -126h-18q-63 83 -101 126z" />
<glyph unicode="&#x10e;" horiz-adv-x="637" d="M110 0v637l201 5q134 0 206 -78.5t72 -224.5q0 -166 -74.5 -255t-213.5 -89q-81 0 -191 5zM130 20q108 -5 171 -5q129 0 198.5 84t69.5 240q0 137 -67 210t-191 73q-79 0 -181 -5v-597zM201 805l7 14h5q46 -32 95 -70q49 38 95 70h5l7 -14q-47 -33 -98 -76h-16 q-66 52 -100 76z" />
<glyph unicode="&#x10f;" horiz-adv-x="482" d="M56 217q0 115 55.5 177.5t156.5 62.5q51 0 108 -17v258l20 4v-627q0 -58 35 -58q23 0 41 15l6 -3l-4 -18q-20 -14 -44 -14q-53 0 -54 72h-3q-63 -74 -144 -74q-78 0 -125.5 59t-47.5 163zM76 217q0 -94 42.5 -148t111.5 -54q84 0 146 86v317q-55 19 -108 19 q-92 0 -142 -57.5t-50 -162.5zM472 509l12 144l17 2l3 -4l-12 -144l-17 -2z" />
<glyph unicode="&#x110;" horiz-adv-x="637" d="M110 0v637l201 5q134 0 206 -78.5t72 -224.5q0 -166 -74.5 -255t-213.5 -89q-81 0 -191 5zM130 20q108 -5 171 -5q129 0 198.5 84t69.5 240q0 137 -67 210t-191 73q-79 0 -181 -5v-597zM162 775l2 17h287l3 -3l-2 -17h-287z" />
<glyph unicode="&#x111;" horiz-adv-x="508" d="M56 217q0 115 55.5 177.5t156.5 62.5q51 0 108 -17v121h-134l-3 3l2 17h135v117l20 4v-121h82l3 -3l-2 -17h-83v-486q0 -58 35 -58q23 0 41 15l6 -3l-4 -18q-20 -14 -44 -14q-53 0 -54 72h-3q-63 -74 -144 -74q-78 0 -125.5 59t-47.5 163zM76 217q0 -94 42.5 -148 t111.5 -54q84 0 146 86v317q-55 19 -108 19q-92 0 -142 -57.5t-50 -162.5z" />
<glyph unicode="&#x112;" horiz-adv-x="454" d="M110 0v637h308l3 -4l-4 -16h-287v-277h238l3 -4l-4 -16h-237v-300h292l3 -4l-4 -16h-311zM120 775l2 17h287l3 -3l-2 -17h-287z" />
<glyph unicode="&#x113;" horiz-adv-x="433" d="M56 221q0 108 50.5 172t135.5 64q68 0 107.5 -43t39.5 -118q0 -11 -2 -27l-6 -7l-304 -10q-1 -10 -1 -31q0 -94 43 -150t119 -56q74 0 123 46l6 -2l-3 -20q-57 -44 -128 -44q-83 0 -131.5 61.5t-48.5 164.5zM80 272l288 10l1 14q0 66 -34.5 103.5t-93.5 37.5 q-64 0 -107 -44t-54 -121zM84 590l2 17h287l3 -3l-2 -17h-287z" />
<glyph unicode="&#x114;" horiz-adv-x="454" d="M110 0v637h308l3 -4l-4 -16h-287v-277h238l3 -4l-4 -16h-237v-300h292l3 -4l-4 -16h-311zM165 802l13 11h5q15 -65 82 -65t84 65h5l13 -11q-23 -74 -102 -74q-78 0 -100 74z" />
<glyph unicode="&#x115;" horiz-adv-x="433" d="M56 221q0 108 50.5 172t135.5 64q68 0 107.5 -43t39.5 -118q0 -11 -2 -27l-6 -7l-304 -10q-1 -10 -1 -31q0 -94 43 -150t119 -56q74 0 123 46l6 -2l-3 -20q-57 -44 -128 -44q-83 0 -131.5 61.5t-48.5 164.5zM80 272l288 10l1 14q0 66 -34.5 103.5t-93.5 37.5 q-64 0 -107 -44t-54 -121zM129 627l13 13h5q13 -98 83 -98t83 98h5l13 -13q-19 -105 -101 -105t-101 105z" />
<glyph unicode="&#x116;" horiz-adv-x="454" d="M110 0v637h308l3 -4l-4 -16h-287v-277h238l3 -4l-4 -16h-237v-300h292l3 -4l-4 -16h-311zM246 796q0 20 20 20t20 -20t-20 -20t-20 20z" />
<glyph unicode="&#x117;" horiz-adv-x="433" d="M56 221q0 108 50.5 172t135.5 64q68 0 107.5 -43t39.5 -118q0 -11 -2 -27l-6 -7l-304 -10q-1 -10 -1 -31q0 -94 43 -150t119 -56q74 0 123 46l6 -2l-3 -20q-57 -44 -128 -44q-83 0 -131.5 61.5t-48.5 164.5zM80 272l288 10l1 14q0 66 -34.5 103.5t-93.5 37.5 q-64 0 -107 -44t-54 -121zM210 611q0 20 20 20t20 -20t-20 -20t-20 20z" />
<glyph unicode="&#x118;" horiz-adv-x="454" d="M110 0v637h308l3 -4l-4 -16h-287v-277h238l3 -4l-4 -16h-237v-300h292l3 -4l-4 -16h-56l-53 -78q-20 -29 -20 -54q0 -20 12 -32.5t33 -12.5q42 0 81 53h2l11 -16q-44 -57 -94 -57q-29 0 -47 17.5t-18 47.5q0 31 20 60l49 72h-231z" />
<glyph unicode="&#x119;" horiz-adv-x="433" d="M56 221q0 108 50.5 172t135.5 64q68 0 107.5 -43t39.5 -118q0 -11 -2 -27l-6 -7l-304 -10q-1 -10 -1 -31q0 -94 43 -150t119 -56q74 0 123 46l6 -2l-3 -20q-19 -15 -41 -25l-62 -92q-20 -29 -20 -54q0 -20 12 -32.5t33 -12.5q42 0 81 53h2l11 -16q-44 -57 -94 -57 q-29 0 -47 17.5t-18 47.5q0 31 20 60l50 74q-30 -7 -55 -7q-83 0 -131.5 61.5t-48.5 164.5zM80 272l288 10l1 14q0 66 -34.5 103.5t-93.5 37.5q-64 0 -107 -44t-54 -121z" />
<glyph unicode="&#x11a;" horiz-adv-x="454" d="M110 0v637h308l3 -4l-4 -16h-287v-277h238l3 -4l-4 -16h-237v-300h292l3 -4l-4 -16h-311zM159 805l7 14h5q46 -32 95 -70q49 38 95 70h5l7 -14q-47 -33 -98 -76h-16q-66 52 -100 76z" />
<glyph unicode="&#x11b;" horiz-adv-x="433" d="M56 221q0 108 50.5 172t135.5 64q68 0 107.5 -43t39.5 -118q0 -11 -2 -27l-6 -7l-304 -10q-1 -10 -1 -31q0 -94 43 -150t119 -56q74 0 123 46l6 -2l-3 -20q-57 -44 -128 -44q-83 0 -131.5 61.5t-48.5 164.5zM80 272l288 10l1 14q0 66 -34.5 103.5t-93.5 37.5 q-64 0 -107 -44t-54 -121zM120 646l9 12h5q48 -53 96 -117q48 64 96 117h5l9 -12q-38 -43 -101 -126h-18q-63 83 -101 126z" />
<glyph unicode="&#x11c;" horiz-adv-x="603" d="M48 313q0 158 76.5 243t218.5 85q89 0 180 -54l-6 -18h-7q-87 52 -167 52q-132 0 -203.5 -80t-71.5 -229q0 -143 62 -220t177 -77q81 0 189 30v191l20 2v-208q-114 -32 -208 -35q-125 0 -192.5 82.5t-67.5 235.5zM218 752q47 33 98 76h16q66 -52 100 -76l-7 -14h-5 q-46 32 -95 70q-49 -38 -95 -70h-5z" />
<glyph unicode="&#x11d;" horiz-adv-x="472" d="M60 -77q5 34 29 60.5t73 54.5v5q-87 19 -87 68q5 25 57 60v3q-61 41 -61 127q0 73 42 114t116 41q55 0 94 -25q74 14 128 29l4 -3v-18q-47 -12 -109 -23l-2 -3q39 -41 39 -109q0 -71 -42 -112.5t-115 -41.5q-42 0 -75 14q-55 -35 -55 -57q0 -26 50 -40t109.5 -19.5 t109.5 -30.5t50 -72q0 -55 -59.5 -96t-139.5 -41q-71 0 -113.5 32.5t-42.5 82.5zM80 -82q0 -37 37 -63.5t99 -26.5q72 0 125.5 36t53.5 81q0 15 -5.5 26.5t-18.5 20t-24.5 14.5t-34.5 11t-35.5 7.5t-40.5 6.5t-39 6q-117 -59 -117 -119zM90 301q0 -61 36 -96t100 -35 t101 35.5t37 98.5q0 62 -36 97t-99 35q-65 0 -102 -36t-37 -99zM127 522q38 43 101 126h18q63 -83 101 -126l-9 -12h-5q-48 53 -96 117q-48 -64 -96 -117h-5z" />
<glyph unicode="&#x11e;" horiz-adv-x="603" d="M48 313q0 158 76.5 243t218.5 85q89 0 180 -54l-6 -18h-7q-87 52 -167 52q-132 0 -203.5 -80t-71.5 -229q0 -143 62 -220t177 -77q81 0 189 30v191l20 2v-208q-114 -32 -208 -35q-125 0 -192.5 82.5t-67.5 235.5zM224 802l13 11h5q15 -65 82 -65t84 65h5l13 -11 q-23 -74 -102 -74q-78 0 -100 74z" />
<glyph unicode="&#x11f;" horiz-adv-x="472" d="M60 -77q5 34 29 60.5t73 54.5v5q-87 19 -87 68q5 25 57 60v3q-61 41 -61 127q0 73 42 114t116 41q55 0 94 -25q74 14 128 29l4 -3v-18q-47 -12 -109 -23l-2 -3q39 -41 39 -109q0 -71 -42 -112.5t-115 -41.5q-42 0 -75 14q-55 -35 -55 -57q0 -26 50 -40t109.5 -19.5 t109.5 -30.5t50 -72q0 -55 -59.5 -96t-139.5 -41q-71 0 -113.5 32.5t-42.5 82.5zM80 -82q0 -37 37 -63.5t99 -26.5q72 0 125.5 36t53.5 81q0 15 -5.5 26.5t-18.5 20t-24.5 14.5t-34.5 11t-35.5 7.5t-40.5 6.5t-39 6q-117 -59 -117 -119zM90 301q0 -61 36 -96t100 -35 t101 35.5t37 98.5q0 62 -36 97t-99 35q-65 0 -102 -36t-37 -99zM136 617l13 13h5q13 -98 83 -98t83 98h5l13 -13q-19 -105 -101 -105t-101 105z" />
<glyph unicode="&#x120;" horiz-adv-x="603" d="M48 313q0 158 76.5 243t218.5 85q89 0 180 -54l-6 -18h-7q-87 52 -167 52q-132 0 -203.5 -80t-71.5 -229q0 -143 62 -220t177 -77q81 0 189 30v191l20 2v-208q-114 -32 -208 -35q-125 0 -192.5 82.5t-67.5 235.5zM305 796q0 20 20 20t20 -20t-20 -20t-20 20z" />
<glyph unicode="&#x121;" horiz-adv-x="472" d="M60 -77q5 34 29 60.5t73 54.5v5q-87 19 -87 68q5 25 57 60v3q-61 41 -61 127q0 73 42 114t116 41q55 0 94 -25q74 14 128 29l4 -3v-18q-47 -12 -109 -23l-2 -3q39 -41 39 -109q0 -71 -42 -112.5t-115 -41.5q-42 0 -75 14q-55 -35 -55 -57q0 -26 50 -40t109.5 -19.5 t109.5 -30.5t50 -72q0 -55 -59.5 -96t-139.5 -41q-71 0 -113.5 32.5t-42.5 82.5zM80 -82q0 -37 37 -63.5t99 -26.5q72 0 125.5 36t53.5 81q0 15 -5.5 26.5t-18.5 20t-24.5 14.5t-34.5 11t-35.5 7.5t-40.5 6.5t-39 6q-117 -59 -117 -119zM90 301q0 -61 36 -96t100 -35 t101 35.5t37 98.5q0 62 -36 97t-99 35q-65 0 -102 -36t-37 -99zM217 601q0 20 20 20t20 -20t-20 -20t-20 20z" />
<glyph unicode="&#x122;" horiz-adv-x="603" d="M48 313q0 158 76.5 243t218.5 85q89 0 180 -54l-6 -18h-7q-87 52 -167 52q-132 0 -203.5 -80t-71.5 -229q0 -143 62 -220t177 -77q81 0 189 30v191l20 2v-208q-114 -32 -208 -35q-125 0 -192.5 82.5t-67.5 235.5zM274 -200l1 3q54 40 54 78q0 20 -30 34v4q5 7 13 11 q38 -17 38 -48q0 -42 -66 -93z" />
<glyph unicode="&#x123;" horiz-adv-x="472" d="M60 -77q5 34 29 60.5t73 54.5v5q-87 19 -87 68q5 25 57 60v3q-61 41 -61 127q0 73 42 114t116 41q55 0 94 -25q74 14 128 29l4 -3v-18q-47 -12 -109 -23l-2 -3q39 -41 39 -109q0 -71 -42 -112.5t-115 -41.5q-42 0 -75 14q-55 -35 -55 -57q0 -26 50 -40t109.5 -19.5 t109.5 -30.5t50 -72q0 -55 -59.5 -96t-139.5 -41q-71 0 -113.5 32.5t-42.5 82.5zM80 -82q0 -37 37 -63.5t99 -26.5q72 0 125.5 36t53.5 81q0 15 -5.5 26.5t-18.5 20t-24.5 14.5t-34.5 11t-35.5 7.5t-40.5 6.5t-39 6q-117 -59 -117 -119zM90 301q0 -61 36 -96t100 -35 t101 35.5t37 98.5q0 62 -36 97t-99 35q-65 0 -102 -36t-37 -99zM197 574q0 46 53 102l13 -11v-4q-44 -47 -44 -83q0 -30 38 -39v-4q-1 -3 -10 -16q-50 12 -50 55z" />
<glyph unicode="&#x124;" horiz-adv-x="670" d="M110 0v637h20v-303h410v303h20v-637h-20v314h-410v-314h-20zM223 752q47 33 98 76h16q66 -52 100 -76l-7 -14h-5q-46 32 -95 70q-49 -38 -95 -70h-5z" />
<glyph unicode="&#x125;" horiz-adv-x="506" d="M8 755q47 33 98 76h16q66 -52 100 -76l-7 -14h-5q-46 32 -95 70q-49 -38 -95 -70h-5zM105 0v698l20 4v-328h4q77 83 156 83q63 0 97.5 -35.5t33.5 -100.5l-1 -127l-1 -194h-20l2 320q0 55 -29 86t-82 31q-80 0 -160 -96v-341h-20z" />
<glyph unicode="&#x126;" horiz-adv-x="700" d="M55 487l2 17h68v133h20v-133h410v133h20v-133h66l4 -3l-2 -17h-68v-484h-20v314h-410v-314h-20v484h-66zM145 334h410v150h-410v-150z" />
<glyph unicode="&#x127;" horiz-adv-x="495" d="M15 564l2 17h77v117l20 4v-121h140l3 -3l-2 -17h-141v-187h4q77 83 156 83q63 0 97.5 -35.5t33.5 -100.5l-1 -127l-1 -194h-20l2 320q0 55 -29 86t-82 31q-80 0 -160 -96v-341h-20v561h-76z" />
<glyph unicode="&#x12a;" horiz-adv-x="240" d="M14 775l2 17h207l3 -3l-2 -17h-207zM110 0v637h20v-637h-20z" />
<glyph unicode="&#x12b;" horiz-adv-x="222" d="M5 590l2 17h207l3 -3l-2 -17h-207zM101 0v449l20 4v-453h-20z" />
<glyph unicode="&#x12c;" horiz-adv-x="240" d="M19 802l13 11h5q15 -65 82 -65t84 65h5l13 -11q-23 -74 -102 -74q-78 0 -100 74zM110 0v637h20v-637h-20z" />
<glyph unicode="&#x12d;" horiz-adv-x="222" d="M10 627l13 13h5q13 -98 83 -98t83 98h5l13 -13q-19 -105 -101 -105t-101 105zM101 0v449l20 4v-453h-20z" />
<glyph unicode="&#x12e;" horiz-adv-x="240" d="M31 -151q0 22 18 54.5t61 96.5v637h20v-637q-79 -119 -79 -150q0 -27 29 -27q28 0 44 43h2l14 -15q-24 -48 -61 -48q-22 0 -35 13.5t-13 32.5z" />
<glyph unicode="&#x12f;" horiz-adv-x="222" d="M22 -151q0 22 18 54.5t61 96.5v449l20 4v-453q-79 -119 -79 -150q0 -27 29 -27q28 0 44 43h2l14 -15q-24 -48 -61 -48q-22 0 -35 13.5t-13 32.5zM91 611q0 20 20 20t20 -20t-20 -20t-20 20z" />
<glyph unicode="&#x130;" horiz-adv-x="240" d="M100 796q0 20 20 20t20 -20t-20 -20t-20 20zM110 0v637h20v-637h-20z" />
<glyph unicode="&#x131;" horiz-adv-x="222" d="M101 0v449l20 4v-453h-20z" />
<glyph unicode="&#x132;" horiz-adv-x="508" d="M110 0v637h20v-637h-20zM248 621l3 16h149v-522q0 -70 -29.5 -118.5t-99.5 -94.5l-11 11v6q64 42 92 87t28 107v504h-128z" />
<glyph unicode="&#x133;" horiz-adv-x="444" d="M91 611q0 20 20 20t20 -20t-20 -20t-20 20zM101 0v449l20 4v-453h-20zM242 436l3 16h83l20 1l2 -2v-439q0 -78 -19.5 -120.5t-73.5 -83.5l-10 10v6q48 37 65.5 76.5t17.5 107.5v424h-84zM305 611q0 20 20 20t20 -20t-20 -20t-20 20z" />
<glyph unicode="&#x134;" horiz-adv-x="268" d="M1 752q47 33 98 76h16q66 -52 100 -76l-7 -14h-5q-46 32 -95 70q-49 -38 -95 -70h-5zM8 621l3 16h149v-522q0 -70 -29.5 -118.5t-99.5 -94.5l-11 11v6q64 42 92 87t28 107v504h-128z" />
<glyph unicode="&#x135;" horiz-adv-x="222" d="M-7 532q38 43 101 126h18q63 -83 101 -126l-9 -12h-5q-48 53 -96 117q-48 -64 -96 -117h-5zM20 436l3 16h83l20 1l2 -2v-439q0 -78 -19.5 -120.5t-73.5 -83.5l-10 10v6q48 37 65.5 76.5t17.5 107.5v424h-84z" />
<glyph unicode="&#x136;" horiz-adv-x="507" d="M110 0v637h20v-637h-20zM159 338v3l249 249l43 47h31l-296 -297q146 -176 312 -335v-4q-3 -3 -14 -8l-4 1q-183 178 -321 344zM236 -200l1 3q54 40 54 78q0 20 -30 34v4q5 7 13 11q38 -17 38 -48q0 -42 -66 -93z" />
<glyph unicode="&#x137;" horiz-adv-x="418" d="M105 0v698l20 4v-702h-20zM155 238v5l177 175l29 34h31l-211 -211q110 -124 227 -236v-4q-2 -3 -15 -8l-4 1q-125 122 -234 244zM200 -200l1 3q54 40 54 78q0 20 -30 34v4q5 7 13 11q38 -17 38 -48q0 -42 -66 -93z" />
<glyph unicode="&#x138;" horiz-adv-x="413" d="M101 0v449l20 4v-453h-20zM150 238v5l178 175l29 34h30l-211 -211q109 -124 227 -236v-4q-3 -3 -14 -8l-4 1q-121 118 -235 244z" />
<glyph unicode="&#x139;" horiz-adv-x="398" d="M109 0v637h20v-617h261l3 -4l-4 -16h-280zM134 742q91 44 176 94l5 -2l7 -12l-2 -5q-67 -38 -174 -93l-5 3z" />
<glyph unicode="&#x13a;" horiz-adv-x="230" d="M53 785q91 44 176 94l5 -2l7 -12l-2 -5q-67 -38 -174 -93l-5 3zM105 0v698l20 4v-702h-20z" />
<glyph unicode="&#x13b;" horiz-adv-x="398" d="M109 0v637h20v-617h261l3 -4l-4 -16h-280zM198 -200l1 3q54 40 54 78q0 20 -30 34v4q5 7 13 11q38 -17 38 -48q0 -42 -66 -93z" />
<glyph unicode="&#x13c;" horiz-adv-x="230" d="M77 -200l1 3q54 40 54 78q0 20 -30 34v4q5 7 13 11q38 -17 38 -48q0 -42 -66 -93zM105 0v698l20 4v-702h-20z" />
<glyph unicode="&#x13d;" horiz-adv-x="408" d="M109 0v637h20v-617h261l3 -4l-4 -16h-280zM323 433l12 144l17 2l3 -4l-12 -144l-17 -2z" />
<glyph unicode="&#x13e;" horiz-adv-x="233" d="M105 0v698l20 4v-702h-20zM211 499l12 144l17 2l3 -4l-12 -144l-17 -2z" />
<glyph unicode="&#x13f;" horiz-adv-x="398" d="M109 0v637h20v-617h261l3 -4l-4 -16h-280zM289 367q0 20 20 20t20 -20t-20 -20t-20 20z" />
<glyph unicode="&#x140;" horiz-adv-x="240" d="M105 0v698l20 4v-702h-20zM207 267q0 20 20 20t20 -20t-20 -20t-20 20z" />
<glyph unicode="&#x141;" horiz-adv-x="408" d="M22 304l97 53v280h20v-270l160 87l5 -2l6 -15l-171 -93v-324h261l3 -4l-4 -16h-280v333l-86 -47l-5 3z" />
<glyph unicode="&#x142;" horiz-adv-x="230" d="M2 346l103 53v299l20 4v-293l96 50l5 -2l5 -15l-106 -56v-386h-20v376l-93 -48l-5 3z" />
<glyph unicode="&#x143;" horiz-adv-x="670" d="M110 0v190l1 447h19l404 -595h4l2 594l20 2l-1 -462l-1 -176h-19l-404 595h-4l-1 -396v-199h-20zM269 742q91 44 176 94l5 -2l7 -12l-2 -5q-67 -38 -174 -93l-5 3z" />
<glyph unicode="&#x144;" horiz-adv-x="502" d="M101 0v449l20 4v-79h4q77 83 156 83q63 0 97 -35.5t34 -100.5v-321h-22l2 320q0 55 -29 86t-82 31q-80 0 -160 -96v-341h-20zM214 532q69 58 146 137l5 -1l10 -10l-1 -5q-69 -69 -144 -135l-5 1z" />
<glyph unicode="&#x145;" horiz-adv-x="670" d="M110 0v190l1 447h19l404 -595h4l2 594l20 2l-1 -462l-1 -176h-19l-404 595h-4l-1 -396v-199h-20zM292 -200l1 3q54 40 54 78q0 20 -30 34v4q5 7 13 11q38 -17 38 -48q0 -42 -66 -93z" />
<glyph unicode="&#x146;" horiz-adv-x="502" d="M101 0v449l20 4v-79h4q77 83 156 83q63 0 97 -35.5t34 -100.5v-321h-22l2 320q0 55 -29 86t-82 31q-80 0 -160 -96v-341h-20zM212 -200l1 3q54 40 54 78q0 20 -30 34v4q5 7 13 11q38 -17 38 -48q0 -42 -66 -93z" />
<glyph unicode="&#x147;" horiz-adv-x="670" d="M110 0v190l1 447h19l404 -595h4l2 594l20 2l-1 -462l-1 -176h-19l-404 595h-4l-1 -396v-199h-20zM224 805l7 14h5q46 -32 95 -70q49 38 95 70h5l7 -14q-47 -33 -98 -76h-16q-66 52 -100 76z" />
<glyph unicode="&#x148;" horiz-adv-x="502" d="M101 0v449l20 4v-79h4q77 83 156 83q63 0 97 -35.5t34 -100.5v-321h-22l2 320q0 55 -29 86t-82 31q-80 0 -160 -96v-341h-20zM153 646l9 12h5q48 -53 96 -117q48 64 96 117h5l9 -12q-38 -43 -101 -126h-18q-63 83 -101 126z" />
<glyph unicode="&#x14a;" horiz-adv-x="670" d="M110 0v190l1 447h19l404 -595h4l2 594l20 2l-1 -462l-1 -137q0 -59 -29 -100t-100 -83l-11 11v6q57 34 84 64t33 68l-400 590h-4l-1 -396v-199h-20z" />
<glyph unicode="&#x14b;" horiz-adv-x="508" d="M101 0v449l20 4v-79h4q77 83 156 83q63 0 97 -35.5t34 -100.5v-309q0 -78 -19 -120.5t-71 -83.5l-11 11v6q47 38 64 76.5t17 106.5v312q0 55 -29 86t-82 31q-80 0 -160 -96v-341h-20z" />
<glyph unicode="&#x14c;" horiz-adv-x="627" d="M48 317q0 157 70 241t200 84q126 0 193.5 -81t67.5 -232q0 -161 -70 -247.5t-201 -86.5q-125 0 -192.5 83.5t-67.5 238.5zM68 317q0 -145 62 -223.5t178 -78.5q121 0 186 81.5t65 232.5q0 141 -62.5 217t-178.5 76q-121 0 -185.5 -79t-64.5 -226zM168 775l2 17h287l3 -3 l-2 -17h-287z" />
<glyph unicode="&#x14d;" horiz-adv-x="487" d="M56 222q0 109 50.5 172t139.5 63q85 0 134 -60.5t49 -166.5q0 -109 -50.5 -172t-139.5 -63q-85 0 -134 60.5t-49 166.5zM76 222q0 -97 43.5 -152t119.5 -55q79 0 124.5 57t45.5 158q0 97 -43.5 152t-119.5 55q-79 0 -124.5 -57t-45.5 -158zM97 590l2 17h287l3 -3l-2 -17 h-287z" />
<glyph unicode="&#x14e;" horiz-adv-x="627" d="M48 317q0 157 70 241t200 84q126 0 193.5 -81t67.5 -232q0 -161 -70 -247.5t-201 -86.5q-125 0 -192.5 83.5t-67.5 238.5zM68 317q0 -145 62 -223.5t178 -78.5q121 0 186 81.5t65 232.5q0 141 -62.5 217t-178.5 76q-121 0 -185.5 -79t-64.5 -226zM213 802l13 11h5 q15 -65 82 -65t84 65h5l13 -11q-23 -74 -102 -74q-78 0 -100 74z" />
<glyph unicode="&#x14f;" horiz-adv-x="487" d="M56 222q0 109 50.5 172t139.5 63q85 0 134 -60.5t49 -166.5q0 -109 -50.5 -172t-139.5 -63q-85 0 -134 60.5t-49 166.5zM76 222q0 -97 43.5 -152t119.5 -55q79 0 124.5 57t45.5 158q0 97 -43.5 152t-119.5 55q-79 0 -124.5 -57t-45.5 -158zM142 627l13 13h5 q13 -98 83 -98t83 98h5l13 -13q-19 -105 -101 -105t-101 105z" />
<glyph unicode="&#x150;" horiz-adv-x="627" d="M48 317q0 157 70 241t200 84q126 0 193.5 -81t67.5 -232q0 -161 -70 -247.5t-201 -86.5q-125 0 -192.5 83.5t-67.5 238.5zM68 317q0 -145 62 -223.5t178 -78.5q121 0 186 81.5t65 232.5q0 141 -62.5 217t-178.5 76q-121 0 -185.5 -79t-64.5 -226zM211 734q91 84 114 107 l5 -1l10 -10l-1 -5q-35 -35 -112 -105l-5 1zM341 734q91 84 114 107l5 -1l10 -10l-1 -5q-35 -35 -112 -105l-5 1z" />
<glyph unicode="&#x151;" horiz-adv-x="487" d="M56 222q0 109 50.5 172t139.5 63q85 0 134 -60.5t49 -166.5q0 -109 -50.5 -172t-139.5 -63q-85 0 -134 60.5t-49 166.5zM76 222q0 -97 43.5 -152t119.5 -55q79 0 124.5 57t45.5 158q0 97 -43.5 152t-119.5 55q-79 0 -124.5 -57t-45.5 -158zM137 530q77 67 146 137l5 -1 l10 -10l-1 -5q-71 -69 -144 -135l-5 1zM267 530q76 67 146 137l5 -1l10 -10l-1 -5q-71 -69 -144 -135l-5 1z" />
<glyph unicode="&#x152;" horiz-adv-x="833" d="M48 317q0 157 81 244.5t229 87.5q27 0 76 -6t77 -6h286l3 -4l-4 -16h-287v-277h238l3 -4l-4 -16h-237v-300h292l3 -4l-4 -16h-289q-29 0 -84 -6t-79 -6q-143 0 -221.5 86.5t-78.5 242.5zM68 316q0 -146 73 -227t212 -81q45 0 108 10q17 3 22.5 8t5.5 17l-2 543 q0 18 -3 24t-11 8q-62 11 -115 11q-138 0 -214 -82t-76 -231z" />
<glyph unicode="&#x153;" horiz-adv-x="780" d="M49 222q0 109 50.5 172t139.5 63q68 0 113 -39t61 -110q17 70 63 109.5t112 39.5q68 0 107.5 -43t39.5 -118q0 -11 -2 -27l-6 -7l-304 -10q-1 -10 -1 -31q0 -94 43 -150t119 -56q74 0 123 46l6 -2l-3 -20q-57 -44 -128 -44q-66 0 -110.5 39t-60.5 109q-17 -70 -63.5 -109 t-115.5 -39q-85 0 -134 60.5t-49 166.5zM69 222q0 -97 43.5 -152t119.5 -55q79 0 124.5 57t45.5 158q0 97 -43.5 152t-119.5 55q-79 0 -124.5 -57t-45.5 -158zM426 272l288 10l1 14q0 66 -34.5 103.5t-93.5 37.5q-64 0 -107 -44t-54 -121z" />
<glyph unicode="&#x154;" horiz-adv-x="518" d="M110 0v637l141 2q87 0 134 -45t47 -130q0 -74 -38 -124.5t-109 -72.5q78 -128 181 -262v-4q-5 -5 -12 -8l-6 2q-107 140 -184 268h-134v-263h-20zM130 283h142q67 17 103.5 64t36.5 117q0 72 -40 112t-114 43l-128 -1v-335zM210 717q69 58 146 137l5 -1l10 -10l-1 -5 q-69 -69 -144 -135l-5 1z" />
<glyph unicode="&#x155;" horiz-adv-x="298" d="M101 0v449l20 4v-111h4q60 110 136 110q13 0 27 -2v-19l-5 -2q-15 3 -27 3q-68 0 -135 -131v-301h-20zM137 532q69 58 146 137l5 -1l10 -10l-1 -5q-69 -69 -144 -135l-5 1z" />
<glyph unicode="&#x156;" horiz-adv-x="518" d="M110 0v637l141 2q87 0 134 -45t47 -130q0 -74 -38 -124.5t-109 -72.5q78 -128 181 -262v-4q-5 -5 -12 -8l-6 2q-107 140 -184 268h-134v-263h-20zM130 283h142q67 17 103.5 64t36.5 117q0 72 -40 112t-114 43l-128 -1v-335zM221 -200l1 3q54 40 54 78q0 20 -30 34v4 q5 7 13 11q38 -17 38 -48q0 -42 -66 -93z" />
<glyph unicode="&#x157;" horiz-adv-x="298" d="M74 -200l1 3q54 40 54 78q0 20 -30 34v4q5 7 13 11q38 -17 38 -48q0 -42 -66 -93zM101 0v449l20 4v-111h4q60 110 136 110q13 0 27 -2v-19l-5 -2q-15 3 -27 3q-68 0 -135 -131v-301h-20z" />
<glyph unicode="&#x158;" horiz-adv-x="518" d="M110 0v637l141 2q87 0 134 -45t47 -130q0 -74 -38 -124.5t-109 -72.5q78 -128 181 -262v-4q-5 -5 -12 -8l-6 2q-107 140 -184 268h-134v-263h-20zM130 283h142q67 17 103.5 64t36.5 117q0 72 -40 112t-114 43l-128 -1v-335zM149 831l9 12h5q48 -53 96 -117q48 64 96 117 h5l9 -12q-38 -43 -101 -126h-18q-63 83 -101 126z" />
<glyph unicode="&#x159;" horiz-adv-x="298" d="M76 646l9 12h5q48 -53 96 -117q48 64 96 117h5l9 -12q-38 -43 -101 -126h-18q-63 83 -101 126zM101 0v449l20 4v-111h4q60 110 136 110q13 0 27 -2v-19l-5 -2q-15 3 -27 3q-68 0 -135 -131v-301h-20z" />
<glyph unicode="&#x15a;" horiz-adv-x="445" d="M52 43l1 19l5 2q61 -48 145 -48q74 0 120.5 44.5t46.5 101.5q0 45 -31.5 78.5t-76 54.5t-89 43.5t-76 58.5t-31.5 86q0 66 50.5 111.5t129.5 45.5q60 0 122 -29l-4 -18l-7 -1q-55 28 -113 28q-72 0 -115 -43.5t-43 -96.5q0 -43 31.5 -74.5t76 -52.5t89 -43t76 -59.5 t31.5 -88.5q0 -68 -53 -117t-133 -49q-87 0 -152 47zM184 717q69 58 146 137l5 -1l10 -10l-1 -5q-69 -69 -144 -135l-5 1z" />
<glyph unicode="&#x15b;" horiz-adv-x="357" d="M45 30l3 17l5 3q47 -35 106 -35q56 0 89.5 30t33.5 71q0 31 -23 53.5t-55.5 37.5t-65 30.5t-55.5 42t-23 63.5q0 49 36.5 80.5t96.5 31.5q46 0 94 -20l-5 -19l-6 -1q-41 20 -84 20q-50 0 -81 -27t-31 -66q0 -31 23 -54t55.5 -38t65 -30.5t55.5 -41t23 -61.5 q0 -51 -40 -86.5t-102 -35.5q-66 0 -115 35zM126 532q69 58 146 137l5 -1l10 -10l-1 -5q-69 -69 -144 -135l-5 1z" />
<glyph unicode="&#x15c;" horiz-adv-x="445" d="M52 43l1 19l5 2q61 -48 145 -48q74 0 120.5 44.5t46.5 101.5q0 45 -31.5 78.5t-76 54.5t-89 43.5t-76 58.5t-31.5 86q0 66 50.5 111.5t129.5 45.5q60 0 122 -29l-4 -18l-7 -1q-55 28 -113 28q-72 0 -115 -43.5t-43 -96.5q0 -43 31.5 -74.5t76 -52.5t89 -43t76 -59.5 t31.5 -88.5q0 -68 -53 -117t-133 -49q-87 0 -152 47zM123 717q38 43 101 126h18q63 -83 101 -126l-9 -12h-5q-48 53 -96 117q-48 -64 -96 -117h-5z" />
<glyph unicode="&#x15d;" horiz-adv-x="357" d="M45 30l3 17l5 3q47 -35 106 -35q56 0 89.5 30t33.5 71q0 31 -23 53.5t-55.5 37.5t-65 30.5t-55.5 42t-23 63.5q0 49 36.5 80.5t96.5 31.5q46 0 94 -20l-5 -19l-6 -1q-41 20 -84 20q-50 0 -81 -27t-31 -66q0 -31 23 -54t55.5 -38t65 -30.5t55.5 -41t23 -61.5 q0 -51 -40 -86.5t-102 -35.5q-66 0 -115 35zM65 532q38 43 101 126h18q63 -83 101 -126l-9 -12h-5q-48 53 -96 117q-48 -64 -96 -117h-5z" />
<glyph unicode="&#x15e;" horiz-adv-x="445" d="M52 43l1 19l5 2q61 -48 145 -48q74 0 120.5 44.5t46.5 101.5q0 45 -31.5 78.5t-76 54.5t-89 43.5t-76 58.5t-31.5 86q0 66 50.5 111.5t129.5 45.5q60 0 122 -29l-4 -18l-7 -1q-55 28 -113 28q-72 0 -115 -43.5t-43 -96.5q0 -43 31.5 -74.5t76 -52.5t89 -43t76 -59.5 t31.5 -88.5q0 -62 -45 -109.5t-115 -55.5l-17 -52l31 -20q33 -21 33 -50q0 -24 -17.5 -38.5t-42.5 -14.5q-37 0 -59 33l6 18h4q21 -31 49 -31q40 0 40 33q0 17 -24 33l-44 28l20 60h-5q-87 0 -152 47z" />
<glyph unicode="&#x15f;" horiz-adv-x="357" d="M45 30l3 17l5 3q47 -35 106 -35q56 0 89.5 30t33.5 71q0 31 -23 53.5t-55.5 37.5t-65 30.5t-55.5 42t-23 63.5q0 49 36.5 80.5t96.5 31.5q46 0 94 -20l-5 -19l-6 -1q-41 20 -84 20q-50 0 -81 -27t-31 -66q0 -31 23 -54t55.5 -38t65 -30.5t55.5 -41t23 -61.5 q0 -47 -35.5 -82t-91.5 -39l-16 -51l31 -20q33 -21 33 -50q0 -24 -17.5 -38.5t-42.5 -14.5q-37 0 -59 33l6 18h4q21 -31 49 -31q40 0 40 33q0 17 -24 33l-44 28l20 59q-62 2 -110 35z" />
<glyph unicode="&#x160;" horiz-adv-x="445" d="M52 43l1 19l5 2q61 -48 145 -48q74 0 120.5 44.5t46.5 101.5q0 45 -31.5 78.5t-76 54.5t-89 43.5t-76 58.5t-31.5 86q0 66 50.5 111.5t129.5 45.5q60 0 122 -29l-4 -18l-7 -1q-55 28 -113 28q-72 0 -115 -43.5t-43 -96.5q0 -43 31.5 -74.5t76 -52.5t89 -43t76 -59.5 t31.5 -88.5q0 -68 -53 -117t-133 -49q-87 0 -152 47zM123 831l9 12h5q48 -53 96 -117q48 64 96 117h5l9 -12q-38 -43 -101 -126h-18q-63 83 -101 126z" />
<glyph unicode="&#x161;" horiz-adv-x="357" d="M45 30l3 17l5 3q47 -35 106 -35q56 0 89.5 30t33.5 71q0 31 -23 53.5t-55.5 37.5t-65 30.5t-55.5 42t-23 63.5q0 49 36.5 80.5t96.5 31.5q46 0 94 -20l-5 -19l-6 -1q-41 20 -84 20q-50 0 -81 -27t-31 -66q0 -31 23 -54t55.5 -38t65 -30.5t55.5 -41t23 -61.5 q0 -51 -40 -86.5t-102 -35.5q-66 0 -115 35zM65 646l9 12h5q48 -53 96 -117q48 64 96 117h5l9 -12q-38 -43 -101 -126h-18q-63 83 -101 126z" />
<glyph unicode="&#x162;" horiz-adv-x="475" d="M28 621l4 16h412l3 -4l-4 -16h-195v-606h2l-2 -6v-5h-1l-18 -55l31 -20q33 -21 33 -50q0 -24 -17.5 -38.5t-42.5 -14.5q-37 0 -59 33l6 18h4q21 -31 49 -31q40 0 40 33q0 17 -24 33l-44 28l23 69v612h-197z" />
<glyph unicode="&#x163;" horiz-adv-x="298" d="M40 436l3 16h63v108l16 6l4 -3v-111h155l3 -4l-3 -16h-155v-319q0 -97 74 -97q38 0 78 26l4 -3l-2 -18q-41 -23 -76 -25l-16 -51l31 -20q33 -21 33 -50q0 -24 -17.5 -38.5t-42.5 -14.5q-37 0 -59 33l6 18h4q21 -31 49 -31q40 0 40 33q0 17 -24 33l-44 28l20 61 q-78 11 -78 115v320h-62z" />
<glyph unicode="&#x164;" horiz-adv-x="475" d="M28 621l4 16h412l3 -4l-4 -16h-195v-617h-20v617h-197zM132 831l9 12h5q48 -53 96 -117q48 64 96 117h5l9 -12q-38 -43 -101 -126h-18q-63 83 -101 126z" />
<glyph unicode="&#x165;" horiz-adv-x="298" d="M40 436l3 16h63v108l16 6l4 -3v-111h155l3 -4l-3 -16h-155v-319q0 -97 74 -97q38 0 78 26l4 -3l-2 -18q-44 -25 -80 -25q-45 0 -69.5 30t-24.5 86v320h-62zM200 495l12 144l17 2l3 -4l-12 -144l-17 -2z" />
<glyph unicode="&#x166;" horiz-adv-x="475" d="M28 621l4 16h412l3 -4l-4 -16h-195v-267h104l3 -3l-2 -17h-105v-330h-20v330h-97l-3 3l2 17h98v267h-197z" />
<glyph unicode="&#x167;" horiz-adv-x="302" d="M41 267l2 17h65v148h-62l-4 4l3 16h63v108l16 6l4 -3v-111h155l3 -4l-3 -16h-155v-148h137l3 -3l-2 -17h-138v-151q0 -97 74 -97q38 0 78 26l4 -3l-2 -18q-44 -25 -80 -25q-45 0 -69.5 30t-24.5 86v152h-64z" />
<glyph unicode="&#x16a;" horiz-adv-x="612" d="M86 229v408h20v-408q-1 -103 51 -158t149 -55t148.5 55t51.5 158v408h20v-408q3 -110 -55 -171.5t-165 -61.5t-163.5 60t-56.5 173zM164 775l2 17h287l3 -3l-2 -17h-287z" />
<glyph unicode="&#x16b;" horiz-adv-x="504" d="M90 132v317l20 4v-320q0 -56 26 -86.5t75 -30.5q81 0 161 92v341l20 4v-374q0 -62 36 -62q23 0 41 15l6 -3l-4 -18q-20 -14 -45 -14q-54 0 -54 82h-4q-77 -83 -160 -83q-57 0 -87.5 35.5t-30.5 100.5zM108 590l2 17h287l3 -3l-2 -17h-287z" />
<glyph unicode="&#x16c;" horiz-adv-x="612" d="M86 229v408h20v-408q-1 -103 51 -158t149 -55t148.5 55t51.5 158v408h20v-408q3 -110 -55 -171.5t-165 -61.5t-163.5 60t-56.5 173zM209 812l13 13h5q13 -98 83 -98t83 98h5l13 -13q-19 -105 -101 -105t-101 105z" />
<glyph unicode="&#x16d;" horiz-adv-x="504" d="M90 132v317l20 4v-320q0 -56 26 -86.5t75 -30.5q81 0 161 92v341l20 4v-374q0 -62 36 -62q23 0 41 15l6 -3l-4 -18q-20 -14 -45 -14q-54 0 -54 82h-4q-77 -83 -160 -83q-57 0 -87.5 35.5t-30.5 100.5zM153 627l13 13h5q13 -98 83 -98t83 98h5l13 -13q-19 -105 -101 -105 t-101 105z" />
<glyph unicode="&#x16e;" horiz-adv-x="612" d="M86 229v408h20v-408q-1 -103 51 -158t149 -55t148.5 55t51.5 158v408h20v-408q3 -110 -55 -171.5t-165 -61.5t-163.5 60t-56.5 173zM238 784q0 30 19.5 49.5t50.5 19.5q33 0 52 -21t19 -49q0 -31 -21.5 -50t-49.5 -19t-49 19t-21 51zM258 784q0 -23 14.5 -36.5 t35.5 -13.5t36 13t15 36q0 21 -13.5 35.5t-37.5 14.5q-23 0 -36.5 -13.5t-13.5 -35.5z" />
<glyph unicode="&#x16f;" horiz-adv-x="504" d="M90 132v317l20 4v-320q0 -56 26 -86.5t75 -30.5q81 0 161 92v341l20 4v-374q0 -62 36 -62q23 0 41 15l6 -3l-4 -18q-20 -14 -45 -14q-54 0 -54 82h-4q-77 -83 -160 -83q-57 0 -87.5 35.5t-30.5 100.5zM182 599q0 30 19.5 49.5t50.5 19.5q33 0 52 -21t19 -49 q0 -31 -21.5 -50t-49.5 -19t-49 19.5t-21 50.5zM202 599q0 -23 14.5 -36.5t35.5 -13.5t36 13t15 36q0 21 -13.5 35.5t-37.5 14.5q-23 0 -36.5 -13.5t-13.5 -35.5z" />
<glyph unicode="&#x170;" horiz-adv-x="612" d="M86 229v408h20v-408q-1 -103 51 -158t149 -55t148.5 55t51.5 158v408h20v-408q3 -110 -55 -171.5t-165 -61.5t-163.5 60t-56.5 173zM207 734q91 84 114 107l5 -1l10 -10l-1 -5q-35 -35 -112 -105l-5 1zM337 734q91 84 114 107l5 -1l10 -10l-1 -5q-35 -35 -112 -105l-5 1z " />
<glyph unicode="&#x171;" horiz-adv-x="504" d="M90 132v317l20 4v-320q0 -56 26 -86.5t75 -30.5q81 0 161 92v341l20 4v-374q0 -62 36 -62q23 0 41 15l6 -3l-4 -18q-20 -14 -45 -14q-54 0 -54 82h-4q-77 -83 -160 -83q-57 0 -87.5 35.5t-30.5 100.5zM148 530q76 67 146 137l5 -1l10 -10l-1 -5q-70 -69 -144 -135l-5 1z M278 530q77 67 146 137l5 -1l10 -10l-1 -5q-70 -69 -144 -135l-5 1z" />
<glyph unicode="&#x172;" horiz-adv-x="612" d="M86 229v408h20v-408q-1 -103 51 -158t149 -55t148.5 55t51.5 158v408h20v-408q5 -148 -97 -204l-70 -103q-20 -29 -20 -54q0 -20 12 -32.5t33 -12.5q42 0 81 53h2l11 -16q-44 -57 -94 -57q-29 0 -47 17.5t-18 47.5q0 31 20 60l55 81q-42 -13 -88 -13q-107 0 -163.5 60 t-56.5 173z" />
<glyph unicode="&#x173;" horiz-adv-x="508" d="M90 132v317l20 4v-320q0 -56 26 -86.5t75 -30.5q81 0 161 92v341l20 4v-374q0 -62 36 -62q23 0 41 15l6 -3l-4 -18q-62 -69 -82.5 -98.5t-20.5 -49.5t11.5 -30t28.5 -10q35 0 66 53h2l11 -16q-36 -57 -80 -57q-24 0 -41.5 15.5t-17.5 42.5q0 22 18 50t71 87l-11 -1 q-54 0 -54 82h-4q-77 -83 -160 -83q-57 0 -87.5 35.5t-30.5 100.5z" />
<glyph unicode="&#x174;" horiz-adv-x="884" d="M23 637h23l13 -43l202 -560h4l169 437l-60 166h22l13 -43l202 -560h4l219 560l14 43h23l-249 -637h-20l-156 438h-4l-170 -438h-20zM327 752q47 33 98 76h16q66 -52 100 -76l-7 -14h-5q-46 32 -95 70q-49 -38 -95 -70h-5z" />
<glyph unicode="&#x175;" horiz-adv-x="652" d="M29 450l21 4q23 -83 68.5 -235.5t55.5 -186.5h4q11 32 63 185t79 235h23q22 -83 67 -234t55 -186h4q11 32 63.5 184.5t79.5 235.5h23l-158 -452h-22l-123 416h-4l-142 -416h-22zM218 532q38 43 101 126h18q63 -83 101 -126l-9 -12h-5q-48 53 -96 117q-48 -64 -96 -117h-5 z" />
<glyph unicode="&#x176;" horiz-adv-x="495" d="M26 637h26l11 -26l173 -334h5l188 334l11 26h26l-218 -392v-245h-20v246zM132 752q47 33 98 76h16q66 -52 100 -76l-7 -14h-5q-46 32 -95 70q-49 -38 -95 -70h-5z" />
<glyph unicode="&#x177;" horiz-adv-x="405" d="M-17 -172q87 18 128 51.5t74 120.5l-166 450l21 4l14 -45l140 -373h5l146 373l15 43h24l-177 -452q-38 -98 -81 -135.5t-130 -54.5h-5q-4 4 -8 12v6zM95 532q38 43 101 126h18q63 -83 101 -126l-9 -12h-5q-48 53 -96 117q-48 -64 -96 -117h-5z" />
<glyph unicode="&#x178;" horiz-adv-x="495" d="M26 637h26l11 -26l173 -334h5l188 334l11 26h26l-218 -392v-245h-20v246zM149 780q0 20 20 20t20 -20t-20 -20t-20 20zM289 780q0 20 20 20t20 -20t-20 -20t-20 20z" />
<glyph unicode="&#x179;" horiz-adv-x="507" d="M32 -1v18l401 600h-320l-58 -1l-4 5l3 17l65 -1h304l37 1v-18l-401 -600h331l68 1l4 -5l-3 -16h-391zM199 742q91 44 176 94l5 -2l7 -12l-2 -5q-67 -38 -174 -93l-5 3z" />
<glyph unicode="&#x17a;" horiz-adv-x="399" d="M38 -1v17l291 416h-228l-46 -1l-4 4l4 18l52 -1h224l25 1l1 -17l-291 -416h237l53 1l3 -4l-4 -18l-57 1h-233zM152 532q69 58 146 137l5 -1l10 -10l-1 -5q-69 -69 -144 -135l-5 1z" />
<glyph unicode="&#x17b;" horiz-adv-x="507" d="M32 -1v18l401 600h-320l-58 -1l-4 5l3 17l65 -1h304l37 1v-18l-401 -600h331l68 1l4 -5l-3 -16h-391zM241 796q0 20 20 20t20 -20t-20 -20t-20 20z" />
<glyph unicode="&#x17c;" horiz-adv-x="399" d="M38 -1v17l291 416h-228l-46 -1l-4 4l4 18l52 -1h224l25 1l1 -17l-291 -416h237l53 1l3 -4l-4 -18l-57 1h-233zM181 611q0 20 20 20t20 -20t-20 -20t-20 20z" />
<glyph unicode="&#x17d;" horiz-adv-x="507" d="M32 -1v18l401 600h-320l-58 -1l-4 5l3 17l65 -1h304l37 1v-18l-401 -600h331l68 1l4 -5l-3 -16h-391zM154 805l7 14h5q46 -32 95 -70q49 38 95 70h5l7 -14q-47 -33 -98 -76h-16q-66 52 -100 76z" />
<glyph unicode="&#x17e;" horiz-adv-x="399" d="M38 -1v17l291 416h-228l-46 -1l-4 4l4 18l52 -1h224l25 1l1 -17l-291 -416h237l53 1l3 -4l-4 -18l-57 1h-233zM91 646l9 12h5q48 -53 96 -117q48 64 96 117h5l9 -12q-38 -43 -101 -126h-18q-63 83 -101 126z" />
<glyph unicode="&#x192;" horiz-adv-x="235" d="M-11 -139l1 5q47 46 65 81t25 92q17 142 38 306h-63l-4 4l2 16h67l14 111q7 65 42 100t92 35q24 0 62 -8l-5 -19l-3 -2q-23 9 -53 9q-100 0 -115 -115l-14 -111h114l3 -4l-2 -16h-117l-38 -304q-7 -65 -27 -103t-72 -87z" />
<glyph unicode="&#x1a0;" horiz-adv-x="630" d="M48 317q0 157 70 241t203 84q54 0 104 -18.5t69 -18.5q34 0 59 17.5t25 48.5q0 36 -34 72l2 5q8 5 13 5q11 0 25 -23.5t14 -54.5q0 -44 -32.5 -67t-83.5 -21q97 -81 97 -262q0 -157 -70.5 -243.5t-199.5 -86.5q-126 0 -193.5 83.5t-67.5 238.5zM68 316q0 -145 62.5 -223 t178.5 -78q120 0 185 81.5t65 229.5q0 144 -62.5 220t-179.5 76q-120 0 -184.5 -79t-64.5 -227z" />
<glyph unicode="&#x1a1;" horiz-adv-x="487" d="M56 222q0 109 51 172t139 63q39 0 79.5 -17.5t64.5 -17.5q36 0 58 18t22 47q0 35 -34 71l2 5q8 5 13 5q11 0 25 -23.5t14 -52.5q0 -45 -33 -68.5t-88 -17.5q60 -61 60 -177q0 -109 -50.5 -171.5t-138.5 -62.5q-87 0 -135.5 60.5t-48.5 166.5zM76 222q0 -97 43.5 -152 t120.5 -55q78 0 123.5 57.5t45.5 157.5q0 97 -43.5 152t-120.5 55q-78 0 -123.5 -57.5t-45.5 -157.5z" />
<glyph unicode="&#x1af;" horiz-adv-x="622" d="M86 229v408h20v-408q-1 -103 51 -158t149 -55t148.5 55t51.5 158v408h10q31 0 50 14.5t19 38.5q0 28 -34 61l2 5q7 5 12 5q10 0 25 -22t15 -49q0 -31 -21.5 -50.5t-57.5 -22.5v-388q3 -110 -55 -171.5t-165 -61.5t-163.5 60t-56.5 173z" />
<glyph unicode="&#x1b0;" horiz-adv-x="512" d="M90 132v317l20 4v-320q0 -56 26.5 -86.5t74.5 -30.5q82 0 164 92v341l16 3q83 16 83 66q0 35 -34 70l2 5q7 5 13 5q11 0 25 -23t14 -52q0 -68 -99 -88v-356q0 -62 36 -62q24 0 42 15l6 -3l-4 -18q-20 -14 -45 -14q-55 0 -55 82h-4q-79 -83 -163 -83q-56 0 -87 35t-31 101 z" />
<glyph unicode="&#x1cd;" horiz-adv-x="554" d="M19 0l254 637h20l233 -637h-23q-13 44 -43 124t-33 89h-302l-68 -170l-14 -43h-24zM133 233h287l-136 370h-4zM170 805l7 14h5q46 -32 95 -70q49 38 95 70h5l7 -14q-47 -33 -98 -76h-16q-66 52 -100 76z" />
<glyph unicode="&#x1ce;" horiz-adv-x="442" d="M56 107q0 36 21.5 61t60.5 34l172 40l3 98q0 47 -25.5 72t-73.5 25q-63 0 -137 -65l-6 2l-5 15q77 68 149 68q57 0 87.5 -29.5t30.5 -83.5q0 -12 -5 -135t-5 -136q0 -56 36 -56q24 0 42 15l6 -3l-4 -18q-20 -14 -45 -14q-54 0 -55 76h-3q-64 -75 -131 -78 q-54 0 -83.5 29.5t-29.5 82.5zM76 107q0 -43 24 -67.5t68 -24.5q69 0 136 91l5 115l-166 -39q-67 -16 -67 -75zM101 646l9 12h5q48 -53 96 -117q48 64 96 117h5l9 -12q-38 -43 -101 -126h-18q-63 83 -101 126z" />
<glyph unicode="&#x1cf;" horiz-adv-x="240" d="M13 805l7 14h5q46 -32 95 -70q49 38 95 70h5l7 -14q-47 -33 -98 -76h-16q-66 52 -100 76zM110 0v637h20v-637h-20z" />
<glyph unicode="&#x1d0;" horiz-adv-x="222" d="M1 646l9 12h5q48 -53 96 -117q48 64 96 117h5l9 -12q-38 -43 -101 -126h-18q-63 83 -101 126zM101 0v449l20 4v-453h-20z" />
<glyph unicode="&#x1d1;" horiz-adv-x="627" d="M48 317q0 157 70 241t200 84q126 0 193.5 -81t67.5 -232q0 -161 -70 -247.5t-201 -86.5q-125 0 -192.5 83.5t-67.5 238.5zM68 317q0 -145 62 -223.5t178 -78.5q121 0 186 81.5t65 232.5q0 141 -62.5 217t-178.5 76q-121 0 -185.5 -79t-64.5 -226zM207 805l7 14h5 q46 -32 95 -70q49 38 95 70h5l7 -14q-47 -33 -98 -76h-16q-66 52 -100 76z" />
<glyph unicode="&#x1d2;" horiz-adv-x="487" d="M56 222q0 109 50.5 172t139.5 63q85 0 134 -60.5t49 -166.5q0 -109 -50.5 -172t-139.5 -63q-85 0 -134 60.5t-49 166.5zM76 222q0 -97 43.5 -152t119.5 -55q79 0 124.5 57t45.5 158q0 97 -43.5 152t-119.5 55q-79 0 -124.5 -57t-45.5 -158zM133 646l9 12h5 q48 -53 96 -117q48 64 96 117h5l9 -12q-38 -43 -101 -126h-18q-63 83 -101 126z" />
<glyph unicode="&#x1d3;" horiz-adv-x="612" d="M86 229v408h20v-408q-1 -103 51 -158t149 -55t148.5 55t51.5 158v408h20v-408q3 -110 -55 -171.5t-165 -61.5t-163.5 60t-56.5 173zM200 831l9 12h5q48 -53 96 -117q48 64 96 117h5l9 -12q-38 -43 -101 -126h-18q-63 83 -101 126z" />
<glyph unicode="&#x1d4;" horiz-adv-x="504" d="M90 132v317l20 4v-320q0 -56 26 -86.5t75 -30.5q81 0 161 92v341l20 4v-374q0 -62 36 -62q23 0 41 15l6 -3l-4 -18q-20 -14 -45 -14q-54 0 -54 82h-4q-77 -83 -160 -83q-57 0 -87.5 35.5t-30.5 100.5zM144 646l9 12h5q48 -53 96 -117q48 64 96 117h5l9 -12 q-38 -43 -101 -126h-18q-63 83 -101 126z" />
<glyph unicode="&#x1d5;" horiz-adv-x="612" d="M86 229v408h20v-408q-1 -103 51 -158t149 -55t148.5 55t51.5 158v408h20v-408q3 -110 -55 -171.5t-165 -61.5t-163.5 60t-56.5 173zM189 859l2 17h237l3 -3l-2 -17h-237zM219 760q0 20 20 20t20 -20t-20 -20t-20 20zM359 760q0 20 20 20t20 -20t-20 -20t-20 20z" />
<glyph unicode="&#x1d6;" horiz-adv-x="504" d="M90 132v317l20 4v-320q0 -56 26 -86.5t75 -30.5q81 0 161 92v341l20 4v-374q0 -62 36 -62q23 0 41 15l6 -3l-4 -18q-20 -14 -45 -14q-54 0 -54 82h-4q-77 -83 -160 -83q-57 0 -87.5 35.5t-30.5 100.5zM133 674l2 17h237l3 -3l-2 -17h-237zM163 575q0 20 20 20t20 -20 t-20 -20t-20 20zM303 575q0 20 20 20t20 -20t-20 -20t-20 20z" />
<glyph unicode="&#x1d7;" horiz-adv-x="612" d="M86 229v408h20v-408q-1 -103 51 -158t149 -55t148.5 55t51.5 158v408h20v-408q3 -110 -55 -171.5t-165 -61.5t-163.5 60t-56.5 173zM212 859q93 26 190 62l4 -3l5 -13l-3 -5q-80 -29 -187 -61l-5 4zM219 760q0 20 20 20t20 -20t-20 -20t-20 20zM359 760q0 20 20 20 t20 -20t-20 -20t-20 20z" />
<glyph unicode="&#x1d8;" horiz-adv-x="504" d="M90 132v317l20 4v-320q0 -56 26 -86.5t75 -30.5q81 0 161 92v341l20 4v-374q0 -62 36 -62q23 0 41 15l6 -3l-4 -18q-20 -14 -45 -14q-54 0 -54 82h-4q-77 -83 -160 -83q-57 0 -87.5 35.5t-30.5 100.5zM156 674q93 26 190 62l4 -3l5 -13l-3 -5q-80 -29 -187 -61l-5 4z M163 575q0 20 20 20t20 -20t-20 -20t-20 20zM303 575q0 20 20 20t20 -20t-20 -20t-20 20z" />
<glyph unicode="&#x1d9;" horiz-adv-x="612" d="M86 229v408h20v-408q-1 -103 51 -158t149 -55t148.5 55t51.5 158v408h20v-408q3 -110 -55 -171.5t-165 -61.5t-163.5 60t-56.5 173zM203 889l7 14h5q46 -32 95 -70q49 38 95 70h5l7 -14q-47 -33 -98 -76h-16q-66 52 -100 76zM219 760q0 20 20 20t20 -20t-20 -20t-20 20z M359 760q0 20 20 20t20 -20t-20 -20t-20 20z" />
<glyph unicode="&#x1da;" horiz-adv-x="504" d="M90 132v317l20 4v-320q0 -56 26 -86.5t75 -30.5q81 0 161 92v341l20 4v-374q0 -62 36 -62q23 0 41 15l6 -3l-4 -18q-20 -14 -45 -14q-54 0 -54 82h-4q-77 -83 -160 -83q-57 0 -87.5 35.5t-30.5 100.5zM147 704l7 14h5q46 -32 95 -70q49 38 95 70h5l7 -14q-47 -33 -98 -76 h-16q-66 52 -100 76zM163 575q0 20 20 20t20 -20t-20 -20t-20 20zM303 575q0 20 20 20t20 -20t-20 -20t-20 20z" />
<glyph unicode="&#x1db;" horiz-adv-x="612" d="M86 229v408h20v-408q-1 -103 51 -158t149 -55t148.5 55t51.5 158v408h20v-408q3 -110 -55 -171.5t-165 -61.5t-163.5 60t-56.5 173zM212 905l5 13l4 3q97 -36 190 -62l-4 -16l-5 -4q-107 32 -187 61zM219 760q0 20 20 20t20 -20t-20 -20t-20 20zM359 760q0 20 20 20 t20 -20t-20 -20t-20 20z" />
<glyph unicode="&#x1dc;" horiz-adv-x="504" d="M90 132v317l20 4v-320q0 -56 26 -86.5t75 -30.5q81 0 161 92v341l20 4v-374q0 -62 36 -62q23 0 41 15l6 -3l-4 -18q-20 -14 -45 -14q-54 0 -54 82h-4q-77 -83 -160 -83q-57 0 -87.5 35.5t-30.5 100.5zM156 720l5 13l4 3q97 -36 190 -62l-4 -16l-5 -4q-107 32 -187 61z M163 575q0 20 20 20t20 -20t-20 -20t-20 20zM303 575q0 20 20 20t20 -20t-20 -20t-20 20z" />
<glyph unicode="&#x1ea;" horiz-adv-x="627" d="M48 317q0 157 70 241t200 84q126 0 193.5 -81t67.5 -232q0 -260 -174 -319l-59 -88q-20 -29 -20 -54q0 -20 12 -32.5t33 -12.5q42 0 81 53h2l11 -16q-44 -57 -94 -57q-29 0 -47 17.5t-18 47.5q0 31 20 60l50 74q-29 -7 -68 -7q-125 0 -192.5 83.5t-67.5 238.5zM68 317 q0 -145 62 -223.5t178 -78.5q121 0 186 81.5t65 232.5q0 141 -62.5 217t-178.5 76q-121 0 -185.5 -79t-64.5 -226z" />
<glyph unicode="&#x1eb;" horiz-adv-x="487" d="M56 222q0 109 50.5 172t139.5 63q85 0 134 -60.5t49 -166.5q0 -85 -31 -142.5t-88 -79.5l-58 -87q-20 -29 -20 -54q0 -20 12 -32.5t33 -12.5q42 0 81 53h2l11 -16q-44 -57 -94 -57q-29 0 -47 17.5t-18 47.5q0 31 20 60l49 72q-19 -4 -42 -4q-85 0 -134 60.5t-49 166.5z M76 222q0 -97 43.5 -152t119.5 -55q79 0 124.5 57t45.5 158q0 97 -43.5 152t-119.5 55q-79 0 -124.5 -57t-45.5 -158z" />
<glyph unicode="&#x1fa;" horiz-adv-x="554" d="M19 0l247 619q-22 6 -37.5 24t-15.5 44q0 30 19.5 49.5t50.5 19.5q33 0 52 -21t19 -49q0 -26 -15.5 -44t-38.5 -23l226 -619h-23q-13 44 -43 124t-33 89h-302l-68 -170l-14 -43h-24zM133 233h287l-136 370h-4zM205 793q93 26 190 62l5 -3l4 -13l-2 -5q-74 -27 -188 -61 l-4 4zM233 687q0 -23 14.5 -36.5t35.5 -13.5t36 13t15 36q0 21 -13.5 35.5t-37.5 14.5q-23 0 -36.5 -13.5t-13.5 -35.5z" />
<glyph unicode="&#x1fb;" horiz-adv-x="442" d="M56 107q0 36 21.5 61t60.5 34l172 40l3 98q0 47 -25.5 72t-73.5 25q-63 0 -137 -65l-6 2l-5 15q77 68 149 68q57 0 87.5 -29.5t30.5 -83.5q0 -12 -5 -135t-5 -136q0 -56 36 -56q24 0 42 15l6 -3l-4 -18q-20 -14 -45 -14q-54 0 -55 76h-3q-64 -75 -131 -78 q-54 0 -83.5 29.5t-29.5 82.5zM76 107q0 -43 24 -67.5t68 -24.5q69 0 136 91l5 115l-166 -39q-67 -16 -67 -75zM131 705q93 26 190 62l5 -3l4 -13l-2 -5q-74 -27 -188 -61l-4 4zM139 599q0 30 19.5 49.5t50.5 19.5q33 0 52 -21t19 -49q0 -31 -21.5 -50t-49.5 -19t-49 19.5 t-21 50.5zM159 599q0 -23 14.5 -36.5t35.5 -13.5t36 13t15 36q0 21 -13.5 35.5t-37.5 14.5q-23 0 -36.5 -13.5t-13.5 -35.5z" />
<glyph unicode="&#x1fc;" horiz-adv-x="791" d="M-15 0l368 637h301l3 -4l-5 -16h-275l51 -304l236 39l3 -3l-3 -17l-233 -38l46 -274h287l2 -4l-4 -16h-304q-7 59 -25.5 164t-21.5 126l-261 -43l-117 -204l-21 -43h-27zM164 270l244 40l-50 292h-3zM431 742q91 44 176 94l5 -2l7 -12l-2 -5q-67 -38 -174 -93l-5 3z" />
<glyph unicode="&#x1fd;" horiz-adv-x="662" d="M51 108q0 75 82 94l171 39v99q0 46 -24.5 71.5t-67.5 25.5q-65 0 -140 -65l-6 2l-5 15q78 68 153 68q52 0 80 -28.5t29 -80.5q55 109 155 109q65 0 103 -41t43 -115l-5 -7l-296 -69q2 -100 41.5 -155t112.5 -55q74 0 127 46l6 -2l-3 -20q-61 -44 -132 -44 q-111 0 -153 111q-47 -59 -82.5 -84.5t-75.5 -26.5q-53 0 -83 31t-30 82zM71 108q0 -41 24.5 -67t67.5 -26q37 0 72 26t80 85q-11 53 -11 94l-166 -38q-67 -16 -67 -74zM288 532q69 58 146 137l5 -1l10 -10l-1 -5q-69 -69 -144 -135l-5 1zM323 246l279 65q-5 58 -38 92 t-84 34q-66 0 -111.5 -51t-45.5 -120v-20z" />
<glyph unicode="&#x1fe;" horiz-adv-x="627" d="M48 317q0 157 70 241t200 84q66 0 117 -23l42 90l16 -3l2 -5l-42 -91q126 -72 126 -281q0 -161 -70 -247.5t-201 -86.5q-72 0 -126 28l-51 -110l-16 3l-2 4l52 113q-117 77 -117 284zM68 317q0 -193 106 -265l253 548q-45 22 -109 22q-121 0 -185.5 -79t-64.5 -226z M191 42q49 -27 117 -27q121 0 186 81.5t65 232.5q0 195 -115 262zM250 742q91 44 176 94l5 -2l7 -12l-2 -5q-67 -38 -174 -93l-5 3z" />
<glyph unicode="&#x1ff;" horiz-adv-x="487" d="M56 222q0 109 50.5 172t139.5 63q46 0 82 -18l40 91l15 -2l2 -5l-41 -93q85 -57 85 -200q0 -109 -50.5 -172t-139.5 -63q-44 0 -80 17l-53 -119l-16 3l-2 4l54 122q-86 55 -86 200zM76 222q0 -129 75 -181l168 379q-32 17 -73 17q-79 0 -124.5 -57t-45.5 -158zM167 31 q34 -16 72 -16q79 0 124.5 57t45.5 158q0 129 -74 181zM194 532q69 58 146 137l5 -1l10 -10l-1 -5q-69 -69 -144 -135l-5 1z" />
<glyph unicode="&#x218;" horiz-adv-x="445" d="M52 43l1 19l5 2q61 -48 145 -48q74 0 120.5 44.5t46.5 101.5q0 45 -31.5 78.5t-76 54.5t-89 43.5t-76 58.5t-31.5 86q0 66 50.5 111.5t129.5 45.5q60 0 122 -29l-4 -18l-7 -1q-55 28 -113 28q-72 0 -115 -43.5t-43 -96.5q0 -43 31.5 -74.5t76 -52.5t89 -43t76 -59.5 t31.5 -88.5q0 -68 -53 -117t-133 -49q-87 0 -152 47zM176 -200l1 3q54 40 54 78q0 20 -30 34v4q5 7 13 11q38 -17 38 -48q0 -42 -66 -93z" />
<glyph unicode="&#x219;" horiz-adv-x="357" d="M45 30l3 17l5 3q47 -35 106 -35q56 0 89.5 30t33.5 71q0 31 -23 53.5t-55.5 37.5t-65 30.5t-55.5 42t-23 63.5q0 49 36.5 80.5t96.5 31.5q46 0 94 -20l-5 -19l-6 -1q-41 20 -84 20q-50 0 -81 -27t-31 -66q0 -31 23 -54t55.5 -38t65 -30.5t55.5 -41t23 -61.5 q0 -51 -40 -86.5t-102 -35.5q-66 0 -115 35zM122 -200l1 3q54 40 54 78q0 20 -30 34v4q5 7 13 11q38 -17 38 -48q0 -42 -66 -93z" />
<glyph unicode="&#x21a;" horiz-adv-x="475" d="M28 621l4 16h412l3 -4l-4 -16h-195v-617h-20v617h-197zM192 -200l1 3q54 40 54 78q0 20 -30 34v4q5 7 13 11q38 -17 38 -48q0 -42 -66 -93z" />
<glyph unicode="&#x21b;" horiz-adv-x="298" d="M40 436l3 16h63v108l16 6l4 -3v-111h155l3 -4l-3 -16h-155v-319q0 -97 74 -97q38 0 78 26l4 -3l-2 -18q-44 -25 -80 -25q-45 0 -69.5 30t-24.5 86v320h-62zM151 -200l1 3q54 40 54 78q0 20 -30 34v4q5 7 13 11q38 -17 38 -48q0 -42 -66 -93z" />
<glyph unicode="&#x237;" horiz-adv-x="222" d="M20 436l3 16h83l20 1l2 -2v-439q0 -78 -19.5 -120.5t-73.5 -83.5l-10 10v6q48 37 65.5 76.5t17.5 107.5v424h-84z" />
<glyph unicode="&#x2c6;" d="M85 532q38 43 101 126h18q63 -83 101 -126l-9 -12h-5q-48 53 -96 117q-48 -64 -96 -117h-5z" />
<glyph unicode="&#x2c7;" d="M85 646l9 12h5q48 -53 96 -117q48 64 96 117h5l9 -12q-38 -43 -101 -126h-18q-63 83 -101 126z" />
<glyph unicode="&#x2c9;" d="M49 590l2 17h287l3 -3l-2 -17h-287z" />
<glyph unicode="&#x2d8;" d="M94 627l13 13h5q13 -98 83 -98t83 98h5l13 -13q-19 -105 -101 -105t-101 105z" />
<glyph unicode="&#x2d9;" horiz-adv-x="232" d="M95 611q0 20 20 20t20 -20t-20 -20t-20 20z" />
<glyph unicode="&#x2da;" d="M123 599q0 30 19.5 49.5t50.5 19.5q33 0 52 -21t19 -49q0 -31 -21.5 -50t-49.5 -19t-49 19.5t-21 50.5zM143 599q0 -23 14.5 -36.5t35.5 -13.5t36 13t15 36q0 21 -13.5 35.5t-37.5 14.5q-23 0 -36.5 -13.5t-13.5 -35.5z" />
<glyph unicode="&#x2db;" d="M126 -132q0 31 20 60l62 92h24l-66 -98q-20 -29 -20 -54q0 -20 12 -32.5t33 -12.5q42 0 81 53h2l11 -16q-44 -57 -94 -57q-29 0 -47 17.5t-18 47.5z" />
<glyph unicode="&#x2dc;" d="M56 575v4l52 47l6 2q18 -2 80.5 -20t75.5 -18q3 0 6.5 2t8.5 6t9.5 8t12 11.5t14.5 13.5h4l9 -11v-4l-52 -47l-6 -2q-18 2 -80.5 20t-75.5 18q-3 0 -6.5 -2t-8.5 -6t-9.5 -8t-12 -11.5t-14.5 -13.5h-4z" />
<glyph unicode="&#x2dd;" d="M49 530q76 67 146 137l5 -1l10 -10l-1 -5q-71 -69 -144 -135l-5 1zM179 530q76 67 146 137l5 -1l10 -10l-1 -5q-71 -69 -144 -135l-5 1z" />
<glyph unicode="&#x303;" horiz-adv-x="0" d="M56 575v4l53 48l6 2q18 -2 80 -20.5t75 -18.5q3 0 6.5 2t8.5 6t9.5 8t12 11.5t14.5 13.5h4l9 -11v-4l-53 -48l-6 -2q-18 2 -80 20.5t-75 18.5q-3 0 -6.5 -2t-8.5 -6t-9.5 -8t-12 -11.5t-14.5 -13.5h-4z" />
<glyph unicode="&#x323;" horiz-adv-x="0" d="M95 -108q0 20 20 20t20 -20t-20 -20t-20 20z" />
<glyph unicode="&#x326;" horiz-adv-x="0" d="M69 -200l1 3q54 40 54 78q0 20 -30 34v4q5 7 13 11q38 -17 38 -48q0 -42 -66 -93z" />
<glyph unicode="&#x394;" horiz-adv-x="554" d="M19 0l254 637h20l233 -637h-507zM47 20h451l-213 583h-5z" />
<glyph unicode="&#x3a9;" horiz-adv-x="733" d="M51 3l4 18l82 -1h121v3q-76 52 -116.5 135t-40.5 187q0 143 69.5 220t198.5 77q127 0 195 -76.5t68 -218.5q0 -104 -40.5 -188t-116.5 -136v-3h126l78 1l3 -4l-4 -18l-82 1h-122l-40 -1l-2 2v16q87 52 133.5 137.5t46.5 192.5q0 133 -63 204t-180 71q-119 0 -183.5 -72 t-64.5 -205q0 -107 46.5 -192t133.5 -136v-16l-2 -2l-40 1h-127l-78 -1z" />
<glyph unicode="&#x3bc;" horiz-adv-x="499" d="M90 -185v634l20 4v-320q0 -56 26.5 -86.5t75.5 -30.5q82 0 163 92v341l20 4v-374q0 -62 36 -62q24 0 42 15l6 -3l-4 -18q-20 -14 -45 -14q-55 0 -55 82h-4q-78 -83 -162 -83q-71 0 -99 54v-235h-20z" />
<glyph unicode="&#x3c0;" horiz-adv-x="580" d="M15 428v5l65 55l15 3h445l3 -4l-4 -16h-124v-392q0 -62 36 -62q24 0 42 15l6 -3l-4 -18q-20 -14 -45 -14q-55 0 -55 82v392h-214v-569h-20v569h-61q-14 0 -72 -52h-6z" />
<glyph unicode="&#x1e80;" horiz-adv-x="884" d="M23 637h23l13 -43l202 -560h4l169 437l-60 166h22l13 -43l202 -560h4l219 560l14 43h23l-249 -637h-20l-156 438h-4l-170 -438h-20zM339 824l7 12l5 2q85 -50 176 -94l-7 -15l-5 -3q-107 55 -174 93z" />
<glyph unicode="&#x1e81;" horiz-adv-x="652" d="M29 450l21 4q23 -83 68.5 -235.5t55.5 -186.5h4q11 32 63 185t79 235h23q22 -83 67 -234t55 -186h4q11 32 63.5 184.5t79.5 235.5h23l-158 -452h-22l-123 416h-4l-142 -416h-22zM248 658l10 10l5 1q77 -79 146 -137l-11 -13l-5 -1q-75 66 -144 135z" />
<glyph unicode="&#x1e82;" horiz-adv-x="884" d="M23 637h23l13 -43l202 -560h4l169 437l-60 166h22l13 -43l202 -560h4l219 560l14 43h23l-249 -637h-20l-156 438h-4l-170 -438h-20zM372 742q91 44 176 94l5 -2l7 -12l-2 -5q-67 -38 -174 -93l-5 3z" />
<glyph unicode="&#x1e83;" horiz-adv-x="652" d="M29 450l21 4q23 -83 68.5 -235.5t55.5 -186.5h4q11 32 63 185t79 235h23q22 -83 67 -234t55 -186h4q11 32 63.5 184.5t79.5 235.5h23l-158 -452h-22l-123 416h-4l-142 -416h-22zM279 532q69 58 146 137l5 -1l10 -10l-1 -5q-69 -69 -144 -135l-5 1z" />
<glyph unicode="&#x1e84;" horiz-adv-x="884" d="M23 637h23l13 -43l202 -560h4l169 437l-60 166h22l13 -43l202 -560h4l219 560l14 43h23l-249 -637h-20l-156 438h-4l-170 -438h-20zM344 780q0 20 20 20t20 -20t-20 -20t-20 20zM484 780q0 20 20 20t20 -20t-20 -20t-20 20z" />
<glyph unicode="&#x1e85;" horiz-adv-x="652" d="M29 450l21 4q23 -83 68.5 -235.5t55.5 -186.5h4q11 32 63 185t79 235h23q22 -83 67 -234t55 -186h4q11 32 63.5 184.5t79.5 235.5h23l-158 -452h-22l-123 416h-4l-142 -416h-22zM238 595q0 9 5.5 14.5t14.5 5.5t14.5 -5.5t5.5 -14.5t-5.5 -14.5t-14.5 -5.5t-14.5 5.5 t-5.5 14.5zM378 595q0 9 5.5 14.5t14.5 5.5t14.5 -5.5t5.5 -14.5t-5.5 -14.5t-14.5 -5.5t-14.5 5.5t-5.5 14.5z" />
<glyph unicode="&#x1e9e;" horiz-adv-x="592" d="M86 0v433q0 93 60 150t157 57q89 0 200 -54l3 -11l-193 -231q235 -25 235 -180q0 -74 -50 -121t-127 -47q-91 0 -158 47l2 19l5 2q61 -48 150 -48q70 0 114 43t44 106q0 141 -240 160l-4 15l196 235q-93 45 -177 45q-89 0 -143 -51t-54 -135v-434h-20z" />
<glyph unicode="&#x1ea0;" horiz-adv-x="554" d="M19 0l254 637h20l233 -637h-23q-13 44 -43 124t-33 89h-302l-68 -170l-14 -43h-24zM133 233h287l-136 370h-4zM255 -108q0 20 20 20t20 -20t-20 -20t-20 20z" />
<glyph unicode="&#x1ea1;" horiz-adv-x="442" d="M56 107q0 36 21.5 61t60.5 34l172 40l3 98q0 47 -25.5 72t-73.5 25q-63 0 -137 -65l-6 2l-5 15q77 68 149 68q57 0 87.5 -29.5t30.5 -83.5q0 -12 -5 -135t-5 -136q0 -56 36 -56q24 0 42 15l6 -3l-4 -18q-20 -14 -45 -14q-54 0 -55 76h-3q-64 -75 -131 -78 q-54 0 -83.5 29.5t-29.5 82.5zM76 107q0 -43 24 -67.5t68 -24.5q69 0 136 91l5 115l-166 -39q-67 -16 -67 -75zM191 -108q0 20 20 20t20 -20t-20 -20t-20 20z" />
<glyph unicode="&#x1ea2;" horiz-adv-x="554" d="M19 0l254 637h20l233 -637h-23q-13 44 -43 124t-33 89h-302l-68 -170l-14 -43h-24zM133 233h287l-136 370h-4zM215 833q34 29 64 29q19 0 31.5 -11t12.5 -27q0 -29 -48 -65l16 -29l-17 -7l-22 41q51 34 51 58q0 20 -26 20t-54 -23z" />
<glyph unicode="&#x1ea3;" horiz-adv-x="442" d="M56 107q0 36 21.5 61t60.5 34l172 40l3 98q0 47 -25.5 72t-73.5 25q-63 0 -137 -65l-6 2l-5 15q77 68 149 68q57 0 87.5 -29.5t30.5 -83.5q0 -12 -5 -135t-5 -136q0 -56 36 -56q24 0 42 15l6 -3l-4 -18q-20 -14 -45 -14q-54 0 -55 76h-3q-64 -75 -131 -78 q-54 0 -83.5 29.5t-29.5 82.5zM76 107q0 -43 24 -67.5t68 -24.5q69 0 136 91l5 115l-166 -39q-67 -16 -67 -75zM149 648q34 29 64 29q19 0 31.5 -11t12.5 -27q0 -29 -48 -65l16 -29l-17 -7l-22 41q51 34 51 58q0 20 -26 20t-54 -23z" />
<glyph unicode="&#x1ea4;" horiz-adv-x="554" d="M19 0l254 637h20l233 -637h-23q-13 44 -43 124t-33 89h-302l-68 -170l-14 -43h-24zM133 233h287l-136 370h-4zM170 732q47 33 98 76h16q66 -52 100 -76l-7 -14h-5q-46 32 -95 70q-49 -38 -95 -70h-5zM327 815l70 80l5 -1l11 -9l-1 -5l-68 -76h-6z" />
<glyph unicode="&#x1ea5;" horiz-adv-x="442" d="M56 107q0 36 21.5 61t60.5 34l172 40l3 98q0 47 -25.5 72t-73.5 25q-63 0 -137 -65l-6 2l-5 15q77 68 149 68q57 0 87.5 -29.5t30.5 -83.5q0 -12 -5 -135t-5 -136q0 -56 36 -56q24 0 42 15l6 -3l-4 -18q-20 -14 -45 -14q-54 0 -55 76h-3q-64 -75 -131 -78 q-54 0 -83.5 29.5t-29.5 82.5zM76 107q0 -43 24 -67.5t68 -24.5q69 0 136 91l5 115l-166 -39q-67 -16 -67 -75zM104 547q47 33 98 76h16q66 -52 100 -76l-7 -14h-5q-46 32 -95 70q-49 -38 -95 -70h-5zM261 630l70 80l5 -1l11 -9l-1 -5l-68 -76h-6z" />
<glyph unicode="&#x1ea6;" horiz-adv-x="554" d="M19 0l254 637h20l233 -637h-23q-13 44 -43 124t-33 89h-302l-68 -170l-14 -43h-24zM133 233h287l-136 370h-4zM170 732q47 33 98 76h16q66 -52 100 -76l-7 -14h-5q-46 32 -95 70q-49 -38 -95 -70h-5zM303 885l11 9l5 1l70 -80l-11 -11h-6l-68 76z" />
<glyph unicode="&#x1ea7;" horiz-adv-x="442" d="M56 107q0 36 21.5 61t60.5 34l172 40l3 98q0 47 -25.5 72t-73.5 25q-63 0 -137 -65l-6 2l-5 15q77 68 149 68q57 0 87.5 -29.5t30.5 -83.5q0 -12 -5 -135t-5 -136q0 -56 36 -56q24 0 42 15l6 -3l-4 -18q-20 -14 -45 -14q-54 0 -55 76h-3q-64 -75 -131 -78 q-54 0 -83.5 29.5t-29.5 82.5zM76 107q0 -43 24 -67.5t68 -24.5q69 0 136 91l5 115l-166 -39q-67 -16 -67 -75zM104 547q47 33 98 76h16q66 -52 100 -76l-7 -14h-5q-46 32 -95 70q-49 -38 -95 -70h-5zM237 700l11 9l5 1l70 -80l-11 -11h-6l-68 76z" />
<glyph unicode="&#x1ea8;" horiz-adv-x="554" d="M19 0l254 637h20l233 -637h-23q-13 44 -43 124t-33 89h-302l-68 -170l-14 -43h-24zM133 233h287l-136 370h-4zM170 732q47 33 98 76h16q66 -52 100 -76l-7 -14h-5q-46 32 -95 70q-49 -38 -95 -70h-5zM303 894q33 28 61 28q18 0 29.5 -11t11.5 -26q0 -28 -45 -62l15 -27 l-16 -7l-21 39q48 33 48 55q0 19 -24 19q-27 0 -52 -21z" />
<glyph unicode="&#x1ea9;" horiz-adv-x="442" d="M56 107q0 36 21.5 61t60.5 34l172 40l3 98q0 47 -25.5 72t-73.5 25q-63 0 -137 -65l-6 2l-5 15q77 68 149 68q57 0 87.5 -29.5t30.5 -83.5q0 -12 -5 -135t-5 -136q0 -56 36 -56q24 0 42 15l6 -3l-4 -18q-20 -14 -45 -14q-54 0 -55 76h-3q-64 -75 -131 -78 q-54 0 -83.5 29.5t-29.5 82.5zM76 107q0 -43 24 -67.5t68 -24.5q69 0 136 91l5 115l-166 -39q-67 -16 -67 -75zM104 547q47 33 98 76h16q66 -52 100 -76l-7 -14h-5q-46 32 -95 70q-49 -38 -95 -70h-5zM237 709q33 28 61 28q18 0 29.5 -11t11.5 -26q0 -28 -45 -62l15 -27 l-16 -7l-21 39q48 33 48 55q0 19 -24 19q-26 0 -52 -21z" />
<glyph unicode="&#x1eaa;" horiz-adv-x="554" d="M19 0l254 637h20l233 -637h-23q-13 44 -43 124t-33 89h-302l-68 -170l-14 -43h-24zM133 233h287l-136 370h-4zM148 850v4l50 47l6 2q17 -2 76.5 -20t71.5 -18q5 0 10.5 4t18 17t20.5 20h3l9 -11v-4l-50 -47l-5 -2q-17 2 -77 20t-72 18q-3 0 -6.5 -2t-8 -6t-8.5 -8 l-11.5 -11.5l-13.5 -13.5h-4zM170 732q47 33 98 76h16q66 -52 100 -76l-7 -14h-5q-46 32 -95 70q-49 -38 -95 -70h-5z" />
<glyph unicode="&#x1eab;" horiz-adv-x="442" d="M56 107q0 36 21.5 61t60.5 34l172 40l3 98q0 47 -25.5 72t-73.5 25q-63 0 -137 -65l-6 2l-5 15q77 68 149 68q57 0 87.5 -29.5t30.5 -83.5q0 -12 -5 -135t-5 -136q0 -56 36 -56q24 0 42 15l6 -3l-4 -18q-20 -14 -45 -14q-54 0 -55 76h-3q-64 -75 -131 -78 q-54 0 -83.5 29.5t-29.5 82.5zM76 107q0 -43 24 -67.5t68 -24.5q69 0 136 91l5 115l-166 -39q-67 -16 -67 -75zM82 665v4l50 47l6 2q17 -2 76.5 -20t71.5 -18q5 0 10.5 4t18 17t20.5 20h3l9 -11v-4l-50 -47l-5 -2q-17 2 -77 20t-72 18q-3 0 -6.5 -2t-8 -6t-8.5 -8 l-11.5 -11.5l-13.5 -13.5h-4zM104 547q47 33 98 76h16q66 -52 100 -76l-7 -14h-5q-46 32 -95 70q-49 -38 -95 -70h-5z" />
<glyph unicode="&#x1eac;" horiz-adv-x="554" d="M19 0l254 637h20l233 -637h-23q-13 44 -43 124t-33 89h-302l-68 -170l-14 -43h-24zM133 233h287l-136 370h-4zM170 752q47 33 98 76h16q66 -52 100 -76l-7 -14h-5q-46 32 -95 70q-49 -38 -95 -70h-5zM255 -108q0 20 20 20t20 -20t-20 -20t-20 20z" />
<glyph unicode="&#x1ead;" horiz-adv-x="442" d="M56 107q0 36 21.5 61t60.5 34l172 40l3 98q0 47 -25.5 72t-73.5 25q-63 0 -137 -65l-6 2l-5 15q77 68 149 68q57 0 87.5 -29.5t30.5 -83.5q0 -12 -5 -135t-5 -136q0 -56 36 -56q24 0 42 15l6 -3l-4 -18q-20 -14 -45 -14q-54 0 -55 76h-3q-64 -75 -131 -78 q-54 0 -83.5 29.5t-29.5 82.5zM76 107q0 -43 24 -67.5t68 -24.5q69 0 136 91l5 115l-166 -39q-67 -16 -67 -75zM101 532q38 43 101 126h18q63 -83 101 -126l-9 -12h-5q-48 53 -96 117q-48 -64 -96 -117h-5zM191 -108q0 20 20 20t20 -20t-20 -20t-20 20z" />
<glyph unicode="&#x1eae;" horiz-adv-x="554" d="M19 0l254 637h20l233 -637h-23q-13 44 -43 124t-33 89h-302l-68 -170l-14 -43h-24zM133 233h287l-136 370h-4zM176 782l13 11h5q15 -65 82 -65t84 65h5l13 -11q-23 -74 -102 -74q-78 0 -100 74zM248 806q26 27 83 90h5l11 -10l-1 -5q-15 -17 -81 -88l-5 1z" />
<glyph unicode="&#x1eaf;" horiz-adv-x="442" d="M56 107q0 36 21.5 61t60.5 34l172 40l3 98q0 47 -25.5 72t-73.5 25q-63 0 -137 -65l-6 2l-5 15q77 68 149 68q57 0 87.5 -29.5t30.5 -83.5q0 -12 -5 -135t-5 -136q0 -56 36 -56q24 0 42 15l6 -3l-4 -18q-20 -14 -45 -14q-54 0 -55 76h-3q-64 -75 -131 -78 q-54 0 -83.5 29.5t-29.5 82.5zM76 107q0 -43 24 -67.5t68 -24.5q69 0 136 91l5 115l-166 -39q-67 -16 -67 -75zM110 597l13 11h5q15 -65 82 -65t84 65h5l13 -11q-23 -74 -102 -74q-78 0 -100 74zM182 621q26 27 83 90h5l11 -10l-1 -5q-15 -17 -81 -88l-5 1z" />
<glyph unicode="&#x1eb0;" horiz-adv-x="554" d="M19 0l254 637h20l233 -637h-23q-13 44 -43 124t-33 89h-302l-68 -170l-14 -43h-24zM133 233h287l-136 370h-4zM176 782l13 11h5q15 -65 82 -65t84 65h5l13 -11q-23 -74 -102 -74q-78 0 -100 74zM202 886l11 10h5q57 -63 83 -90l-12 -12l-5 -1q-66 71 -81 88z" />
<glyph unicode="&#x1eb1;" horiz-adv-x="442" d="M56 107q0 36 21.5 61t60.5 34l172 40l3 98q0 47 -25.5 72t-73.5 25q-63 0 -137 -65l-6 2l-5 15q77 68 149 68q57 0 87.5 -29.5t30.5 -83.5q0 -12 -5 -135t-5 -136q0 -56 36 -56q24 0 42 15l6 -3l-4 -18q-20 -14 -45 -14q-54 0 -55 76h-3q-64 -75 -131 -78 q-54 0 -83.5 29.5t-29.5 82.5zM76 107q0 -43 24 -67.5t68 -24.5q69 0 136 91l5 115l-166 -39q-67 -16 -67 -75zM110 597l13 11h5q15 -65 82 -65t84 65h5l13 -11q-23 -74 -102 -74q-78 0 -100 74zM136 701l11 10h5q57 -63 83 -90l-12 -12l-5 -1q-66 71 -81 88z" />
<glyph unicode="&#x1eb2;" horiz-adv-x="554" d="M19 0l254 637h20l233 -637h-23q-13 44 -43 124t-33 89h-302l-68 -170l-14 -43h-24zM133 233h287l-136 370h-4zM176 782l13 11h5q15 -65 82 -65t84 65h5l13 -11q-23 -74 -102 -74q-78 0 -100 74zM219 903q34 29 64 29q19 0 31.5 -11t12.5 -27q0 -29 -48 -65l16 -29l-17 -7 l-22 41q51 34 51 58q0 20 -26 20t-54 -23z" />
<glyph unicode="&#x1eb3;" horiz-adv-x="442" d="M56 107q0 36 21.5 61t60.5 34l172 40l3 98q0 47 -25.5 72t-73.5 25q-63 0 -137 -65l-6 2l-5 15q77 68 149 68q57 0 87.5 -29.5t30.5 -83.5q0 -12 -5 -135t-5 -136q0 -56 36 -56q24 0 42 15l6 -3l-4 -18q-20 -14 -45 -14q-54 0 -55 76h-3q-64 -75 -131 -78 q-54 0 -83.5 29.5t-29.5 82.5zM76 107q0 -43 24 -67.5t68 -24.5q69 0 136 91l5 115l-166 -39q-67 -16 -67 -75zM110 597l13 11h5q15 -65 82 -65t84 65h5l13 -11q-23 -74 -102 -74q-78 0 -100 74zM153 718q34 29 64 29q19 0 31.5 -11t12.5 -27q0 -29 -48 -65l16 -29l-17 -7 l-22 41q51 34 51 58q0 20 -26 20t-54 -23z" />
<glyph unicode="&#x1eb4;" horiz-adv-x="554" d="M19 0l254 637h20l233 -637h-23q-13 44 -43 124t-33 89h-302l-68 -170l-14 -43h-24zM133 233h287l-136 370h-4zM148 850v4l50 47l6 2q17 -2 76.5 -20t71.5 -18q5 0 10.5 4t18 17t20.5 20h3l9 -11v-4l-50 -47l-5 -2q-17 2 -77 20t-72 18q-3 0 -6.5 -2t-8 -6t-8.5 -8 l-11.5 -11.5l-13.5 -13.5h-4zM176 782l13 11h5q15 -65 82 -65t84 65h5l13 -11q-23 -74 -102 -74q-78 0 -100 74z" />
<glyph unicode="&#x1eb5;" horiz-adv-x="442" d="M56 107q0 36 21.5 61t60.5 34l172 40l3 98q0 47 -25.5 72t-73.5 25q-63 0 -137 -65l-6 2l-5 15q77 68 149 68q57 0 87.5 -29.5t30.5 -83.5q0 -12 -5 -135t-5 -136q0 -56 36 -56q24 0 42 15l6 -3l-4 -18q-20 -14 -45 -14q-54 0 -55 76h-3q-64 -75 -131 -78 q-54 0 -83.5 29.5t-29.5 82.5zM76 107q0 -43 24 -67.5t68 -24.5q69 0 136 91l5 115l-166 -39q-67 -16 -67 -75zM82 665v4l50 47l6 2q17 -2 76.5 -20t71.5 -18q5 0 10.5 4t18 17t20.5 20h3l9 -11v-4l-50 -47l-5 -2q-17 2 -77 20t-72 18q-3 0 -6.5 -2t-8 -6t-8.5 -8 l-11.5 -11.5l-13.5 -13.5h-4zM110 597l13 11h5q15 -65 82 -65t84 65h5l13 -11q-23 -74 -102 -74q-78 0 -100 74z" />
<glyph unicode="&#x1eb6;" horiz-adv-x="554" d="M19 0l254 637h20l233 -637h-23q-13 44 -43 124t-33 89h-302l-68 -170l-14 -43h-24zM133 233h287l-136 370h-4zM176 802l13 11h5q15 -65 82 -65t84 65h5l13 -11q-23 -74 -102 -74q-78 0 -100 74zM255 -108q0 20 20 20t20 -20t-20 -20t-20 20z" />
<glyph unicode="&#x1eb7;" horiz-adv-x="442" d="M56 107q0 36 21.5 61t60.5 34l172 40l3 98q0 47 -25.5 72t-73.5 25q-63 0 -137 -65l-6 2l-5 15q77 68 149 68q57 0 87.5 -29.5t30.5 -83.5q0 -12 -5 -135t-5 -136q0 -56 36 -56q24 0 42 15l6 -3l-4 -18q-20 -14 -45 -14q-54 0 -55 76h-3q-64 -75 -131 -78 q-54 0 -83.5 29.5t-29.5 82.5zM76 107q0 -43 24 -67.5t68 -24.5q69 0 136 91l5 115l-166 -39q-67 -16 -67 -75zM120 627l13 13h5q13 -98 83 -98t83 98h5l13 -13q-19 -105 -101 -105t-101 105zM191 -108q0 20 20 20t20 -20t-20 -20t-20 20z" />
<glyph unicode="&#x1eb8;" horiz-adv-x="454" d="M110 0v637h308l3 -4l-4 -16h-287v-277h238l3 -4l-4 -16h-237v-300h292l3 -4l-4 -16h-311zM247 -108q0 20 20 20t20 -20t-20 -20t-20 20z" />
<glyph unicode="&#x1eb9;" horiz-adv-x="433" d="M56 221q0 108 50.5 172t135.5 64q68 0 107.5 -43t39.5 -118q0 -11 -2 -27l-6 -7l-304 -10q-1 -10 -1 -31q0 -94 43 -150t119 -56q74 0 123 46l6 -2l-3 -20q-57 -44 -128 -44q-83 0 -131.5 61.5t-48.5 164.5zM80 272l288 10l1 14q0 66 -34.5 103.5t-93.5 37.5 q-64 0 -107 -44t-54 -121zM211 -108q0 20 20 20t20 -20t-20 -20t-20 20z" />
<glyph unicode="&#x1eba;" horiz-adv-x="454" d="M110 0v637h308l3 -4l-4 -16h-287v-277h238l3 -4l-4 -16h-237v-300h292l3 -4l-4 -16h-311zM204 833q34 29 64 29q19 0 31.5 -11t12.5 -27q0 -29 -48 -65l16 -29l-17 -7l-22 41q51 34 51 58q0 20 -26 20t-54 -23z" />
<glyph unicode="&#x1ebb;" horiz-adv-x="433" d="M56 221q0 108 50.5 172t135.5 64q68 0 107.5 -43t39.5 -118q0 -11 -2 -27l-6 -7l-304 -10q-1 -10 -1 -31q0 -94 43 -150t119 -56q74 0 123 46l6 -2l-3 -20q-57 -44 -128 -44q-83 0 -131.5 61.5t-48.5 164.5zM80 272l288 10l1 14q0 66 -34.5 103.5t-93.5 37.5 q-64 0 -107 -44t-54 -121zM168 648q34 29 64 29q19 0 31.5 -11t12.5 -27q0 -29 -48 -65l16 -29l-17 -7l-22 41q51 34 51 58q0 20 -26 20t-54 -23z" />
<glyph unicode="&#x1ebe;" horiz-adv-x="454" d="M110 0v637h308l3 -4l-4 -16h-287v-277h238l3 -4l-4 -16h-237v-300h292l3 -4l-4 -16h-311zM159 732q47 33 98 76h16q66 -52 100 -76l-7 -14h-5q-46 32 -95 70q-49 -38 -95 -70h-5zM316 815l70 80l5 -1l11 -9l-1 -5l-68 -76h-6z" />
<glyph unicode="&#x1ebf;" horiz-adv-x="433" d="M56 221q0 108 50.5 172t135.5 64q68 0 107.5 -43t39.5 -118q0 -11 -2 -27l-6 -7l-304 -10q-1 -10 -1 -31q0 -94 43 -150t119 -56q74 0 123 46l6 -2l-3 -20q-57 -44 -128 -44q-83 0 -131.5 61.5t-48.5 164.5zM80 272l288 10l1 14q0 66 -34.5 103.5t-93.5 37.5 q-64 0 -107 -44t-54 -121zM123 547q47 33 98 76h16q66 -52 100 -76l-7 -14h-5q-46 32 -95 70q-49 -38 -95 -70h-5zM280 630l70 80l5 -1l11 -9l-1 -5l-68 -76h-6z" />
<glyph unicode="&#x1ec0;" horiz-adv-x="454" d="M110 0v637h308l3 -4l-4 -16h-287v-277h238l3 -4l-4 -16h-237v-300h292l3 -4l-4 -16h-311zM159 732q47 33 98 76h16q66 -52 100 -76l-7 -14h-5q-46 32 -95 70q-49 -38 -95 -70h-5zM292 885l11 9l5 1l70 -80l-11 -11h-6l-68 76z" />
<glyph unicode="&#x1ec1;" horiz-adv-x="433" d="M56 221q0 108 50.5 172t135.5 64q68 0 107.5 -43t39.5 -118q0 -11 -2 -27l-6 -7l-304 -10q-1 -10 -1 -31q0 -94 43 -150t119 -56q74 0 123 46l6 -2l-3 -20q-57 -44 -128 -44q-83 0 -131.5 61.5t-48.5 164.5zM80 272l288 10l1 14q0 66 -34.5 103.5t-93.5 37.5 q-64 0 -107 -44t-54 -121zM123 547q47 33 98 76h16q66 -52 100 -76l-7 -14h-5q-46 32 -95 70q-49 -38 -95 -70h-5zM256 700l11 9l5 1l70 -80l-11 -11h-6l-68 76z" />
<glyph unicode="&#x1ec2;" horiz-adv-x="454" d="M110 0v637h308l3 -4l-4 -16h-287v-277h238l3 -4l-4 -16h-237v-300h292l3 -4l-4 -16h-311zM159 732q47 33 98 76h16q66 -52 100 -76l-7 -14h-5q-46 32 -95 70q-49 -38 -95 -70h-5zM292 894q33 28 61 28q18 0 29.5 -11t11.5 -26q0 -28 -45 -62l15 -27l-16 -7l-21 39 q48 33 48 55q0 19 -24 19q-26 0 -52 -21z" />
<glyph unicode="&#x1ec3;" horiz-adv-x="433" d="M56 221q0 108 50.5 172t135.5 64q68 0 107.5 -43t39.5 -118q0 -11 -2 -27l-6 -7l-304 -10q-1 -10 -1 -31q0 -94 43 -150t119 -56q74 0 123 46l6 -2l-3 -20q-57 -44 -128 -44q-83 0 -131.5 61.5t-48.5 164.5zM80 272l288 10l1 14q0 66 -34.5 103.5t-93.5 37.5 q-64 0 -107 -44t-54 -121zM123 547q47 33 98 76h16q66 -52 100 -76l-7 -14h-5q-46 32 -95 70q-49 -38 -95 -70h-5zM256 709q33 28 61 28q18 0 29.5 -11t11.5 -26q0 -28 -45 -62l15 -27l-16 -7l-21 39q48 33 48 55q0 19 -24 19q-27 0 -52 -21z" />
<glyph unicode="&#x1ec4;" horiz-adv-x="454" d="M110 0v637h308l3 -4l-4 -16h-287v-277h238l3 -4l-4 -16h-237v-300h292l3 -4l-4 -16h-311zM159 732q47 33 98 76h16q66 -52 100 -76l-7 -14h-5q-46 32 -95 70q-49 -38 -95 -70h-5zM292 885l11 9l5 1l70 -80l-11 -11h-6l-68 76z" />
<glyph unicode="&#x1ec5;" horiz-adv-x="433" d="M56 221q0 108 50.5 172t135.5 64q68 0 107.5 -43t39.5 -118q0 -11 -2 -27l-6 -7l-304 -10q-1 -10 -1 -31q0 -94 43 -150t119 -56q74 0 123 46l6 -2l-3 -20q-57 -44 -128 -44q-83 0 -131.5 61.5t-48.5 164.5zM80 272l288 10l1 14q0 66 -34.5 103.5t-93.5 37.5 q-64 0 -107 -44t-54 -121zM101 665v4l50 47l6 2q17 -2 76.5 -20t71.5 -18q5 0 10.5 4t18 17t20.5 20h3l9 -11v-4l-50 -47l-5 -2q-17 2 -77 20t-72 18q-3 0 -6.5 -2t-8 -6t-8.5 -8l-11.5 -11.5l-13.5 -13.5h-4zM123 547q47 33 98 76h16q66 -52 100 -76l-7 -14h-5 q-46 32 -95 70q-49 -38 -95 -70h-5z" />
<glyph unicode="&#x1ec6;" horiz-adv-x="454" d="M110 0v637h308l3 -4l-4 -16h-287v-277h238l3 -4l-4 -16h-237v-300h292l3 -4l-4 -16h-311zM159 752q47 33 98 76h16q66 -52 100 -76l-7 -14h-5q-46 32 -95 70q-49 -38 -95 -70h-5zM247 -108q0 20 20 20t20 -20t-20 -20t-20 20z" />
<glyph unicode="&#x1ec7;" horiz-adv-x="433" d="M56 221q0 108 50.5 172t135.5 64q68 0 107.5 -43t39.5 -118q0 -11 -2 -27l-6 -7l-304 -10q-1 -10 -1 -31q0 -94 43 -150t119 -56q74 0 123 46l6 -2l-3 -20q-57 -44 -128 -44q-83 0 -131.5 61.5t-48.5 164.5zM80 272l288 10l1 14q0 66 -34.5 103.5t-93.5 37.5 q-64 0 -107 -44t-54 -121zM120 532q38 43 101 126h18q63 -83 101 -126l-9 -12h-5q-48 53 -96 117q-48 -64 -96 -117h-5zM211 -108q0 20 20 20t20 -20t-20 -20t-20 20z" />
<glyph unicode="&#x1ec8;" horiz-adv-x="240" d="M58 833q34 29 64 29q19 0 31.5 -11t12.5 -27q0 -29 -48 -65l16 -29l-17 -7l-22 41q51 34 51 58q0 20 -26 20t-54 -23zM110 0v637h20v-637h-20z" />
<glyph unicode="&#x1ec9;" horiz-adv-x="222" d="M49 648q34 29 64 29q19 0 31.5 -11t12.5 -27q0 -29 -48 -65l16 -29l-17 -7l-22 41q51 34 51 58q0 20 -26 20t-54 -23zM101 0v449l20 4v-453h-20z" />
<glyph unicode="&#x1eca;" horiz-adv-x="240" d="M95 -108q0 20 20 20t20 -20t-20 -20t-20 20zM110 0v637h20v-637h-20z" />
<glyph unicode="&#x1ecb;" horiz-adv-x="222" d="M91 -108q0 20 20 20t20 -20t-20 -20t-20 20zM91 611q0 20 20 20t20 -20t-20 -20t-20 20zM101 0v449l20 4v-453h-20z" />
<glyph unicode="&#x1ecc;" horiz-adv-x="627" d="M48 317q0 157 70 241t200 84q126 0 193.5 -81t67.5 -232q0 -161 -70 -247.5t-201 -86.5q-125 0 -192.5 83.5t-67.5 238.5zM68 317q0 -145 62 -223.5t178 -78.5q121 0 186 81.5t65 232.5q0 141 -62.5 217t-178.5 76q-121 0 -185.5 -79t-64.5 -226zM290 -108q0 20 20 20 t20 -20t-20 -20t-20 20z" />
<glyph unicode="&#x1ecd;" horiz-adv-x="487" d="M56 222q0 109 50.5 172t139.5 63q85 0 134 -60.5t49 -166.5q0 -109 -50.5 -172t-139.5 -63q-85 0 -134 60.5t-49 166.5zM76 222q0 -97 43.5 -152t119.5 -55q79 0 124.5 57t45.5 158q0 97 -43.5 152t-119.5 55q-79 0 -124.5 -57t-45.5 -158zM231 -108q0 20 20 20t20 -20 t-20 -20t-20 20z" />
<glyph unicode="&#x1ece;" horiz-adv-x="627" d="M48 317q0 157 70 241t200 84q126 0 193.5 -81t67.5 -232q0 -161 -70 -247.5t-201 -86.5q-125 0 -192.5 83.5t-67.5 238.5zM68 317q0 -145 62 -223.5t178 -78.5q121 0 186 81.5t65 232.5q0 141 -62.5 217t-178.5 76q-121 0 -185.5 -79t-64.5 -226zM252 833q34 29 64 29 q19 0 31.5 -11t12.5 -27q0 -29 -48 -65l16 -29l-17 -7l-22 41q51 34 51 58q0 20 -26 20t-54 -23z" />
<glyph unicode="&#x1ecf;" horiz-adv-x="487" d="M56 222q0 109 50.5 172t139.5 63q85 0 134 -60.5t49 -166.5q0 -109 -50.5 -172t-139.5 -63q-85 0 -134 60.5t-49 166.5zM76 222q0 -97 43.5 -152t119.5 -55q79 0 124.5 57t45.5 158q0 97 -43.5 152t-119.5 55q-79 0 -124.5 -57t-45.5 -158zM181 648q34 29 64 29 q19 0 31.5 -11t12.5 -27q0 -29 -48 -65l16 -29l-17 -7l-22 41q51 34 51 58q0 20 -26 20t-54 -23z" />
<glyph unicode="&#x1ed0;" horiz-adv-x="627" d="M48 317q0 157 70 241t200 84q126 0 193.5 -81t67.5 -232q0 -161 -70 -247.5t-201 -86.5q-125 0 -192.5 83.5t-67.5 238.5zM68 317q0 -145 62 -223.5t178 -78.5q121 0 186 81.5t65 232.5q0 141 -62.5 217t-178.5 76q-121 0 -185.5 -79t-64.5 -226zM207 732q47 33 98 76h16 q66 -52 100 -76l-7 -14h-5q-46 32 -95 70q-49 -38 -95 -70h-5zM364 815l70 80l5 -1l11 -9l-1 -5l-68 -76h-6z" />
<glyph unicode="&#x1ed1;" horiz-adv-x="487" d="M56 222q0 109 50.5 172t139.5 63q85 0 134 -60.5t49 -166.5q0 -109 -50.5 -172t-139.5 -63q-85 0 -134 60.5t-49 166.5zM76 222q0 -97 43.5 -152t119.5 -55q79 0 124.5 57t45.5 158q0 97 -43.5 152t-119.5 55q-79 0 -124.5 -57t-45.5 -158zM136 547q47 33 98 76h16 q66 -52 100 -76l-7 -14h-5q-46 32 -95 70q-49 -38 -95 -70h-5zM293 630l70 80l5 -1l11 -9l-1 -5l-68 -76h-6z" />
<glyph unicode="&#x1ed2;" horiz-adv-x="627" d="M48 317q0 157 70 241t200 84q126 0 193.5 -81t67.5 -232q0 -161 -70 -247.5t-201 -86.5q-125 0 -192.5 83.5t-67.5 238.5zM68 317q0 -145 62 -223.5t178 -78.5q121 0 186 81.5t65 232.5q0 141 -62.5 217t-178.5 76q-121 0 -185.5 -79t-64.5 -226zM207 732q47 33 98 76h16 q66 -52 100 -76l-7 -14h-5q-46 32 -95 70q-49 -38 -95 -70h-5zM340 885l11 9l5 1l70 -80l-11 -11h-6l-68 76z" />
<glyph unicode="&#x1ed3;" horiz-adv-x="487" d="M56 222q0 109 50.5 172t139.5 63q85 0 134 -60.5t49 -166.5q0 -109 -50.5 -172t-139.5 -63q-85 0 -134 60.5t-49 166.5zM76 222q0 -97 43.5 -152t119.5 -55q79 0 124.5 57t45.5 158q0 97 -43.5 152t-119.5 55q-79 0 -124.5 -57t-45.5 -158zM136 547q47 33 98 76h16 q66 -52 100 -76l-7 -14h-5q-46 32 -95 70q-49 -38 -95 -70h-5zM269 700l11 9l5 1l70 -80l-11 -11h-6l-68 76z" />
<glyph unicode="&#x1ed4;" horiz-adv-x="627" d="M48 317q0 157 70 241t200 84q126 0 193.5 -81t67.5 -232q0 -161 -70 -247.5t-201 -86.5q-125 0 -192.5 83.5t-67.5 238.5zM68 317q0 -145 62 -223.5t178 -78.5q121 0 186 81.5t65 232.5q0 141 -62.5 217t-178.5 76q-121 0 -185.5 -79t-64.5 -226zM207 732q47 33 98 76h16 q66 -52 100 -76l-7 -14h-5q-46 32 -95 70q-49 -38 -95 -70h-5zM340 894q33 28 61 28q18 0 29.5 -11t11.5 -26q0 -28 -45 -62l15 -27l-16 -7l-21 39q48 33 48 55q0 19 -24 19q-27 0 -52 -21z" />
<glyph unicode="&#x1ed5;" horiz-adv-x="487" d="M56 222q0 109 50.5 172t139.5 63q85 0 134 -60.5t49 -166.5q0 -109 -50.5 -172t-139.5 -63q-85 0 -134 60.5t-49 166.5zM76 222q0 -97 43.5 -152t119.5 -55q79 0 124.5 57t45.5 158q0 97 -43.5 152t-119.5 55q-79 0 -124.5 -57t-45.5 -158zM136 547q47 33 98 76h16 q66 -52 100 -76l-7 -14h-5q-46 32 -95 70q-49 -38 -95 -70h-5zM269 709q33 28 61 28q18 0 29.5 -11t11.5 -26q0 -28 -45 -62l15 -27l-16 -7l-21 39q48 33 48 55q0 19 -24 19q-26 0 -52 -21z" />
<glyph unicode="&#x1ed6;" horiz-adv-x="627" d="M48 317q0 157 70 241t200 84q126 0 193.5 -81t67.5 -232q0 -161 -70 -247.5t-201 -86.5q-125 0 -192.5 83.5t-67.5 238.5zM68 317q0 -145 62 -223.5t178 -78.5q121 0 186 81.5t65 232.5q0 141 -62.5 217t-178.5 76q-121 0 -185.5 -79t-64.5 -226zM185 850v4l50 47l6 2 q17 -2 76.5 -20t71.5 -18q5 0 10.5 4t18 17t20.5 20h3l9 -11v-4l-50 -47l-5 -2q-17 2 -77 20t-72 18q-3 0 -6.5 -2t-8 -6t-8.5 -8l-11.5 -11.5l-13.5 -13.5h-4zM207 732q47 33 98 76h16q66 -52 100 -76l-7 -14h-5q-46 32 -95 70q-49 -38 -95 -70h-5z" />
<glyph unicode="&#x1ed7;" horiz-adv-x="487" d="M56 222q0 109 50.5 172t139.5 63q85 0 134 -60.5t49 -166.5q0 -109 -50.5 -172t-139.5 -63q-85 0 -134 60.5t-49 166.5zM76 222q0 -97 43.5 -152t119.5 -55q79 0 124.5 57t45.5 158q0 97 -43.5 152t-119.5 55q-79 0 -124.5 -57t-45.5 -158zM114 665v4l50 47l6 2 q17 -2 76.5 -20t71.5 -18q5 0 10.5 4t18 17t20.5 20h3l9 -11v-4l-50 -47l-5 -2q-17 2 -77 20t-72 18q-3 0 -6.5 -2t-8 -6t-8.5 -8l-11.5 -11.5l-13.5 -13.5h-4zM136 547q47 33 98 76h16q66 -52 100 -76l-7 -14h-5q-46 32 -95 70q-49 -38 -95 -70h-5z" />
<glyph unicode="&#x1ed8;" horiz-adv-x="627" d="M48 317q0 157 70 241t200 84q126 0 193.5 -81t67.5 -232q0 -161 -70 -247.5t-201 -86.5q-125 0 -192.5 83.5t-67.5 238.5zM68 317q0 -145 62 -223.5t178 -78.5q121 0 186 81.5t65 232.5q0 141 -62.5 217t-178.5 76q-121 0 -185.5 -79t-64.5 -226zM222 742q47 33 98 76h16 q66 -52 100 -76l-7 -14h-5q-46 32 -95 70q-49 -38 -95 -70h-5zM290 -108q0 20 20 20t20 -20t-20 -20t-20 20z" />
<glyph unicode="&#x1ed9;" horiz-adv-x="487" d="M56 222q0 109 50.5 172t139.5 63q85 0 134 -60.5t49 -166.5q0 -109 -50.5 -172t-139.5 -63q-85 0 -134 60.5t-49 166.5zM76 222q0 -97 43.5 -152t119.5 -55q79 0 124.5 57t45.5 158q0 97 -43.5 152t-119.5 55q-79 0 -124.5 -57t-45.5 -158zM133 532q38 43 101 126h18 q63 -83 101 -126l-9 -12h-5q-48 53 -96 117q-48 -64 -96 -117h-5zM231 -108q0 20 20 20t20 -20t-20 -20t-20 20z" />
<glyph unicode="&#x1eda;" horiz-adv-x="630" d="M48 317q0 157 70 241t203 84q54 0 104 -18.5t69 -18.5q34 0 59 17.5t25 48.5q0 36 -34 72l2 5q8 5 13 5q11 0 25 -23.5t14 -54.5q0 -44 -32.5 -67t-83.5 -21q97 -81 97 -262q0 -157 -70.5 -243.5t-199.5 -86.5q-126 0 -193.5 83.5t-67.5 238.5zM68 316q0 -145 62.5 -223 t178.5 -78q120 0 185 81.5t65 229.5q0 144 -62.5 220t-179.5 76q-120 0 -184.5 -79t-64.5 -227zM252 742q91 44 176 94l5 -2l7 -12l-2 -5q-67 -38 -174 -93l-5 3z" />
<glyph unicode="&#x1edb;" horiz-adv-x="487" d="M56 222q0 109 51 172t139 63q39 0 79.5 -17.5t64.5 -17.5q36 0 58 18t22 47q0 35 -34 71l2 5q8 5 13 5q11 0 25 -23.5t14 -52.5q0 -45 -33 -68.5t-88 -17.5q60 -61 60 -177q0 -109 -50.5 -171.5t-138.5 -62.5q-87 0 -135.5 60.5t-48.5 166.5zM76 222q0 -97 43.5 -152 t120.5 -55q78 0 123.5 57.5t45.5 157.5q0 97 -43.5 152t-120.5 55q-78 0 -123.5 -57.5t-45.5 -157.5zM194 532q69 58 146 137l5 -1l10 -10l-1 -5q-69 -69 -144 -135l-5 1z" />
<glyph unicode="&#x1edc;" horiz-adv-x="630" d="M48 317q0 157 70 241t203 84q54 0 104 -18.5t69 -18.5q34 0 59 17.5t25 48.5q0 36 -34 72l2 5q8 5 13 5q11 0 25 -23.5t14 -54.5q0 -44 -32.5 -67t-83.5 -21q97 -81 97 -262q0 -157 -70.5 -243.5t-199.5 -86.5q-126 0 -193.5 83.5t-67.5 238.5zM68 316q0 -145 62.5 -223 t178.5 -78q120 0 185 81.5t65 229.5q0 144 -62.5 220t-179.5 76q-120 0 -184.5 -79t-64.5 -227zM219 824l7 12l5 2q85 -50 176 -94l-7 -15l-5 -3q-107 55 -174 93z" />
<glyph unicode="&#x1edd;" horiz-adv-x="487" d="M56 222q0 109 51 172t139 63q39 0 79.5 -17.5t64.5 -17.5q36 0 58 18t22 47q0 35 -34 71l2 5q8 5 13 5q11 0 25 -23.5t14 -52.5q0 -45 -33 -68.5t-88 -17.5q60 -61 60 -177q0 -109 -50.5 -171.5t-138.5 -62.5q-87 0 -135.5 60.5t-48.5 166.5zM76 222q0 -97 43.5 -152 t120.5 -55q78 0 123.5 57.5t45.5 157.5q0 97 -43.5 152t-120.5 55q-78 0 -123.5 -57.5t-45.5 -157.5zM131 658l10 10l5 1q77 -79 146 -137l-11 -13l-5 -1q-75 66 -144 135z" />
<glyph unicode="&#x1ede;" horiz-adv-x="630" d="M48 317q0 157 70 241t203 84q54 0 104 -18.5t69 -18.5q34 0 59 17.5t25 48.5q0 36 -34 72l2 5q8 5 13 5q11 0 25 -23.5t14 -54.5q0 -44 -32.5 -67t-83.5 -21q97 -81 97 -262q0 -157 -70.5 -243.5t-199.5 -86.5q-126 0 -193.5 83.5t-67.5 238.5zM68 316q0 -145 62.5 -223 t178.5 -78q120 0 185 81.5t65 229.5q0 144 -62.5 220t-179.5 76q-120 0 -184.5 -79t-64.5 -227zM252 833q34 29 64 29q19 0 31.5 -11t12.5 -27q0 -29 -48 -65l16 -29l-17 -7l-22 41q51 34 51 58q0 20 -26 20t-54 -23z" />
<glyph unicode="&#x1edf;" horiz-adv-x="487" d="M56 222q0 109 51 172t139 63q39 0 79.5 -17.5t64.5 -17.5q36 0 58 18t22 47q0 35 -34 71l2 5q8 5 13 5q11 0 25 -23.5t14 -52.5q0 -45 -33 -68.5t-88 -17.5q60 -61 60 -177q0 -109 -50.5 -171.5t-138.5 -62.5q-87 0 -135.5 60.5t-48.5 166.5zM76 222q0 -97 43.5 -152 t120.5 -55q78 0 123.5 57.5t45.5 157.5q0 97 -43.5 152t-120.5 55q-78 0 -123.5 -57.5t-45.5 -157.5zM181 648q34 29 64 29q19 0 31.5 -11t12.5 -27q0 -29 -48 -65l16 -29l-17 -7l-22 41q51 34 51 58q0 20 -26 20t-54 -23z" />
<glyph unicode="&#x1ee0;" horiz-adv-x="630" d="M48 317q0 157 70 241t203 84q54 0 104 -18.5t69 -18.5q34 0 59 17.5t25 48.5q0 36 -34 72l2 5q8 5 13 5q11 0 25 -23.5t14 -54.5q0 -44 -32.5 -67t-83.5 -21q97 -81 97 -262q0 -157 -70.5 -243.5t-199.5 -86.5q-126 0 -193.5 83.5t-67.5 238.5zM68 316q0 -145 62.5 -223 t178.5 -78q120 0 185 81.5t65 229.5q0 144 -62.5 220t-179.5 76q-120 0 -184.5 -79t-64.5 -227zM175 760v4l52 47l6 2q18 -2 80.5 -20t75.5 -18q3 0 6.5 2t8.5 6t9.5 8t12 11.5t14.5 13.5h4l9 -11v-4l-52 -47l-6 -2q-18 2 -80.5 20t-75.5 18q-3 0 -6.5 -2t-8.5 -6t-9.5 -8 t-12 -11.5t-14.5 -13.5h-4z" />
<glyph unicode="&#x1ee1;" horiz-adv-x="487" d="M56 222q0 109 51 172t139 63q39 0 79.5 -17.5t64.5 -17.5q36 0 58 18t22 47q0 35 -34 71l2 5q8 5 13 5q11 0 25 -23.5t14 -52.5q0 -45 -33 -68.5t-88 -17.5q60 -61 60 -177q0 -109 -50.5 -171.5t-138.5 -62.5q-87 0 -135.5 60.5t-48.5 166.5zM76 222q0 -97 43.5 -152 t120.5 -55q78 0 123.5 57.5t45.5 157.5q0 97 -43.5 152t-120.5 55q-78 0 -123.5 -57.5t-45.5 -157.5zM104 575v4l52 47l6 2q18 -2 80.5 -20t75.5 -18q3 0 6.5 2t8.5 6t9.5 8t12 11.5t14.5 13.5h4l9 -11v-4l-52 -47l-6 -2q-18 2 -80.5 20t-75.5 18q-3 0 -6.5 -2t-8.5 -6 t-9.5 -8t-12 -11.5t-14.5 -13.5h-4z" />
<glyph unicode="&#x1ee2;" horiz-adv-x="630" d="M48 317q0 157 70 241t203 84q54 0 104 -18.5t69 -18.5q34 0 59 17.5t25 48.5q0 36 -34 72l2 5q8 5 13 5q11 0 25 -23.5t14 -54.5q0 -44 -32.5 -67t-83.5 -21q97 -81 97 -262q0 -157 -70.5 -243.5t-199.5 -86.5q-126 0 -193.5 83.5t-67.5 238.5zM68 316q0 -145 62.5 -223 t178.5 -78q120 0 185 81.5t65 229.5q0 144 -62.5 220t-179.5 76q-120 0 -184.5 -79t-64.5 -227zM290 -108q0 20 20 20t20 -20t-20 -20t-20 20z" />
<glyph unicode="&#x1ee3;" horiz-adv-x="487" d="M56 222q0 109 51 172t139 63q39 0 79.5 -17.5t64.5 -17.5q36 0 58 18t22 47q0 35 -34 71l2 5q8 5 13 5q11 0 25 -23.5t14 -52.5q0 -45 -33 -68.5t-88 -17.5q60 -61 60 -177q0 -109 -50.5 -171.5t-138.5 -62.5q-87 0 -135.5 60.5t-48.5 166.5zM76 222q0 -97 43.5 -152 t120.5 -55q78 0 123.5 57.5t45.5 157.5q0 97 -43.5 152t-120.5 55q-78 0 -123.5 -57.5t-45.5 -157.5zM231 -108q0 20 20 20t20 -20t-20 -20t-20 20z" />
<glyph unicode="&#x1ee4;" horiz-adv-x="612" d="M86 229v408h20v-408q-1 -103 51 -158t149 -55t148.5 55t51.5 158v408h20v-408q3 -110 -55 -171.5t-165 -61.5t-163.5 60t-56.5 173zM283 -108q0 20 20 20t20 -20t-20 -20t-20 20z" />
<glyph unicode="&#x1ee5;" horiz-adv-x="504" d="M90 132v317l20 4v-320q0 -56 26 -86.5t75 -30.5q81 0 161 92v341l20 4v-374q0 -62 36 -62q23 0 41 15l6 -3l-4 -18q-20 -14 -45 -14q-54 0 -54 82h-4q-77 -83 -160 -83q-57 0 -87.5 35.5t-30.5 100.5zM237 -108q0 20 20 20t20 -20t-20 -20t-20 20z" />
<glyph unicode="&#x1ee6;" horiz-adv-x="612" d="M86 229v408h20v-408q-1 -103 51 -158t149 -55t148.5 55t51.5 158v408h20v-408q3 -110 -55 -171.5t-165 -61.5t-163.5 60t-56.5 173zM248 833q34 29 64 29q19 0 31.5 -11t12.5 -27q0 -29 -48 -65l16 -29l-17 -7l-22 41q51 34 51 58q0 20 -26 20t-54 -23z" />
<glyph unicode="&#x1ee7;" horiz-adv-x="504" d="M90 132v317l20 4v-320q0 -56 26 -86.5t75 -30.5q81 0 161 92v341l20 4v-374q0 -62 36 -62q23 0 41 15l6 -3l-4 -18q-20 -14 -45 -14q-54 0 -54 82h-4q-77 -83 -160 -83q-57 0 -87.5 35.5t-30.5 100.5zM192 648q34 29 64 29q19 0 31.5 -11t12.5 -27q0 -29 -48 -65l16 -29 l-17 -7l-22 41q51 34 51 58q0 20 -26 20t-54 -23z" />
<glyph unicode="&#x1ee8;" horiz-adv-x="622" d="M86 229v408h20v-408q-1 -103 51 -158t149 -55t148.5 55t51.5 158v408h10q31 0 50 14.5t19 38.5q0 28 -34 61l2 5q7 5 12 5q10 0 25 -22t15 -49q0 -31 -21.5 -50.5t-57.5 -22.5v-388q3 -110 -55 -171.5t-165 -61.5t-163.5 60t-56.5 173zM248 742q91 44 176 94l5 -2l7 -12 l-2 -5q-67 -38 -174 -93l-5 3z" />
<glyph unicode="&#x1ee9;" horiz-adv-x="512" d="M90 132v317l20 4v-320q0 -56 26.5 -86.5t74.5 -30.5q82 0 164 92v341l16 3q83 16 83 66q0 35 -34 70l2 5q7 5 13 5q11 0 25 -23t14 -52q0 -68 -99 -88v-356q0 -62 36 -62q24 0 42 15l6 -3l-4 -18q-20 -14 -45 -14q-55 0 -55 82h-4q-79 -83 -163 -83q-56 0 -87 35t-31 101 zM197 532q69 58 146 137l5 -1l10 -10l-1 -5q-69 -69 -144 -135l-5 1z" />
<glyph unicode="&#x1eea;" horiz-adv-x="622" d="M86 229v408h20v-408q-1 -103 51 -158t149 -55t148.5 55t51.5 158v408h10q31 0 50 14.5t19 38.5q0 28 -34 61l2 5q7 5 12 5q10 0 25 -22t15 -49q0 -31 -21.5 -50.5t-57.5 -22.5v-388q3 -110 -55 -171.5t-165 -61.5t-163.5 60t-56.5 173zM215 824l7 12l5 2q85 -50 176 -94 l-7 -15l-5 -3q-107 55 -174 93z" />
<glyph unicode="&#x1eeb;" horiz-adv-x="512" d="M90 132v317l20 4v-320q0 -56 26.5 -86.5t74.5 -30.5q82 0 164 92v341l16 3q83 16 83 66q0 35 -34 70l2 5q7 5 13 5q11 0 25 -23t14 -52q0 -68 -99 -88v-356q0 -62 36 -62q24 0 42 15l6 -3l-4 -18q-20 -14 -45 -14q-55 0 -55 82h-4q-79 -83 -163 -83q-56 0 -87 35t-31 101 zM166 658l10 10l5 1q77 -79 146 -137l-11 -13l-5 -1q-75 66 -144 135z" />
<glyph unicode="&#x1eec;" horiz-adv-x="622" d="M86 229v408h20v-408q-1 -103 51 -158t149 -55t148.5 55t51.5 158v408h10q31 0 50 14.5t19 38.5q0 28 -34 61l2 5q7 5 12 5q10 0 25 -22t15 -49q0 -31 -21.5 -50.5t-57.5 -22.5v-388q3 -110 -55 -171.5t-165 -61.5t-163.5 60t-56.5 173zM248 833q34 29 64 29 q19 0 31.5 -11t12.5 -27q0 -29 -48 -65l16 -29l-17 -7l-22 41q51 34 51 58q0 20 -26 20t-54 -23z" />
<glyph unicode="&#x1eed;" horiz-adv-x="512" d="M90 132v317l20 4v-320q0 -56 26.5 -86.5t74.5 -30.5q82 0 164 92v341l16 3q83 16 83 66q0 35 -34 70l2 5q7 5 13 5q11 0 25 -23t14 -52q0 -68 -99 -88v-356q0 -62 36 -62q24 0 42 15l6 -3l-4 -18q-20 -14 -45 -14q-55 0 -55 82h-4q-79 -83 -163 -83q-56 0 -87 35t-31 101 zM184 648q34 29 64 29q19 0 31.5 -11t12.5 -27q0 -29 -48 -65l16 -29l-17 -7l-22 41q51 34 51 58q0 20 -26 20t-54 -23z" />
<glyph unicode="&#x1eee;" horiz-adv-x="622" d="M86 229v408h20v-408q-1 -103 51 -158t149 -55t148.5 55t51.5 158v408h10q31 0 50 14.5t19 38.5q0 28 -34 61l2 5q7 5 12 5q10 0 25 -22t15 -49q0 -31 -21.5 -50.5t-57.5 -22.5v-388q3 -110 -55 -171.5t-165 -61.5t-163.5 60t-56.5 173zM171 760v4l52 47l6 2 q18 -2 80.5 -20t75.5 -18q3 0 6.5 2t8.5 6t9.5 8t12 11.5t14.5 13.5h4l9 -11v-4l-52 -47l-6 -2q-18 2 -80.5 20t-75.5 18q-3 0 -6.5 -2t-8.5 -6t-9.5 -8t-12 -11.5t-14.5 -13.5h-4z" />
<glyph unicode="&#x1eef;" horiz-adv-x="512" d="M90 132v317l20 4v-320q0 -56 26.5 -86.5t74.5 -30.5q82 0 164 92v341l16 3q83 16 83 66q0 35 -34 70l2 5q7 5 13 5q11 0 25 -23t14 -52q0 -68 -99 -88v-356q0 -62 36 -62q24 0 42 15l6 -3l-4 -18q-20 -14 -45 -14q-55 0 -55 82h-4q-79 -83 -163 -83q-56 0 -87 35t-31 101 zM107 575v4l52 47l6 2q18 -2 80.5 -20t75.5 -18q3 0 6.5 2t8.5 6t9.5 8t12 11.5t14.5 13.5h4l9 -11v-4l-52 -47l-6 -2q-18 2 -80.5 20t-75.5 18q-3 0 -6.5 -2t-8.5 -6t-9.5 -8t-12 -11.5t-14.5 -13.5h-4z" />
<glyph unicode="&#x1ef0;" horiz-adv-x="622" d="M86 229v408h20v-408q-1 -103 51 -158t149 -55t148.5 55t51.5 158v408h10q31 0 50 14.5t19 38.5q0 28 -34 61l2 5q7 5 12 5q10 0 25 -22t15 -49q0 -31 -21.5 -50.5t-57.5 -22.5v-388q3 -110 -55 -171.5t-165 -61.5t-163.5 60t-56.5 173zM286 -108q0 20 20 20t20 -20 t-20 -20t-20 20z" />
<glyph unicode="&#x1ef1;" horiz-adv-x="512" d="M90 132v317l20 4v-320q0 -56 26.5 -86.5t74.5 -30.5q82 0 164 92v341l16 3q83 16 83 66q0 35 -34 70l2 5q7 5 13 5q11 0 25 -23t14 -52q0 -68 -99 -88v-356q0 -62 36 -62q24 0 42 15l6 -3l-4 -18q-20 -14 -45 -14q-55 0 -55 82h-4q-79 -83 -163 -83q-56 0 -87 35t-31 101 zM237 -108q0 20 20 20t20 -20t-20 -20t-20 20z" />
<glyph unicode="&#x1ef2;" horiz-adv-x="495" d="M26 637h26l11 -26l173 -334h5l188 334l11 26h26l-218 -392v-245h-20v246zM144 824l7 12l5 2q85 -50 176 -94l-7 -15l-5 -3q-107 55 -174 93z" />
<glyph unicode="&#x1ef3;" horiz-adv-x="405" d="M-17 -172q87 18 128 51.5t74 120.5l-166 450l21 4l14 -45l140 -373h5l146 373l15 43h24l-177 -452q-38 -98 -81 -135.5t-130 -54.5h-5q-4 4 -8 12v6zM125 658l10 10l5 1q77 -79 146 -137l-11 -13l-5 -1q-75 66 -144 135z" />
<glyph unicode="&#x1ef4;" horiz-adv-x="495" d="M26 637h26l11 -26l173 -334h5l188 334l11 26h26l-218 -392v-245h-20v246zM218 -108q0 20 20 20t20 -20t-20 -20t-20 20z" />
<glyph unicode="&#x1ef5;" horiz-adv-x="407" d="M-17 -172q87 18 128 51.5t74 120.5l-166 450l21 4l14 -45l140 -373h5l146 373l15 43h24l-177 -452q-38 -98 -81 -135.5t-130 -54.5h-5q-4 4 -8 12v6zM255 -108q0 20 20 20t20 -20t-20 -20t-20 20z" />
<glyph unicode="&#x1ef6;" horiz-adv-x="495" d="M26 637h26l11 -26l173 -334h5l188 334l11 26h26l-218 -392v-245h-20v246zM177 833q34 29 64 29q19 0 31.5 -11t12.5 -27q0 -29 -48 -65l16 -29l-17 -7l-22 41q51 34 51 58q0 20 -26 20t-54 -23z" />
<glyph unicode="&#x1ef7;" horiz-adv-x="405" d="M-17 -172q87 18 128 51.5t74 120.5l-166 450l21 4l14 -45l140 -373h5l146 373l15 43h24l-177 -452q-38 -98 -81 -135.5t-130 -54.5h-5q-4 4 -8 12v6zM143 648q34 29 64 29q19 0 31.5 -11t12.5 -27q0 -29 -48 -65l16 -29l-17 -7l-22 41q51 34 51 58q0 20 -26 20t-54 -23z " />
<glyph unicode="&#x2000;" horiz-adv-x="466" />
<glyph unicode="&#x2001;" horiz-adv-x="932" />
<glyph unicode="&#x2002;" horiz-adv-x="466" />
<glyph unicode="&#x2003;" horiz-adv-x="932" />
<glyph unicode="&#x2004;" horiz-adv-x="310" />
<glyph unicode="&#x2005;" horiz-adv-x="233" />
<glyph unicode="&#x2006;" horiz-adv-x="155" />
<glyph unicode="&#x2007;" horiz-adv-x="155" />
<glyph unicode="&#x2008;" horiz-adv-x="116" />
<glyph unicode="&#x2009;" horiz-adv-x="186" />
<glyph unicode="&#x200a;" horiz-adv-x="51" />
<glyph unicode="&#x2010;" horiz-adv-x="311" d="M31 232v16l245 33l4 -4v-16l-245 -33z" />
<glyph unicode="&#x2011;" horiz-adv-x="311" d="M31 232v16l245 33l4 -4v-16l-245 -33z" />
<glyph unicode="&#x2012;" horiz-adv-x="311" d="M31 232v16l245 33l4 -4v-16l-245 -33z" />
<glyph unicode="&#x2013;" horiz-adv-x="492" d="M-15 247l2 17h517l3 -3l-2 -17h-517z" />
<glyph unicode="&#x2014;" horiz-adv-x="972" d="M-15 247l2 17h997l3 -3l-2 -17h-997z" />
<glyph unicode="&#x2018;" horiz-adv-x="124" d="M32 534q0 46 53 102l13 -11v-4q-44 -47 -44 -83q0 -30 38 -39v-4q-1 -3 -10 -16q-50 12 -50 55z" />
<glyph unicode="&#x2019;" horiz-adv-x="124" d="M30 488v4q44 47 44 83q0 30 -38 39v4q1 3 10 16q50 -12 50 -55q0 -46 -53 -102z" />
<glyph unicode="&#x201a;" horiz-adv-x="230" d="M69 -89l1 3q54 40 54 78q0 20 -30 34v4q5 7 13 11q38 -17 38 -48q0 -42 -66 -93z" />
<glyph unicode="&#x201c;" horiz-adv-x="206" d="M23 534q0 46 53 102l13 -11v-4q-44 -47 -44 -83q0 -30 38 -39v-4q-1 -3 -10 -16q-50 12 -50 55zM118 534q0 46 53 102l13 -11v-4q-44 -47 -44 -83q0 -30 38 -39v-4q-1 -3 -10 -16q-50 12 -50 55z" />
<glyph unicode="&#x201d;" horiz-adv-x="219" d="M26 488v4q44 47 44 83q0 30 -38 39v4q1 3 10 16q50 -12 50 -55q0 -46 -53 -102zM121 488v4q44 47 44 83q0 30 -38 39v4q1 3 10 16q50 -12 50 -55q0 -46 -53 -102z" />
<glyph unicode="&#x201e;" horiz-adv-x="325" d="M69 -89l1 3q54 40 54 78q0 20 -30 34v4q5 7 13 11q38 -17 38 -48q0 -42 -66 -93zM164 -89l1 3q54 40 54 78q0 20 -30 34v4q5 7 13 11q38 -17 38 -48q0 -42 -66 -93z" />
<glyph unicode="&#x2020;" horiz-adv-x="461" d="M45 377l2 17h174v192l18 2l2 -2v-192h173l3 -3l-2 -17h-174v-468h-17l-3 4v464h-173z" />
<glyph unicode="&#x2021;" horiz-adv-x="461" d="M45 103l2 17h174v254h-173l-3 3l2 17h174v192l18 2l2 -2v-192h173l3 -3l-2 -17h-174v-254h173l3 -3l-2 -17h-174v-194h-17l-3 4v190h-173z" />
<glyph unicode="&#x2022;" horiz-adv-x="231" d="M95 238q0 20 20 20t20 -20t-20 -20t-20 20z" />
<glyph unicode="&#x2024;" horiz-adv-x="230" d="M95 18q0 20 20 20t20 -20t-20 -20t-20 20z" />
<glyph unicode="&#x2025;" horiz-adv-x="380" d="M91 18q0 20 20 20t20 -20t-20 -20t-20 20zM241 18q0 20 20 20t20 -20t-20 -20t-20 20z" />
<glyph unicode="&#x2026;" horiz-adv-x="530" d="M91 18q0 20 20 20t20 -20t-20 -20t-20 20zM241 18q0 20 20 20t20 -20t-20 -20t-20 20zM391 18q0 20 20 20t20 -20t-20 -20t-20 20z" />
<glyph unicode="&#x202f;" horiz-adv-x="186" />
<glyph unicode="&#x2030;" horiz-adv-x="1165" d="M50 467q0 82 35.5 126.5t102.5 44.5q65 0 100 -44t35 -126q0 -83 -35.5 -127.5t-101.5 -44.5t-101 44t-35 127zM68 468q0 -74 31 -113.5t89 -39.5q56 0 86.5 39.5t30.5 112.5q0 74 -30.5 113t-88.5 39q-57 0 -87.5 -39t-30.5 -112zM128 -77l485 746l10 -5l3 -8l-485 -746 l-9 4zM469 167q0 83 35.5 127.5t102.5 44.5q65 0 100 -44t35 -126q0 -83 -35.5 -127.5t-101.5 -44.5t-101 44t-35 126zM487 169q0 -74 31 -113.5t89 -39.5q56 0 86.5 39t30.5 112q0 74 -30.5 113.5t-88.5 39.5q-57 0 -87.5 -39t-30.5 -112zM842 167q0 83 35.5 127.5 t102.5 44.5q65 0 100 -44t35 -126q0 -83 -35.5 -127.5t-101.5 -44.5t-101 44t-35 126zM860 169q0 -74 31 -113.5t89 -39.5q56 0 86.5 39t30.5 112q0 74 -30.5 113.5t-88.5 39.5q-57 0 -87.5 -39t-30.5 -112z" />
<glyph unicode="&#x2032;" horiz-adv-x="125" d="M47 489l12 144l17 2l3 -4l-12 -144l-17 -2z" />
<glyph unicode="&#x2033;" horiz-adv-x="213" d="M47 489l12 144l17 2l3 -4l-12 -144l-17 -2zM135 489l12 144l17 2l3 -4l-12 -144l-17 -2z" />
<glyph unicode="&#x2039;" horiz-adv-x="214" d="M30 217v11l155 168l12 -9v-6l-145 -158l145 -158v-6l-12 -9z" />
<glyph unicode="&#x203a;" horiz-adv-x="209" d="M21 59v6l145 158l-145 158v6l12 9l155 -167v-11l-155 -168z" />
<glyph unicode="&#x2044;" horiz-adv-x="46" d="M-245 -77l485 746l10 -5l3 -8l-485 -746l-9 4z" />
<glyph unicode="&#x205f;" horiz-adv-x="233" />
<glyph unicode="&#x2070;" horiz-adv-x="373" d="M50 514q0 90 35.5 138.5t102.5 48.5q65 0 100 -48t35 -137q0 -91 -35 -139.5t-102 -48.5q-66 0 -101 48t-35 138zM68 516q0 -82 31 -125t89 -43q56 0 86.5 43t30.5 123q0 81 -30.5 124t-88.5 43q-57 0 -87.5 -42.5t-30.5 -122.5z" />
<glyph unicode="&#x2074;" horiz-adv-x="335" d="M30 452v15l174 233h19v-232h69l3 -3l-3 -16l-50 1h-19l1 -117l-2 -2l-16 -2l-2 2v119h-140l-31 -1zM52 468h152v200h-3z" />
<glyph unicode="&#x2075;" horiz-adv-x="288" d="M36 349l2 2q33 -5 53 -5q59 0 95.5 28t36.5 74q0 60 -107 83l-51 11l-3 4l4 149l6 6l33 -1h92l46 1l2 -2l-2 -17l-3 -2l-30 2h-126l-4 -123l44 -10q119 -25 119 -101q0 -54 -42 -87t-111 -33q-21 0 -51 5z" />
<glyph unicode="&#x2076;" horiz-adv-x="323" d="M45 461q0 84 52 147t148 96h3l11 -10v-3q-163 -56 -189 -182l1 -1q49 36 103 36q50 0 77.5 -26.5t27.5 -75.5q0 -55 -31 -85t-89 -30q-55 0 -84.5 35t-29.5 99zM65 462q0 -57 24.5 -87.5t70.5 -30.5q48 0 73.5 25t25.5 72q0 41 -23 63t-65 22q-56 0 -105 -39 q-1 -8 -1 -25z" />
<glyph unicode="&#x2077;" horiz-adv-x="288" d="M28 684l2 17l46 -1h156l24 1l1 -17l-143 -301l-25 -58l-18 5l-1 4l165 347h-164l-40 -1z" />
<glyph unicode="&#x2078;" horiz-adv-x="320" d="M42 422q0 67 92 100v2q-74 30 -74 88q0 42 28.5 66t75.5 24q44 0 69 -22t25 -62q0 -63 -80 -93v-2q22 -9 35 -15t28.5 -17.5t23 -27t7.5 -36.5q0 -45 -32.5 -72t-85.5 -27q-51 0 -81.5 26t-30.5 68zM61 422q0 -35 25 -55.5t68 -20.5q45 0 72 21.5t27 57.5q0 19 -7 33 t-26 25.5t-28 15.5t-38 15q-27 -9 -44.5 -18t-33 -28.5t-15.5 -45.5zM79 612q0 -31 20 -48t58 -32q83 26 83 85q0 31 -21 49.5t-56 18.5q-38 0 -61 -20t-23 -53z" />
<glyph unicode="&#x2079;" horiz-adv-x="323" d="M48 591q0 54 31 84t88 30q55 0 84.5 -35t29.5 -99q0 -84 -52 -147t-148 -96h-3l-10 10v4q161 54 189 180l-2 2q-47 -36 -103 -36q-49 0 -76.5 27t-27.5 76zM67 592q0 -42 23 -64t65 -22q55 0 106 41q1 8 1 24q0 57 -24.5 87t-70.5 30q-48 0 -74 -25t-26 -71z" />
<glyph unicode="&#x20a3;" horiz-adv-x="375" d="M32 119l2 17h70v355h250l3 -4l-4 -16h-228l-1 -215h187l2 -4l-3 -16h-186v-100h119l3 -3l-2 -17h-120l1 -116h-21v116h-69z" />
<glyph unicode="&#x20ac;" horiz-adv-x="503" d="M22 167l2 17h79q-3 27 -3 57q0 16 2 46h-77l-3 3l2 17h80q14 91 68 139t143 48q78 0 139 -44l-6 -18h-6q-54 42 -128 42q-160 0 -188 -167h217l3 -3l-2 -17h-221q-2 -28 -2 -46q0 -33 4 -57h218l3 -3l-2 -17h-215q14 -72 58.5 -110t114.5 -38q80 0 144 50l6 -2l-2 -18 q-69 -50 -148 -50q-80 0 -130 43.5t-66 124.5h-81z" />
<glyph unicode="&#x2113;" horiz-adv-x="230" d="M105 0v698l20 4v-702h-20z" />
<glyph unicode="&#x2122;" horiz-adv-x="574" d="M31 622l2 15h168l2 -2l-2 -15l-42 1h-32l-1 -144l1 -72h-19v216h-32l-43 -1zM256 405l27 232h24q14 -36 43.5 -103t32.5 -74h1l67 144l13 33h23l25 -232h-17q-5 44 -23 198h-3l-77 -170h-18l-75 170h-2l-16 -125l-7 -73h-18z" />
<glyph unicode="&#x2126;" horiz-adv-x="733" d="M51 3l4 18l82 -1h121v3q-76 52 -116.5 135t-40.5 187q0 143 69.5 220t198.5 77q127 0 195 -76.5t68 -218.5q0 -104 -40.5 -188t-116.5 -136v-3h126l78 1l3 -4l-4 -18l-82 1h-122l-40 -1l-2 2v16q87 52 133.5 137.5t46.5 192.5q0 133 -63 204t-180 71q-119 0 -183.5 -72 t-64.5 -205q0 -107 46.5 -192t133.5 -136v-16l-2 -2l-40 1h-127l-78 -1z" />
<glyph unicode="&#x212e;" horiz-adv-x="789" d="M39 319q0 137 107 233t259 96t258.5 -96t106.5 -233v-5h-594q-8 0 -8 -7v-181q0 -11 10 -23q94 -92 228 -92q149 0 254 103h30q-50 -57 -125 -90t-160 -33q-152 0 -259 96t-107 232zM168 342q0 -8 8 -8h458q8 0 8 8v174q0 13 -11 24q-91 88 -225 88q-136 0 -227 -91 q-11 -11 -11 -25v-170z" />
<glyph unicode="&#x215b;" horiz-adv-x="641" d="M16 591v16l119 35l3 -4v-370h-20v348l-98 -27zM30 -77l485 746l10 -5l3 -8l-485 -746l-9 4zM363 91q0 67 92 100v2q-74 30 -74 88q0 42 28.5 66t75.5 24q44 0 69 -22t25 -62q0 -63 -80 -93v-2q22 -9 35 -15t28.5 -17.5t23 -27t7.5 -36.5q0 -45 -32.5 -72t-85.5 -27 q-51 0 -81.5 26t-30.5 68zM382 91q0 -35 25 -55.5t68 -20.5q45 0 72 21.5t27 57.5q0 19 -7 33t-26 25.5t-28 15.5t-38 15q-27 -9 -44.5 -18t-33 -28.5t-15.5 -45.5zM400 281q0 -31 20 -48t58 -32q83 26 83 85q0 31 -21 49.5t-56 18.5q-38 0 -61 -20t-23 -53z" />
<glyph unicode="&#x215c;" horiz-adv-x="674" d="M35 599q45 41 95 41q40 0 65 -21t25 -55q0 -28 -19 -54t-51 -40v-2q89 -19 89 -93q0 -48 -39 -78.5t-101 -30.5q-31 0 -60 6l-2 16l2 2q32 -5 60 -5q54 0 87 24.5t33 65.5q0 77 -109 82h-33l-2 2l1 15h29q32 0 63 26t31 61q0 27 -19.5 43.5t-51.5 16.5q-42 0 -86 -39h-3z M63 -77l485 746l10 -5l3 -8l-485 -746l-9 4zM396 91q0 67 92 100v2q-74 30 -74 88q0 42 28.5 66t75.5 24q44 0 69 -22t25 -62q0 -63 -80 -93v-2q22 -9 35 -15t28.5 -17.5t23 -27t7.5 -36.5q0 -45 -32.5 -72t-85.5 -27q-51 0 -81.5 26t-30.5 68zM415 91q0 -35 25 -55.5 t68 -20.5q45 0 72 21.5t27 57.5q0 19 -7 33t-26 25.5t-28 15.5t-38 15q-27 -9 -44.5 -18t-33 -28.5t-15.5 -45.5zM433 281q0 -31 20 -48t58 -32q83 26 83 85q0 31 -21 49.5t-56 18.5q-38 0 -61 -20t-23 -53z" />
<glyph unicode="&#x215d;" horiz-adv-x="659" d="M36 286l2 2q33 -5 53 -5q59 0 95.5 28t36.5 74q0 60 -107 83l-51 11l-3 4l4 149l6 6l33 -1h92l46 1l2 -2l-2 -17l-3 -2l-30 2h-126l-4 -123l44 -10q119 -25 119 -101q0 -54 -42 -87t-111 -33q-21 0 -51 5zM48 -77l485 746l10 -5l3 -8l-485 -746l-9 4zM381 91q0 67 92 100 v2q-74 30 -74 88q0 42 28.5 66t75.5 24q44 0 69 -22t25 -62q0 -63 -80 -93v-2q22 -9 35 -15t28.5 -17.5t23 -27t7.5 -36.5q0 -45 -32.5 -72t-85.5 -27q-51 0 -81.5 26t-30.5 68zM400 91q0 -35 25 -55.5t68 -20.5q45 0 72 21.5t27 57.5q0 19 -7 33t-26 25.5t-28 15.5t-38 15 q-27 -9 -44.5 -18t-33 -28.5t-15.5 -45.5zM418 281q0 -31 20 -48t58 -32q83 26 83 85q0 31 -21 49.5t-56 18.5q-38 0 -61 -20t-23 -53z" />
<glyph unicode="&#x215e;" horiz-adv-x="639" d="M28 -77l485 746l10 -5l3 -8l-485 -746l-9 4zM28 621l2 17l46 -1h156l24 1l1 -17l-143 -301l-25 -58l-18 5l-1 4l165 347h-164l-40 -1zM361 91q0 67 92 100v2q-74 30 -74 88q0 42 28.5 66t75.5 24q44 0 69 -22t25 -62q0 -63 -80 -93v-2q22 -9 35 -15t28.5 -17.5t23 -27 t7.5 -36.5q0 -45 -32.5 -72t-85.5 -27q-51 0 -81.5 26t-30.5 68zM380 91q0 -35 25 -55.5t68 -20.5q45 0 72 21.5t27 57.5q0 19 -7 33t-26 25.5t-28 15.5t-38 15q-27 -9 -44.5 -18t-33 -28.5t-15.5 -45.5zM398 281q0 -31 20 -48t58 -32q83 26 83 85q0 31 -21 49.5t-56 18.5 q-38 0 -61 -20t-23 -53z" />
<glyph unicode="&#x2190;" horiz-adv-x="500" d="M21 225v4l190 192l14 -8v-6l-167 -170h415l2 -2l-2 -18h-415l167 -170v-6l-14 -8z" />
<glyph unicode="&#x2191;" horiz-adv-x="500" d="M54 265l192 190h4l192 -190l-8 -14h-6l-170 167v-415l-2 -2l-18 2v415l-170 -167h-6z" />
<glyph unicode="&#x2192;" horiz-adv-x="500" d="M22 220l2 18h415l-167 170v6l14 8l190 -192v-4l-190 -192l-14 8v6l167 170h-415z" />
<glyph unicode="&#x2193;" horiz-adv-x="500" d="M55 190l8 14h6l170 -167v415l2 2l18 -2v-415l170 167h6l8 -14l-192 -190h-4z" />
<glyph unicode="&#x2196;" horiz-adv-x="500" d="M105 116l2 271l2 2l270 2l5 -16l-5 -4l-238 -2l294 -294v-2l-15 -12l-293 294l-2 -239l-4 -4z" />
<glyph unicode="&#x2197;" horiz-adv-x="500" d="M64 76l294 293l-239 2l-4 4l4 16l271 -2l2 -2l2 -270l-16 -5l-4 5l-2 238l-294 -294h-2z" />
<glyph unicode="&#x2198;" horiz-adv-x="500" d="M62 379v2l15 12l293 -294l2 239l4 4l16 -4l-2 -271l-2 -2l-270 -2l-5 16l5 4l238 2z" />
<glyph unicode="&#x2199;" horiz-adv-x="500" d="M104 338l16 5l4 -5l2 -238l294 294h2l12 -15l-294 -293l239 -2l4 -4l-4 -16l-271 2l-2 2z" />
<glyph unicode="&#x2202;" horiz-adv-x="503" d="M47 201q0 101 52 155t149 54q86 -5 167 -66l2 1q-23 122 -109 212t-228 143v7l6 7h6q170 -64 261 -181t91 -280q0 -125 -53 -192t-151 -67q-94 0 -143.5 53.5t-49.5 153.5zM67 201q0 -90 44.5 -138t128.5 -48q90 0 137.5 62t47.5 176q0 31 -3 59q-90 77 -180 77 q-85 0 -130 -48.5t-45 -139.5z" />
<glyph unicode="&#x2206;" horiz-adv-x="554" d="M19 0l254 637h20l233 -637h-507zM47 20h451l-213 583h-5z" />
<glyph unicode="&#x220f;" horiz-adv-x="633" d="M65 621l4 16h496l3 -4l-4 -16h-43v-617h-20v617h-364v-617h-20v617h-49z" />
<glyph unicode="&#x2211;" horiz-adv-x="458" d="M35 0v18l219 306l-214 295v18h342l61 1l4 -5l-3 -17l-62 1h-316l211 -290v-7l-216 -300h305l69 1l4 -5l-3 -16h-401z" />
<glyph unicode="&#x2212;" horiz-adv-x="480" d="M39 263l2 17h397l3 -3l-2 -17h-397z" />
<glyph unicode="&#x2215;" horiz-adv-x="291" d="M47 -106l204 781h16l3 -5l-204 -780h-16z" />
<glyph unicode="&#x2219;" horiz-adv-x="231" d="M95 238q0 20 20 20t20 -20t-20 -20t-20 20z" />
<glyph unicode="&#x221a;" horiz-adv-x="519" d="M-19 435l2 17h101l5 -4l141 -417h4l269 676l4 3h18l-283 -710h-22l-148 432h-88z" />
<glyph unicode="&#x221e;" horiz-adv-x="480" d="M-1 269q0 57 30.5 90t83.5 33q82 0 128 -97q42 97 126 97q53 0 83.5 -35.5t30.5 -91.5t-30.5 -89t-81.5 -33q-47 0 -76 27.5t-53 78.5q-23 -51 -52 -78.5t-75 -27.5q-52 0 -83 34.5t-31 91.5zM18 269q0 -48 25.5 -77.5t68.5 -29.5t69 28.5t49 79.5q-20 49 -45.5 76 t-70.5 27t-70.5 -28t-25.5 -76zM250 270q24 -53 50 -80.5t70 -27.5q42 0 67 27t25 76q0 48 -25.5 78t-70.5 30t-70.5 -27.5t-45.5 -75.5z" />
<glyph unicode="&#x222b;" horiz-adv-x="246" d="M39 -124q41 46 55 81t14 92v530q-1 65 29.5 100t87.5 35q33 0 63 -8l-2 -19l-3 -2q-24 9 -54 9q-99 0 -101 -115l-1 -528q0 -66 -15 -104t-60 -86l-13 10v5z" />
<glyph unicode="&#x2248;" horiz-adv-x="480" d="M86 174v5l64 53l6 3q21 -3 98.5 -24t93.5 -21q2 0 4.5 0.5t5 2l5 3t6 4.5t6.5 5t8 6t8.5 7t9.5 8.5t10 9.5h6l7 -10v-4l-65 -54l-6 -2q-22 2 -98.5 23.5t-92.5 21.5q-4 0 -8 -2t-10.5 -6.5t-11.5 -9t-15.5 -13.5l-17.5 -15h-6zM86 318v5l64 53l6 3q21 -3 98.5 -24 t93.5 -21q2 0 4.5 0.5t5 2l5 3t6 4.5t6.5 5t8 6t8.5 7t9.5 8.5t10 9.5h6l7 -10v-4l-65 -54l-6 -2q-22 2 -98.5 23.5t-92.5 21.5q-4 0 -8 -2t-10.5 -6.5t-11.5 -9t-15.5 -13.5l-17.5 -15h-6z" />
<glyph unicode="&#x2260;" horiz-adv-x="480" d="M39 191l2 17h163l29 124h-191l-3 3l2 17h197l35 144h17l3 -4l-34 -140h179l3 -3l-2 -17h-185l-30 -124h214l3 -3l-2 -17h-220l-37 -155h-17l-3 3l37 152h-157z" />
<glyph unicode="&#x2264;" horiz-adv-x="480" d="M39 -62l2 17h397l3 -3l-2 -17h-397zM40 258v22l3 4l389 171l7 -14l-3 -5l-370 -164v-4l374 -153l-6 -15l-4 -2z" />
<glyph unicode="&#x2265;" horiz-adv-x="480" d="M39 -62l2 17h397l3 -3l-2 -17h-397zM40 115l374 153v4l-370 164l-3 5l7 14l389 -171l3 -4v-22l-390 -160l-4 2z" />
<glyph unicode="&#x25ca;" horiz-adv-x="480" d="M63 275v14l161 351h15l2 -2l163 -349v-14l-161 -351h-15l-2 2zM82 282l151 -325h4l148 325l-151 324h-4z" />
<glyph unicode="&#x25fc;" horiz-adv-x="455" d="M0 0v455h455v-455h-455z" />
<glyph unicode="&#xf6d7;" d="M97 674q93 26 190 62l4 -3l5 -13l-3 -5q-80 -29 -187 -61l-5 4zM104 575q0 20 20 20t20 -20t-20 -20t-20 20zM244 575q0 20 20 20t20 -20t-20 -20t-20 20z" />
<glyph unicode="&#xf6d8;" d="M97 720l5 13l4 3q97 -36 190 -62l-4 -16l-5 -4q-107 32 -187 61zM104 575q0 20 20 20t20 -20t-20 -20t-20 20zM244 575q0 20 20 20t20 -20t-20 -20t-20 20z" />
<glyph horiz-adv-x="508" d="M58 742q91 44 176 94l5 -2l7 -12l-2 -5q-67 -38 -174 -93l-5 3zM110 0v637h20v-637h-20zM248 621l3 16h149v-522q0 -70 -29.5 -118.5t-99.5 -94.5l-11 11v6q64 42 92 87t28 107v504h-128zM286 742q91 44 176 94l5 -2l7 -12l-2 -5q-67 -38 -174 -93l-5 3z" />
<glyph horiz-adv-x="628" d="M48 317q0 157 70 241t200 84q126 0 193.5 -81t67.5 -232q0 -145 -56.5 -229.5t-163.5 -100.5q85 -103 265 -166v-6l-8 -12h-5q-182 64 -276 181q-9 -1 -27 -1q-125 0 -192.5 83.5t-67.5 238.5zM68 317q0 -145 62 -223.5t178 -78.5q121 0 186 81.5t65 232.5 q0 141 -62.5 217t-178.5 76q-121 0 -185.5 -79t-64.5 -226z" />
<glyph horiz-adv-x="467" d="M-100 0v20h272q-111 52 -111 224q0 176 118 227h-279v20h667v-20h-198q27 -11 48 -25l-6 -18h-6q-57 43 -130 43q-94 0 -144 -58.5t-50 -168.5q0 -109 48 -166.5t137 -57.5q80 0 146 50l6 -2l-2 -18q-28 -19 -56 -30h207v-20h-667z" />
<glyph horiz-adv-x="561" d="M-100 0v20h212v451h-212v20h761v-20h-282q120 -49 120 -211q0 -185 -126 -240h288v-20h-761zM131 23q13 -1 78 -3h84q90 8 138 69.5t48 169.5q0 102 -52.5 156.5t-151.5 54.5q-20 0 -144 -4v-443z" />
<glyph horiz-adv-x="237" d="M-100 0v20h208v451h-208v20h437v-20h-209v-451h209v-20h-437z" />
<glyph horiz-adv-x="365" d="M-100 0v20h207v451h-207v20h565v-20h-338v-451h195v90h20v-90h123v-20h-565z" />
<glyph horiz-adv-x="678" d="M-100 0v20h188l52 451h-240v20h878v-20h-240l50 -451h190v-20h-878zM108 20h461q-7 65 -49 426h-4l-168 -367h-23l-165 367h-3l-34 -288zM172 471q31 -72 91.5 -206t71.5 -158h3l168 364h-334z" />
<glyph horiz-adv-x="504" d="M-100 0v20h161l172 233l-162 218h-171v20h704v-20h-186l-160 -218l175 -233h171v-20h-704zM84 20h323q-30 43 -88 120.5t-73 97.5l-155 -207zM97 471q28 -40 81.5 -111.5t67.5 -90.5l139 187l9 15h-297z" />
<glyph horiz-adv-x="481" d="M-100 0v20h318l-174 451h-144v20h681v-20h-138l-189 -451h327v-20h-681zM64 471q32 -86 93.5 -241.5t77.5 -197.5h3l178 421l6 18h-358z" />
<glyph horiz-adv-x="222" d="M91 611q0 20 20 20t20 -20t-20 -20t-20 20zM101 0v449l20 4v-453h-20z" />
<glyph horiz-adv-x="592" d="M86 0v433q0 93 60 150t157 57q89 0 200 -54l3 -11l-193 -231q235 -25 235 -180q0 -74 -50 -121t-127 -47q-91 0 -158 47l2 19l5 2q61 -48 150 -48q70 0 114 43t44 106q0 141 -240 160l-4 15l196 235q-93 45 -177 45q-89 0 -143 -51t-54 -135v-434h-20z" />
<glyph horiz-adv-x="280" d="M46 436l3 16h68v86q0 74 30 114t86 40q42 0 84 -13l-6 -20h-6q-26 13 -72 13t-71 -34.5t-25 -99.5v-86h255l3 -4l-3 -16h-255v-432h-20v432h-67z" />
<glyph horiz-adv-x="444" d="M62 532q69 58 146 137l5 -1l10 -10l-1 -5q-69 -69 -144 -135l-5 1zM101 0v449l20 4v-453h-20zM242 436l3 16h83l20 1l2 -2v-439q0 -78 -19.5 -120.5t-73.5 -83.5l-10 10v6q48 37 65.5 76.5t17.5 107.5v424h-84zM276 532q69 58 146 137l5 -1l10 -10l-1 -5 q-69 -69 -144 -135l-5 1z" />
<glyph horiz-adv-x="280" d="M46 436l3 16h68v106q0 154 160 154q49 0 119 -16l-2 -19l-3 -2q-63 17 -112 17q-142 0 -142 -134v-106h125l3 -4l-3 -16h-125v-432h-20v432h-67z" />
<glyph horiz-adv-x="296" d="M40 420q0 50 56 63l112 24l2 59q0 59 -63 59q-42 0 -91 -40l-4 1l-4 15q51 43 101 43q39 0 60 -19.5t21 -54.5q0 -8 -3 -84.5t-3 -84.5q0 -35 23 -35q14 0 26 9l4 -2l-3 -16q-14 -9 -32 -9q-37 0 -38 48h-2q-41 -47 -85 -49q-37 0 -57 19t-20 54zM61 421q0 -26 15 -41 t43 -15q44 0 85 54l3 72l-104 -24q-42 -9 -42 -46z" />
<glyph horiz-adv-x="341" d="M71 352v444l22 3l-1 -202h2q41 46 96 46q53 0 82.5 -37t29.5 -104q0 -74 -37 -115t-104 -41q-38 0 -75 8l-11 -5zM92 373q39 -9 68 -9q58 0 89.5 35.5t31.5 101.5q0 58 -24.5 90t-69.5 32q-55 0 -95 -49v-201z" />
<glyph horiz-adv-x="541" d="M68 291q0 143 53 219.5t151 76.5q97 0 149 -76t52 -218q0 -143 -52.5 -220t-150.5 -77t-150 76.5t-52 218.5zM88 293q0 -133 47.5 -205t136.5 -72q87 0 134 71t47 204t-47.5 204.5t-135.5 71.5t-135 -71t-47 -203z" />
<glyph horiz-adv-x="250" d="M39 492q0 70 32.5 111t87.5 41q47 0 85 -26l-6 -18h-4q-35 24 -75 24q-45 0 -72 -35.5t-27 -95.5q0 -58 27 -92.5t73 -34.5q45 0 82 26l4 -2l-2 -18q-40 -26 -87 -26q-54 0 -86 40t-32 106z" />
<glyph horiz-adv-x="373" d="M50 183q0 90 35.5 138.5t102.5 48.5q65 0 100 -48t35 -137q0 -91 -35 -139.5t-102 -48.5q-66 0 -101 48t-35 138zM68 185q0 -82 31 -125t89 -43q56 0 86.5 43t30.5 123q0 81 -30.5 124t-88.5 43q-57 0 -87.5 -42.5t-30.5 -122.5z" />
<glyph horiz-adv-x="240" d="M16 323v16l119 35l3 -4v-370h-20v348l-98 -27z" />
<glyph horiz-adv-x="335" d="M39 489q0 74 37 114.5t105 40.5q29 0 67 -10v162l22 3l-1 -397q0 -36 23 -36q14 0 26 9l4 -2l-4 -16q-14 -9 -31 -9q-35 0 -38 46h-2q-41 -47 -92 -47q-52 0 -84 38t-32 104zM60 491q0 -59 26.5 -92t70.5 -33q53 0 92 51v197q-36 11 -69 11q-57 0 -88.5 -35t-31.5 -99z " />
<glyph horiz-adv-x="338" d="M16 524v16l170 53l4 -4v-589h-20v566l-149 -45z" />
<glyph horiz-adv-x="482" d="M59 1v17l161 214q72 95 101.5 145.5t29.5 92.5t-29.5 70.5t-81.5 28.5q-92 0 -161 -93h-4l-4 17q68 96 170 96q57 0 93.5 -33t36.5 -84q0 -47 -31.5 -101.5t-106.5 -153.5l-146 -194l2 -3h273l90 1l3 -5l-4 -17l-93 1h-253l-44 -1z" />
<glyph horiz-adv-x="284" d="M39 492q0 70 33 111t89 41q49 0 76.5 -30t27.5 -81q0 -2 -0.5 -9t-0.5 -10l-5 -5h-198l-1 -16q0 -59 27.5 -93.5t76.5 -34.5q52 0 89 29l4 -2l-3 -19q-42 -27 -92 -27q-57 0 -90 39.5t-33 106.5zM62 525h182q1 6 1 10q0 42 -23 66.5t-61 24.5q-40 0 -66 -27t-33 -74z" />
<glyph horiz-adv-x="336" d="M44 1v15l107 131q47 58 66.5 89t19.5 57q0 25 -19 42t-52 17q-61 0 -107 -57h-3l-4 17q48 59 116 59q40 0 65 -21t25 -54q0 -29 -21 -63.5t-71 -95.5l-94 -116l2 -2h175l61 1l2 -4l-3 -17l-65 1h-169l-29 -1z" />
<glyph horiz-adv-x="418" d="M45 524q67 66 138 66q57 0 93.5 -32.5t36.5 -85.5q0 -46 -29 -87.5t-77 -63.5v-3q66 -14 101 -52.5t35 -96.5q0 -76 -57 -123.5t-148 -47.5q-44 0 -87 8l-3 17l3 3q43 -8 87 -8q83 0 134 41.5t51 109.5q0 62 -44 97.5t-126 39.5h-47l-3 3l1 16h43q49 0 97 42.5t48 101.5 q0 45 -30 72.5t-79 27.5q-67 0 -130 -63h-4z" />
<glyph horiz-adv-x="479" d="M38 197v17l260 372h20v-372h105l4 -4l-4 -17l-71 1h-34v-191l-2 -3l-16 -3l-2 3v194h-215l-42 -1zM62 214h236v333h-4z" />
<glyph horiz-adv-x="293" d="M35 331q45 41 95 41q40 0 65 -21t25 -55q0 -28 -19 -54t-51 -40v-2q89 -19 89 -93q0 -48 -39 -78.5t-101 -30.5q-31 0 -60 6l-2 16l2 2q32 -5 60 -5q54 0 87 24.5t33 65.5q0 77 -109 82h-33l-2 2l1 15h29q32 0 63 26t31 61q0 27 -19.5 43.5t-51.5 16.5q-42 0 -86 -39h-3z " />
<glyph horiz-adv-x="163" d="M30 625l2 15h45v65q0 46 22.5 71t64.5 25q20 0 46 -6l-2 -18l-2 -2q-21 7 -43 7q-65 0 -65 -75v-67h82l2 -3l-2 -14h-82v-273h-21v273h-44z" />
<glyph horiz-adv-x="309" d="M43 298q0 39 66 74v4q-56 12 -56 45q4 15 38 39v2q-41 25 -41 81q0 47 28.5 73.5t78.5 26.5q37 0 64 -16q34 6 85 20l3 -2v-17q-25 -6 -69 -14l-1 -2q24 -26 24 -67q0 -46 -29 -72.5t-79 -26.5q-28 0 -49 9q-33 -21 -33 -35q0 -16 33 -24.5t72 -12t72 -20t33 -46.5 q0 -37 -39.5 -63.5t-94.5 -26.5q-48 0 -77 20.5t-29 50.5zM63 299q0 -22 23.5 -38.5t62.5 -16.5q47 0 80.5 21.5t33.5 49.5q0 7 -2.5 13t-7.5 10.5t-10 8t-14 6.5t-16 5t-18.5 4t-19 3t-20.5 3t-20 3q-72 -35 -72 -72zM70 543q0 -37 22.5 -58t62.5 -21q41 0 64.5 21t23.5 60 q0 38 -23 59t-63 21q-41 0 -64 -21.5t-23 -60.5z" />
<glyph horiz-adv-x="335" d="M30 121v15l174 233h19v-232h69l3 -3l-3 -16l-50 1h-19l1 -117l-2 -2l-16 -2l-2 2v119h-140l-31 -1zM52 137h152v200h-3z" />
<glyph horiz-adv-x="409" d="M47 20l3 3q41 -7 75 -7q92 0 148 46.5t56 123.5q0 52 -40 85.5t-125 53.5l-74 17l-4 5l5 232l9 8l49 -1h136l65 1l2 -2l-2 -18l-3 -2l-41 1h-195l-6 -206l66 -15q92 -21 135 -60t43 -100q0 -85 -62 -137t-163 -52q-35 0 -73 7z" />
<glyph horiz-adv-x="463" d="M61 206q0 134 78.5 234.5t221.5 151.5h4l9 -11v-4q-122 -44 -195 -120.5t-92 -179.5l2 -2q73 60 159 60q73 0 114 -42t41 -119q0 -87 -45 -133.5t-130 -46.5q-80 0 -123.5 55t-43.5 157zM81 206q0 -92 38 -142t109 -50q75 0 115 41.5t40 118.5q0 68 -36 104.5t-100 36.5 q-86 0 -164 -68q-2 -26 -2 -41z" />
<glyph horiz-adv-x="288" d="M36 18l2 2q33 -5 53 -5q59 0 95.5 28t36.5 74q0 60 -107 83l-51 11l-3 4l4 149l6 6l33 -1h92l46 1l2 -2l-2 -17l-3 -2l-30 2h-126l-4 -123l44 -10q119 -25 119 -101q0 -54 -42 -87t-111 -33q-21 0 -51 5z" />
<glyph horiz-adv-x="347" d="M71 350v446l22 3l-1 -208h3q50 52 101 52q42 0 65 -22.5t23 -63.5l-1 -82v-125h-22l2 202q0 34 -18.5 53t-52.5 19q-49 0 -100 -56v-92l1 -126h-22z" />
<glyph horiz-adv-x="176" d="M71 742q0 17 17 17t17 -17t-17 -17t-17 17zM77 350v288l22 3l-1 -165l1 -126h-22z" />
<glyph horiz-adv-x="323" d="M45 130q0 84 52 147t148 96h3l11 -10v-3q-163 -56 -189 -182l1 -1q49 36 103 36q50 0 77.5 -26.5t27.5 -75.5q0 -55 -31 -85t-89 -30q-55 0 -84.5 35t-29.5 99zM65 131q0 -57 24.5 -87.5t70.5 -30.5q48 0 73.5 25t25.5 72q0 41 -23 63t-65 22q-56 0 -105 -39 q-1 -8 -1 -25z" />
<glyph horiz-adv-x="410" d="M34 570l3 17l64 -1h235l35 1l1 -18l-219 -493l-35 -86l-19 6l-1 4l252 566h-255l-57 -1z" />
<glyph horiz-adv-x="455" d="M55 144q0 108 140 161v3q-53 23 -83 55t-30 85q0 65 42 103t109 38q64 0 101 -35.5t37 -97.5q0 -58 -33 -92.5t-89 -56.5v-3q26 -10 42 -17.5t37.5 -21.5t33.5 -28.5t20.5 -36.5t8.5 -49q0 -70 -47 -112.5t-125 -42.5q-75 0 -119.5 40.5t-44.5 107.5zM75 143 q0 -57 39 -92t105 -35q69 0 110.5 36.5t41.5 96.5q0 30 -10.5 53t-34 40t-43 26.5t-53.5 23.5q-7 3 -10 4q-30 -11 -51.5 -22t-45 -29t-36 -44t-12.5 -58zM102 448q0 -28 9 -49t28.5 -36.5t37 -25t45.5 -21.5q58 19 93.5 51t35.5 90q0 52 -31.5 82t-86.5 30q-59 0 -95 -32.5 t-36 -88.5z" />
<glyph horiz-adv-x="288" d="M28 353l2 17l46 -1h156l24 1l1 -17l-143 -301l-25 -58l-18 5l-1 4l165 347h-164l-40 -1z" />
<glyph horiz-adv-x="150" d="M0 624l2 16h52l21 1l2 -1l-1 -164l1 -117q0 -50 -14 -78t-50 -54l-10 11v4q30 23 41.5 47.5t11.5 66.5v265h-53zM45 742q0 17 18 17q16 0 16 -17t-17 -17t-17 17z" />
<glyph horiz-adv-x="273" d="M71 350v446l22 3l-1 -323l1 -126h-22zM110 503v3l113 111l18 23h28l-135 -135q64 -72 145 -150v-4q-1 -1 -17 -6l-3 1q-76 73 -149 157z" />
<glyph horiz-adv-x="320" d="M42 91q0 67 92 100v2q-74 30 -74 88q0 42 28.5 66t75.5 24q44 0 69 -22t25 -62q0 -63 -80 -93v-2q22 -9 35 -15t28.5 -17.5t23 -27t7.5 -36.5q0 -45 -32.5 -72t-85.5 -27q-51 0 -81.5 26t-30.5 68zM61 91q0 -35 25 -55.5t68 -20.5q45 0 72 21.5t27 57.5q0 19 -7 33 t-26 25.5t-28 15.5t-38 15q-27 -9 -44.5 -18t-33 -28.5t-15.5 -45.5zM79 281q0 -31 20 -48t58 -32q83 26 83 85q0 31 -21 49.5t-56 18.5q-38 0 -61 -20t-23 -53z" />
<glyph horiz-adv-x="463" d="M65 414q0 87 45 133.5t130 46.5q80 0 123.5 -55t43.5 -157q0 -134 -78.5 -234.5t-221.5 -151.5h-4l-9 11v4q122 44 195 120.5t92 179.5l-2 2q-73 -60 -159 -60q-73 0 -114 42t-41 119zM85 414q0 -68 36 -104.5t100 -36.5q86 0 164 68q2 26 2 41q0 92 -38 142t-109 50 q-75 0 -115 -41.5t-40 -118.5z" />
<glyph horiz-adv-x="373" d="M50 63q0 90 35.5 138.5t102.5 48.5q65 0 100 -48t35 -137q0 -91 -35 -139.5t-102 -48.5q-66 0 -101 48t-35 138zM68 65q0 -82 31 -125t89 -43q56 0 86.5 43t30.5 123q0 81 -30.5 124t-88.5 43q-57 0 -87.5 -42.5t-30.5 -122.5z" />
<glyph horiz-adv-x="150" d="M71 350v446l22 3l-1 -323l1 -126h-22z" />
<glyph horiz-adv-x="323" d="M48 260q0 54 31 84t88 30q55 0 84.5 -35t29.5 -99q0 -84 -52 -147t-148 -96h-3l-10 10v4q161 54 189 180l-2 2q-47 -36 -103 -36q-49 0 -76.5 27t-27.5 76zM67 261q0 -42 23 -64t65 -22q55 0 106 41q1 8 1 24q0 57 -24.5 87t-70.5 30q-48 0 -74 -25t-26 -71z" />
<glyph horiz-adv-x="373" d="M50 451q0 90 35.5 138.5t102.5 48.5q65 0 100 -48t35 -137q0 -91 -35 -139.5t-102 -48.5q-66 0 -101 48t-35 138zM68 453q0 -82 31 -125t89 -43q56 0 86.5 43t30.5 123q0 81 -30.5 124t-88.5 43q-57 0 -87.5 -42.5t-30.5 -122.5z" />
<glyph horiz-adv-x="535" d="M71 350v288l21 3v-50h3q50 52 101 52q68 0 83 -54h3q51 54 103 54q42 0 64.5 -22.5t22.5 -63.5v-82l-1 -125h-21l1 202q0 34 -18.5 53t-50.5 19q-50 0 -100 -53l1 -14v-82l-1 -125h-22l2 202q0 34 -18.5 53t-51.5 19q-49 0 -100 -57l1 -91l-1 -126h-21z" />
<glyph horiz-adv-x="240" d="M16 203v16l119 35l3 -4v-370h-20v348l-98 -27z" />
<glyph horiz-adv-x="336" d="M44 -104l107 131q47 58 66.5 89t19.5 57q0 25 -19 42t-52 17q-61 0 -107 -57h-3l-4 17q48 59 116 59q40 0 65 -21t25 -54q0 -29 -21 -63.5t-71 -95.5l-94 -116l2 -2h175l61 1l2 -4l-3 -17l-65 1h-169l-29 -1l-2 2v15z" />
<glyph horiz-adv-x="347" d="M71 350v288l21 3v-50h3q50 52 101 52q42 0 65 -22.5t22 -63.5v-82l1 -125h-23l2 202q0 34 -18.5 53t-52.5 19q-49 0 -100 -57v-91l1 -126h-22z" />
<glyph horiz-adv-x="240" d="M16 591v16l119 35l3 -4v-370h-20v348l-98 -27z" />
<glyph horiz-adv-x="336" d="M44 269v15l107 131q47 58 66.5 89t19.5 57q0 25 -19 42t-52 17q-61 0 -107 -57h-3l-4 17q48 59 116 59q40 0 65 -21t25 -54q0 -29 -21 -63.5t-71 -95.5l-94 -116l2 -2h175l61 1l2 -4l-3 -17l-65 1h-169l-29 -1z" />
<glyph horiz-adv-x="329" d="M39 492q0 71 34 111.5t94 40.5q58 0 90.5 -39t32.5 -107q0 -71 -34 -111.5t-94 -40.5q-58 0 -90.5 39t-32.5 107zM60 493q0 -61 27 -94.5t75 -33.5q50 0 78.5 34.5t28.5 97.5q0 60 -27.5 94t-75.5 34q-50 0 -78 -34.5t-28 -97.5z" />
<glyph horiz-adv-x="293" d="M35 211q45 41 95 41q40 0 65 -21t25 -55q0 -28 -19 -54t-51 -40v-2q89 -19 89 -93q0 -48 -39 -78.5t-101 -30.5q-31 0 -60 6l-2 16l2 2q32 -5 60 -5q54 0 87 24.5t33 65.5q0 77 -109 82h-33l-2 2l1 15h29q32 0 63 26t31 61q0 27 -19.5 43.5t-51.5 16.5q-42 0 -86 -39h-3z " />
<glyph horiz-adv-x="335" d="M30 1v15l174 233h19v-232h69l3 -3l-3 -16l-50 1h-19l1 -117l-2 -2l-16 -2l-2 2v119h-140l-31 -1zM52 17h152v200h-3z" />
<glyph horiz-adv-x="341" d="M71 232v406l21 3v-43h2q40 45 95 45q53 0 83 -36.5t30 -103.5q0 -75 -37 -116t-105 -41q-37 0 -68 7v-121h-21zM92 374q36 -10 68 -10q58 0 89.5 35.5t31.5 102.5q0 59 -24.5 90.5t-70.5 31.5q-53 0 -94 -49v-201z" />
<glyph horiz-adv-x="293" d="M35 599q45 41 95 41q40 0 65 -21t25 -55q0 -28 -19 -54t-51 -40v-2q89 -19 89 -93q0 -48 -39 -78.5t-101 -30.5q-31 0 -60 6l-2 16l2 2q32 -5 60 -5q54 0 87 24.5t33 65.5q0 77 -109 82h-33l-2 2l1 15h29q32 0 63 26t31 61q0 27 -19.5 43.5t-51.5 16.5q-42 0 -86 -39h-3z " />
<glyph horiz-adv-x="335" d="M30 389v15l174 233h19v-232h69l3 -3l-3 -16l-50 1h-19l1 -117l-2 -2l-16 -2l-2 2v119h-140l-31 -1zM52 405h152v200h-3z" />
<glyph horiz-adv-x="341" d="M39 491q0 72 37 112.5t102 40.5q18 0 75 -10l14 9l3 -3l-1 -175l1 -233h-22l1 152v9h-2q-43 -46 -92 -46q-53 0 -84.5 38t-31.5 106zM60 491q0 -60 26.5 -92.5t70.5 -32.5q53 0 92 51v198q-37 10 -69 10q-57 0 -88.5 -35t-31.5 -99z" />
<glyph horiz-adv-x="288" d="M36 -102l2 2q33 -5 53 -5q59 0 95.5 28t36.5 74q0 60 -107 83l-51 11l-3 4l4 149l6 6l33 -1h92l46 1l2 -2l-2 -17l-3 -2l-30 2h-126l-4 -123l44 -10q119 -25 119 -101q0 -54 -42 -87t-111 -33q-21 0 -51 5z" />
<glyph horiz-adv-x="201" d="M71 350v288l21 3v-70h3q38 69 89 69q13 0 17 -1v-20l-4 -1q-12 2 -18 2q-43 0 -87 -79v-65l1 -126h-22z" />
<glyph horiz-adv-x="323" d="M45 10q0 84 52 147t148 96h3l11 -10v-3q-163 -56 -189 -182l1 -1q49 36 103 36q50 0 77.5 -26.5t27.5 -75.5q0 -55 -31 -85t-89 -30q-55 0 -84.5 35t-29.5 99zM65 11q0 -57 24.5 -87.5t70.5 -30.5q48 0 73.5 25t25.5 72q0 41 -23 63t-65 22q-56 0 -105 -39q-1 -8 -1 -25z " />
<glyph horiz-adv-x="288" d="M36 286l2 2q33 -5 53 -5q59 0 95.5 28t36.5 74q0 60 -107 83l-51 11l-3 4l4 149l6 6l33 -1h92l46 1l2 -2l-2 -17l-3 -2l-30 2h-126l-4 -123l44 -10q119 -25 119 -101q0 -54 -42 -87t-111 -33q-21 0 -51 5z" />
<glyph horiz-adv-x="288" d="M28 233l2 17l46 -1h156l24 1l1 -17l-143 -301l-25 -58l-18 5l-1 4l165 347h-164l-40 -1z" />
<glyph horiz-adv-x="244" d="M29 368l3 18l4 2q32 -24 71 -24q36 0 57 18t21 42q0 23 -23 40t-50 26t-50 29t-23 47q0 35 25 56t67 21q29 0 64 -13l-4 -18l-5 -1q-29 14 -56 14q-32 0 -51.5 -16t-19.5 -42q0 -22 23 -38t50 -25.5t50 -29.5t23 -48q0 -33 -27.5 -56.5t-71.5 -23.5q-42 0 -77 22z" />
<glyph horiz-adv-x="323" d="M45 398q0 84 52 147t148 96h3l11 -10v-3q-163 -56 -189 -182l1 -1q49 36 103 36q50 0 77.5 -26.5t27.5 -75.5q0 -55 -31 -85t-89 -30q-55 0 -84.5 35t-29.5 99zM65 399q0 -57 24.5 -87.5t70.5 -30.5q48 0 73.5 25t25.5 72q0 41 -23 63t-65 22q-56 0 -105 -39 q-1 -8 -1 -25z" />
<glyph horiz-adv-x="288" d="M28 621l2 17l46 -1h156l24 1l1 -17l-143 -301l-25 -58l-18 5l-1 4l165 347h-164l-40 -1z" />
<glyph horiz-adv-x="320" d="M42 -29q0 67 92 100v2q-74 30 -74 88q0 42 28.5 66t75.5 24q44 0 69 -22t25 -62q0 -63 -80 -93v-2q22 -9 35 -15t28.5 -17.5t23 -27t7.5 -36.5q0 -45 -32.5 -72t-85.5 -27q-51 0 -81.5 26t-30.5 68zM61 -29q0 -35 25 -55.5t68 -20.5q45 0 72 21.5t27 57.5q0 19 -7 33 t-26 25.5t-28 15.5t-38 15q-27 -9 -44.5 -18t-33 -28.5t-15.5 -45.5zM79 161q0 -31 20 -48t58 -32q83 26 83 85q0 31 -21 49.5t-56 18.5q-38 0 -61 -20t-23 -53z" />
<glyph horiz-adv-x="188" d="M24 625l2 15h42v75l20 5l1 -2v-78h99l2 -3l-2 -14h-99l-1 -196q0 -60 48 -60q24 0 50 15l3 -2l-2 -16q-32 -17 -54 -17q-31 0 -48.5 20t-17.5 55l1 70v131h-41z" />
<glyph horiz-adv-x="323" d="M48 140q0 54 31 84t88 30q55 0 84.5 -35t29.5 -99q0 -84 -52 -147t-148 -96h-3l-10 10v4q161 54 189 180l-2 2q-47 -36 -103 -36q-49 0 -76.5 27t-27.5 76zM67 141q0 -42 23 -64t65 -22q55 0 106 41q1 8 1 24q0 57 -24.5 87t-70.5 30q-48 0 -74 -25t-26 -71z" />
<glyph horiz-adv-x="334" d="M63 434v204l21 3v-202q0 -72 64 -72q53 0 102 55v216l21 3v-237q0 -38 23 -38q14 0 26 9l4 -2l-3 -16q-13 -9 -32 -9q-37 0 -38 52h-3q-50 -52 -105 -52q-39 0 -59.5 22.5t-20.5 63.5z" />
<glyph horiz-adv-x="320" d="M42 359q0 67 92 100v2q-74 30 -74 88q0 42 28.5 66t75.5 24q44 0 69 -22t25 -62q0 -63 -80 -93v-2q22 -9 35 -15t28.5 -17.5t23 -27t7.5 -36.5q0 -45 -32.5 -72t-85.5 -27q-51 0 -81.5 26t-30.5 68zM61 359q0 -35 25 -55.5t68 -20.5q45 0 72 21.5t27 57.5q0 19 -7 33 t-26 25.5t-28 15.5t-38 15q-27 -9 -44.5 -18t-33 -28.5t-15.5 -45.5zM79 549q0 -31 20 -48t58 -32q83 26 83 85q0 31 -21 49.5t-56 18.5q-38 0 -61 -20t-23 -53z" />
<glyph horiz-adv-x="323" d="M48 528q0 54 31 84t88 30q55 0 84.5 -35t29.5 -99q0 -84 -52 -147t-148 -96h-3l-10 10v4q161 54 189 180l-2 2q-47 -36 -103 -36q-49 0 -76.5 27t-27.5 76zM67 529q0 -42 23 -64t65 -22q55 0 106 41q1 8 1 24q0 57 -24.5 87t-70.5 30q-48 0 -74 -25t-26 -71z" />
<glyph horiz-adv-x="256" d="M13 639l22 3l8 -32l81 -233h3l95 233l10 30h23l-118 -290h-24z" />
<glyph horiz-adv-x="475" d="M52 291q0 142 48.5 219t138.5 77q89 0 136.5 -76t47.5 -218q0 -143 -48 -220t-138 -77q-89 0 -137 76.5t-48 218.5zM71 293q0 -134 43.5 -205.5t124.5 -71.5q79 0 122 71.5t43 203.5q0 133 -43.5 204.5t-123.5 71.5t-123 -71t-43 -203z" />
<glyph horiz-adv-x="475" d="M49 524v16l207 53l5 -4v-589h-20v566l-186 -45z" />
<glyph horiz-adv-x="420" d="M13 639l21 3q11 -39 24 -84t29 -96t25 -83h3l80 231l9 30h24q13 -52 41.5 -146t34.5 -115h3q11 31 28.5 82.5t33 95.5t28.5 83h22l-103 -290h-23l-77 257h-3l-89 -257h-23z" />
<glyph horiz-adv-x="475" d="M57 1v17l160 214q71 95 100 145.5t29 92.5q0 43 -29 71t-81 28q-90 0 -159 -93h-4l-4 17q68 96 169 96q57 0 92.5 -33t35.5 -84q0 -47 -31 -101.5t-105 -153.5l-145 -194l2 -3h270l89 1l3 -5l-4 -17l-92 1h-250l-44 -1z" />
<glyph horiz-adv-x="271" d="M14 350l106 149l-99 139l25 4q16 -27 50 -73.5t39 -54.5l74 103l14 23h25l-101 -142l105 -146l-25 -4q-17 28 -53 78.5t-41 57.5l-81 -113l-13 -21h-25z" />
<glyph horiz-adv-x="245" d="M-23 241v5q52 11 78 31.5t48 72.5l-110 289l22 3l9 -31l88 -230h4l92 229l10 30h22l-115 -288q-25 -62 -53 -87t-82 -37h-4q-5 5 -9 13z" />
<glyph horiz-adv-x="475" d="M59 524q73 66 150 66q62 0 101.5 -32.5t39.5 -85.5q0 -46 -32 -87.5t-84 -63.5v-3q72 -14 110.5 -52.5t38.5 -96.5q0 -76 -61.5 -123.5t-161.5 -47.5q-48 0 -94 8l-4 17l4 3q46 -8 94 -8q92 0 147.5 41.5t55.5 109.5q0 62 -48.5 97.5t-138.5 39.5h-51l-3 3l1 16h47 q54 0 106.5 42.5t52.5 101.5q0 45 -33 72.5t-87 27.5q-74 0 -141 -63h-5z" />
<glyph horiz-adv-x="475" d="M38 197v17l257 372h20v-372h105l3 -4l-3 -17l-71 1h-34v-191l-2 -3l-16 -3l-2 3v194h-213l-41 -1zM62 214h233v333h-4z" />
<glyph horiz-adv-x="262" d="M22 349v16l187 258h-144l-32 -1l-3 3l3 16l37 -1h147l18 1l1 -16l-187 -257h150l37 1l2 -3l-3 -17l-42 1h-150z" />
<glyph horiz-adv-x="475" d="M65 20l3 3q45 -7 82 -7q102 0 164 46.5t62 123.5q0 52 -44.5 85.5t-138.5 53.5l-81 17l-5 5l6 232l10 8l54 -1h149l71 1l3 -2l-2 -18l-4 -2l-44 1h-217l-6 -206l73 -15q101 -21 148.5 -60t47.5 -100q0 -85 -68 -137t-179 -52q-39 0 -80 7z" />
<glyph horiz-adv-x="294" d="M46 436l3 16h68v86q0 74 30 114t86 40q42 0 84 -13l-6 -20h-6q-26 13 -72 13t-71 -34.5t-25 -99.5v-86h255l3 -4l-3 -16h-255v-432h-20v432h-67z" />
<glyph horiz-adv-x="475" d="M64 206q0 134 79.5 234.5t225.5 151.5h4l9 -11v-4q-124 -44 -198.5 -121t-93.5 -180l2 -1q75 60 162 60q75 0 116.5 -42t41.5 -119q0 -87 -46 -133.5t-132 -46.5q-82 0 -126 55t-44 157zM84 206q0 -92 38.5 -142t111.5 -50q76 0 117 41.5t41 118.5q0 68 -36.5 104.5 t-102.5 36.5q-88 0 -167 -68q-2 -26 -2 -41z" />
<glyph horiz-adv-x="475" d="M50 570l3 17l70 -1h258l39 1l1 -18l-242 -493l-38 -86l-20 6l-1 4l279 566h-283l-62 -1z" />
<glyph horiz-adv-x="475" d="M60 144q0 108 144 161v3q-54 23 -85 55t-31 85q0 65 43.5 103t111.5 38q66 0 104 -35.5t38 -97.5q0 -58 -34 -92.5t-92 -56.5v-3q34 -13 54.5 -23t45 -28t36 -43.5t11.5 -58.5q0 -70 -48.5 -112.5t-128.5 -42.5q-77 0 -123 40.5t-46 107.5zM80 143q0 -57 40.5 -92 t108.5 -35q72 0 114.5 36.5t42.5 96.5q0 40 -25 69.5t-46 40.5t-74 32q-7 3 -11 5q-31 -11 -53.5 -22t-46.5 -29t-37 -44t-13 -58zM108 448q0 -28 9.5 -49t29.5 -36.5t38 -25t47 -21.5q60 19 96.5 51t36.5 90q0 52 -32.5 82t-89.5 30q-60 0 -97.5 -32.5t-37.5 -88.5z" />
<glyph horiz-adv-x="475" d="M68 414q0 87 46 133.5t132 46.5q82 0 126 -55t44 -157q0 -134 -79.5 -234.5t-225.5 -151.5h-4l-9 11v4q124 44 198.5 121t93.5 180l-2 1q-75 -60 -162 -60q-75 0 -116.5 42t-41.5 119zM88 414q0 -68 36.5 -104.5t102.5 -36.5q88 0 167 68q2 26 2 41q0 92 -38.5 142 t-111.5 50q-76 0 -117 -41.5t-41 -118.5z" />
<glyph horiz-adv-x="237" />
<glyph horiz-adv-x="261" />
<glyph horiz-adv-x="475" d="M41 241q0 123 51.5 188.5t146.5 65.5q94 0 144.5 -65t50.5 -187q0 -119 -51 -183t-146 -64t-145.5 63.5t-50.5 181.5zM61 243q0 -110 46 -168.5t132 -58.5q85 0 130 58t45 167q0 113 -45.5 173.5t-131.5 60.5q-85 0 -130.5 -60t-45.5 -172z" />
<glyph horiz-adv-x="457" />
<glyph horiz-adv-x="475" d="M51 424v16l207 53l4 -4l1 -283l-1 -206h-19v466l-186 -45z" />
<glyph horiz-adv-x="475" d="M70 1v16l142 171q60 72 88 119.5t28 83.5q0 35 -26 58t-71 23q-82 0 -143 -77h-4l-4 17q63 80 152 80q51 0 83.5 -28t32.5 -71q0 -73 -122 -218l-128 -152l2 -3h240l79 1l3 -4l-4 -18l-83 1h-225l-38 -1z" />
<glyph horiz-adv-x="475" d="M61 427q75 66 155 66q64 0 105 -32.5t41 -85.5q0 -46 -33 -87t-87 -64v-3q74 -14 114 -52.5t40 -96.5q0 -76 -64 -123.5t-167 -47.5q-48 0 -98 8l-3 17l3 3q50 -8 98 -8q95 0 153 41.5t58 109.5q0 62 -50.5 97.5t-143.5 39.5h-53l-3 3l1 16h49q56 0 110.5 42.5 t54.5 101.5q0 45 -34 72.5t-90 27.5q-76 0 -148 -63h-4z" />
<glyph horiz-adv-x="475" d="M36 102v17l267 372h20v-372h108l4 -4l-4 -17l-73 1h-35v-191l-2 -3l-16 -3l-2 3v194h-221l-43 -1zM60 119h243v333h-4z" />
<glyph horiz-adv-x="475" d="M63 -75l3 3q45 -7 83 -7q104 0 166.5 46.5t62.5 123.5q0 51 -45 85t-140 54l-82 17l-5 5l6 232l10 8l54 -1h151l72 1l2 -2l-2 -18l-3 -2l-45 1h-219l-6 -206l73 -15q102 -21 150.5 -60t48.5 -100q0 -85 -68.5 -137t-181.5 -52q-39 0 -81 7z" />
<glyph horiz-adv-x="475" d="M65 206q0 134 80.5 234.5t228.5 151.5h4l8 -11v-4q-255 -90 -295 -301l2 -1q75 60 164 60q75 0 117 -41.5t42 -119.5q0 -87 -46 -133.5t-134 -46.5q-82 0 -126.5 55t-44.5 157zM85 206q0 -92 39 -142t112 -50q78 0 119 41.5t41 118.5q0 68 -37 104.5t-103 36.5 q-90 0 -169 -68q-2 -26 -2 -41z" />
<glyph horiz-adv-x="475" d="M45 475l3 17l72 -1h267l40 1l1 -18l-251 -493l-39 -86l-19 6l-1 4l288 566h-292l-64 -1z" />
<glyph horiz-adv-x="475" d="M60 144q0 108 144 161v3q-54 23 -85 55t-31 85q0 65 43.5 103t111.5 38q66 0 104 -35.5t38 -97.5q0 -58 -34 -92.5t-92 -56.5v-3q34 -13 54.5 -23t45 -28t36 -43.5t11.5 -58.5q0 -70 -48.5 -112.5t-128.5 -42.5q-77 0 -123 40.5t-46 107.5zM80 143q0 -57 40.5 -92 t108.5 -35q72 0 114.5 36.5t42.5 96.5q0 40 -25 69.5t-46 40.5t-74 32q-7 3 -11 5q-31 -11 -53.5 -22t-46.5 -29t-37 -44t-13 -58zM108 448q0 -28 9.5 -49t29.5 -36.5t38 -25t47 -21.5q60 19 96.5 51t36.5 90q0 52 -32.5 82t-89.5 30q-60 0 -97.5 -32.5t-37.5 -88.5z" />
<glyph horiz-adv-x="475" d="M59 318q0 87 46 133.5t134 46.5q82 0 126.5 -55t44.5 -157q0 -134 -80.5 -234.5t-228.5 -151.5h-4l-8 11v4q255 90 295 301l-2 1q-75 -60 -164 -60q-76 0 -117.5 41.5t-41.5 119.5zM79 318q0 -68 37 -104.5t103 -36.5q90 0 169 68q2 26 2 41q0 92 -39 142t-112 50 q-78 0 -119 -41.5t-41 -118.5z" />
<glyph horiz-adv-x="532" d="M194 634q0 20 20 20t20 -20t-20 -20t-20 20zM334 634q0 20 20 20t20 -20t-20 -20t-20 20z" />
<glyph horiz-adv-x="532" d="M145 614v4l52 47l6 2q18 -2 80.5 -20t75.5 -18q3 0 6.5 2t8.5 6t9.5 8t12 11.5t14.5 13.5h4l9 -11v-4l-52 -47l-6 -2q-18 2 -80.5 20t-75.5 18q-3 0 -6.5 -2t-8.5 -6t-9.5 -8t-12 -11.5t-14.5 -13.5h-4z" />
<glyph horiz-adv-x="105" d="M35 380l12 223l17 3l3 -6l-12 -223l-17 -3z" />
<glyph d="M102 557q91 44 176 94l5 -2l7 -12l-2 -5q-67 -38 -174 -93l-5 3z" />
<glyph d="M94 617l13 11h5q15 -65 82 -65t84 65h5l13 -11q-23 -74 -102 -74q-78 0 -100 74z" />
<glyph d="M88 620l7 14h5q46 -32 95 -70q49 38 95 70h5l7 -14q-47 -33 -98 -76h-16q-66 52 -100 76z" />
<glyph d="M88 567q47 33 98 76h16q66 -52 100 -76l-7 -14h-5q-46 32 -95 70q-49 -38 -95 -70h-5z" />
<glyph d="M101 639l7 12l5 2q85 -50 176 -94l-7 -15l-5 -3q-107 55 -174 93z" />
<glyph d="M65 549q91 84 114 107l5 -1l10 -10l-1 -5q-35 -35 -112 -105l-5 1zM195 549q91 84 114 107l5 -1l10 -10l-1 -5q-35 -35 -112 -105l-5 1z" />
<glyph d="M179 509l12 144l17 2l3 -4l-12 -144l-17 -2z" />
<glyph d="M124 595q0 20 20 20t20 -20t-20 -20t-20 20zM224 595q0 20 20 20t20 -20t-20 -20t-20 20z" />
<glyph d="M89 590l2 17h207l3 -3l-2 -17h-207z" />
<glyph d="M71 573v4l47 47l6 2q16 -2 71 -20t66 -18q3 0 6 2t7.5 6t8.5 8l11 11l13 13h3l9 -11v-4l-47 -47l-6 -2q-16 2 -71 20t-66 18q-3 0 -6 -1.5t-7.5 -5.5t-8.5 -8t-11 -11.5t-13 -13.5h-3z" />
<glyph horiz-adv-x="603" d="M48 313q0 158 76.5 243t218.5 85q89 0 180 -54l-6 -18h-7q-87 52 -167 52q-132 0 -203.5 -80t-71.5 -229q0 -143 62 -220t177 -77q81 0 189 30v191l20 2v-208q-114 -32 -208 -35q-125 0 -192.5 82.5t-67.5 235.5zM235 780q0 20 20 20t20 -20t-20 -20t-20 20zM375 780 q0 20 20 20t20 -20t-20 -20t-20 20z" />
<glyph d="M94 597l13 11h5q15 -65 82 -65t84 65h5l13 -11q-23 -74 -102 -74q-78 0 -100 74zM166 621q26 27 83 90h5l11 -10l-1 -5q-15 -17 -81 -88l-5 1z" />
<glyph d="M94 597l13 11h5q15 -65 82 -65t84 65h5l13 -11q-23 -74 -102 -74q-78 0 -100 74zM120 701l11 10h5q57 -63 83 -90l-12 -12l-5 -1q-66 71 -81 88z" />
<glyph d="M94 597l13 11h5q15 -65 82 -65t84 65h5l13 -11q-23 -74 -102 -74q-78 0 -100 74zM137 718q34 29 64 29q19 0 31.5 -11t12.5 -27q0 -29 -48 -65l16 -29l-17 -7l-22 41q51 34 51 58q0 20 -26 20t-54 -23z" />
<glyph d="M66 665v4l50 47l6 2q17 -2 76.5 -20t71.5 -18q5 0 10.5 4t18 17t20.5 20h3l9 -11v-4l-50 -47l-5 -2q-17 2 -77 20t-72 18q-3 0 -6.5 -2t-8 -6t-8.5 -8l-11.5 -11.5l-13.5 -13.5h-4zM94 597l13 11h5q15 -65 82 -65t84 65h5l13 -11q-23 -74 -102 -74q-78 0 -100 74z" />
<glyph horiz-adv-x="441" d="M-17 226q0 98 70 168t168 70t168 -70t70 -168t-70 -168t-168 -70t-168 70t-70 168z" />
<glyph horiz-adv-x="631" d="M-16 317q0 137 97 234.5t234 97.5t234.5 -97.5t97.5 -234.5t-97.5 -234t-234.5 -97t-234 97t-97 234z" />
<glyph d="M88 547q47 33 98 76h16q66 -52 100 -76l-7 -14h-5q-46 32 -95 70q-49 -38 -95 -70h-5zM245 630l70 80l5 -1l11 -9l-1 -5l-68 -76h-6z" />
<glyph d="M88 547q47 33 98 76h16q66 -52 100 -76l-7 -14h-5q-46 32 -95 70q-49 -38 -95 -70h-5zM221 700l11 9l5 1l70 -80l-11 -11h-6l-68 76z" />
<glyph d="M88 547q47 33 98 76h16q66 -52 100 -76l-7 -14h-5q-46 32 -95 70q-49 -38 -95 -70h-5zM221 709q33 28 61 28q18 0 29.5 -11t11.5 -26q0 -28 -45 -62l15 -27l-16 -7l-21 39q48 33 48 55q0 19 -24 19q-26 0 -52 -21z" />
<glyph d="M66 665v4l50 47l6 2q17 -2 76.5 -20t71.5 -18q5 0 10.5 4t18 17t20.5 20h3l9 -11v-4l-50 -47l-5 -2q-17 2 -77 20t-72 18q-3 0 -6.5 -2t-8 -6t-8.5 -8l-11.5 -11.5l-13.5 -13.5h-4zM88 547q47 33 98 76h16q66 -52 100 -76l-7 -14h-5q-46 32 -95 70q-49 -38 -95 -70h-5z " />
<glyph d="M88 704l7 14h5q46 -32 95 -70q49 38 95 70h5l7 -14q-47 -33 -98 -76h-16q-66 52 -100 76zM104 575q0 20 20 20t20 -20t-20 -20t-20 20zM244 575q0 20 20 20t20 -20t-20 -20t-20 20z" />
<glyph d="M74 674l2 17h237l3 -3l-2 -17h-237zM104 575q0 20 20 20t20 -20t-20 -20t-20 20zM244 575q0 20 20 20t20 -20t-20 -20t-20 20z" />
<glyph horiz-adv-x="786" d="M56 262q0 102 51 167.5t124 65.5q46 0 74 -22.5t28 -58.5q0 -32 -19 -60q104 71 186 164t126 193h4q5 -9 8 -20q-74 -159 -227 -289.5t-331 -188.5q14 -93 76 -147.5t156 -54.5q127 0 201.5 77.5t68.5 203.5q-61 13 -82 13q-68 0 -96 -77l-5 -2l-13 10q19 45 44 65.5 t68 23.5q25 0 110.5 -18.5t115.5 -18.5q68 0 96 77l5 2l13 -10q-19 -45 -44 -65.5t-68 -23.5q-34 0 -124 20q5 -134 -74.5 -216t-215.5 -82q-115 0 -185.5 75t-70.5 197zM76 262q0 -20 1 -29q99 33 192 91q48 38 43 92q-1 27 -23 43t-57 16q-66 0 -111 -59.5t-45 -153.5z " />
<glyph horiz-adv-x="401" d="M66 346h270l-135 -270z" />
<glyph d="M49 590l2 17h287l3 -3l-2 -17h-287z" />
<glyph horiz-adv-x="783" d="M100 21v423q0 80 80 80h423q80 0 80 -80v-423q0 -80 -80 -80h-423q-80 0 -80 80zM191 93h74v180q0 12 24 12q43 0 43 -56v-136h74v178q0 32 -22 52.5t-56 20.5l-48 -28q-6 -4 -9 -4q-6 0 -6 9v116h-74v-344zM435 302h26q10 0 10 -10v-132q0 -32 22 -52.5t56 -20.5l63 37 v25q-12 -4 -26 -4q-41 0 -41 57v90q0 10 10 10h58v36h-58q-10 0 -10 10v28h-21l-89 -56v-18z" />
<glyph horiz-adv-x="472" d="M60 -77q5 34 29 60.5t73 54.5v5q-87 19 -87 68q5 25 57 60v3q-61 41 -61 127q0 73 42 114t116 41q55 0 94 -25q74 14 128 29l4 -3v-18q-47 -12 -109 -23l-2 -3q39 -41 39 -109q0 -71 -42 -112.5t-115 -41.5q-42 0 -75 14q-55 -35 -55 -57q0 -26 50 -40t109.5 -19.5 t109.5 -30.5t50 -72q0 -55 -59.5 -96t-139.5 -41q-71 0 -113.5 32.5t-42.5 82.5zM80 -82q0 -37 37 -63.5t99 -26.5q72 0 125.5 36t53.5 81q0 15 -5.5 26.5t-18.5 20t-24.5 14.5t-34.5 11t-35.5 7.5t-40.5 6.5t-39 6q-117 -59 -117 -119zM90 301q0 -61 36 -96t100 -35 t101 35.5t37 98.5q0 62 -36 97t-99 35q-65 0 -102 -36t-37 -99zM147 585q0 20 20 20t20 -20t-20 -20t-20 20zM287 585q0 20 20 20t20 -20t-20 -20t-20 20z" />
<glyph d="M133 648q34 29 64 29q19 0 31.5 -11t12.5 -27q0 -29 -48 -65l16 -29l-17 -7l-22 41q51 34 51 58q0 20 -26 20t-54 -23z" />
<glyph horiz-adv-x="401" d="M31 221l270 135v-270z" />
<glyph horiz-adv-x="105" d="M35 299l12 234l17 3l3 -7l-12 -234l-17 -3z" />
<glyph horiz-adv-x="401" d="M101 86v270l270 -135z" />
<glyph d="M115 685q93 26 190 62l5 -3l4 -13l-2 -5q-74 -27 -188 -61l-4 4zM123 579q0 30 19.5 49.5t50.5 19.5q33 0 52 -21t19 -49q0 -31 -21.5 -50t-49.5 -19t-49 19.5t-21 50.5zM143 579q0 -23 14.5 -36.5t35.5 -13.5t36 13t15 36q0 21 -13.5 35.5t-37.5 14.5q-23 0 -36.5 -13.5 t-13.5 -35.5z" />
<glyph horiz-adv-x="441" d="M0 0v442h442v-442h-442z" />
<glyph horiz-adv-x="631" d="M0 0v632h632v-632h-632z" />
<glyph horiz-adv-x="401" d="M66 106l135 270l135 -270h-270z" />
</font>
</defs>
</svg>
